<svg width="277" height="358" viewBox="0 0 277 358" fill="none" xmlns="http://www.w3.org/2000/svg">
<path d="M75.2067 0.234375H0V43.4958H56.0793L82.0479 67.8303L56.0793 92.1649H0V135.426H75.2067L115.416 97.747L83.4906 67.8303L115.416 37.9137L75.2067 0.234375Z" fill="#0F0F14"/>
<path d="M75.2067 178.687H0V221.949H56.0793L82.0479 246.283L56.0793 270.618H0V313.879H75.2067L115.416 276.2L83.4906 246.283L115.416 216.367L75.2067 178.687Z" fill="#0F0F14"/>
<path d="M277 81.1747L236.79 43.4954H161.584V86.7569H217.663L243.632 111.091L217.663 135.426H161.584V178.687H236.79L277 141.008L245.074 111.091L277 81.1747Z" fill="#0F0F14"/>
<path d="M236.79 221.949H161.584V265.211H217.663L243.632 289.545L217.663 313.88H161.584V357.141H236.79L277 319.462L245.074 289.545L277 259.629L236.79 221.949Z" fill="#0F0F14"/>
</svg>
