<svg width="277" height="571" viewBox="0 0 277 571" fill="none" xmlns="http://www.w3.org/2000/svg">
<path d="M75.2067 0H0V46.1414H56.0793L82.0479 72.096L56.0793 98.0505H0V144.192H75.2067L115.416 104.004L83.4906 72.096L115.416 40.1877L75.2067 0Z" fill="#F0F0F5"/>
<path d="M75.2067 190.333H0V236.474H56.0793L82.0479 262.429L56.0793 288.383H0V334.525H75.2067L115.416 294.337L83.4906 262.429L115.416 230.521L75.2067 190.333Z" fill="#F0F0F5"/>
<path d="M75.2067 380.667H0V426.809H56.0793L82.0479 452.763L56.0793 478.718H0V524.859H75.2067L115.416 484.671L83.4906 452.763L115.416 420.855L75.2067 380.667Z" fill="#F0F0F5"/>
<path d="M277 86.3287L236.79 46.141H161.584V92.2825H217.663L243.632 118.237L217.663 144.192H161.584V190.333H236.79L277 150.145L245.074 118.237L277 86.3287Z" fill="#F0F0F5"/>
<path d="M236.79 236.475H161.584V282.617H217.663L243.632 308.571L217.663 334.526H161.584V380.667H236.79L277 340.479L245.074 308.571L277 276.663L236.79 236.475Z" fill="#F0F0F5"/>
<path d="M236.79 426.808H161.584V472.949H217.663L243.632 498.904L217.663 524.859H161.584V571H236.79L277 530.812L245.074 498.904L277 466.996L236.79 426.808Z" fill="#F0F0F5"/>
</svg>
