<svg width="104" height="16" viewBox="0 0 104 16" fill="none" xmlns="http://www.w3.org/2000/svg">
<path d="M12.4179 4.4592L8.98281 8L12.4179 11.5408L8.09182 16H0V10.88H6.03355L8.82758 8L6.03355 5.12H0V0H8.09182L12.4179 4.4592ZM26.8925 9.5696C26.8925 10.9904 25.7765 11.6 23.6235 11.6H17.3851V4.4H23.1097C25.5157 4.4 26.3508 5.12 26.3508 6.24C26.3508 7.0208 25.8556 7.5808 25.1773 7.88C26.3291 8.1104 26.8925 8.6704 26.8925 9.5696ZM19.3254 7.28H23.147C23.9821 7.28 24.4074 7.16 24.4074 6.6208C24.4074 5.9808 23.8253 5.9808 23.088 5.9808H19.3254V7.28ZM24.9522 9.36C24.9522 8.7808 24.4384 8.68 23.5847 8.68H19.3254V10.0208H23.8176C24.5735 10.0192 24.9522 9.84 24.9522 9.36ZM29.7067 4.4H27.7664V11.6H34.7515V10H29.7067V4.4ZM45.1888 8C45.1888 10.0992 46.935 11.6 49.5537 11.6H53.7261V9.9808H49.5738C48.138 9.9808 47.1291 9.12 47.1291 8C47.1291 6.88 48.138 6.0192 49.5738 6.0192H53.7261V4.4H49.5537C46.9366 4.4 45.1888 5.9008 45.1888 8ZM91.7559 9.5008L86.1306 4.4H83.9963V11.6H85.9366V6.6L91.4657 11.6H93.6978V4.4H91.7575V9.5008H91.7559ZM74.4888 11.6H82.6381V10H76.4291V8.72H82.25V7.2192H76.4291V5.9792H82.6381V4.4H74.4888V11.6ZM94.4724 4.4V6H98.2753V11.6H100.216V6H104V4.4H94.4724ZM41.4153 4.4L45.6156 11.6H43.4239L42.6478 10.2H38.1276L37.3329 11.6H35.1411L39.4781 4.4H41.4153ZM41.8235 8.7008L40.4265 6.1712L38.9814 8.7008H41.8235ZM63.5254 4.4496V4.4H60.6149L56.7343 7.12V4.4H54.794V11.6H56.7343V8.72L60.7112 11.6H63.7194V11.5504L58.4806 7.88L63.5254 4.4496ZM70.9187 9.1392L73.4209 11.5504V11.6H70.8985L68.5888 9.32H66.2418V11.6H64.3015V4.4H69.5791C71.9261 4.4 73.2269 5.2608 73.2269 6.84C73.2269 8.08 72.4119 8.88 70.9187 9.1392ZM71.3067 6.8192C71.3067 6.0992 70.7635 5.9792 69.5217 5.9792H66.2433V7.76H69.5217C70.7635 7.76 71.3067 7.5392 71.3067 6.8192Z" fill="#F0F0F5"/>
</svg>
