<svg width="172" height="292" viewBox="0 0 172 292" fill="none" xmlns="http://www.w3.org/2000/svg">
<path d="M46.6989 59.2724H0V87.955H34.8219L50.9469 104.089L34.8219 120.223H0V148.905H46.6989L71.6667 123.924L51.8427 104.089L71.6667 84.254L46.6989 59.2724Z" fill="#0F0F14"/>
<path d="M46.6989 177.819H0V206.502H34.8219L50.9469 222.636L34.8219 238.77H0V267.452H46.6989L71.6667 242.471L51.8427 222.636L71.6667 202.801L46.6989 177.819Z" fill="#0F0F14"/>
<path d="M46.6989 296.366H0V325.049H34.8219L50.9469 341.183L34.8219 357.316H0V385.999H46.6989L71.6667 361.017L51.8427 341.183L71.6667 321.348L46.6989 296.366Z" fill="#0F0F14"/>
<path d="M147.032 -0.000976562H100.333V28.6816H135.155L151.28 44.8155L135.155 60.9494H100.333V89.632H147.032L172 64.6504L152.176 44.8155L172 24.9806L147.032 -0.000976562Z" fill="#0F0F14"/>
<path d="M147.032 118.546H100.333V147.228H135.155L151.28 163.362L135.155 179.496H100.333V208.179H147.032L172 183.197L152.176 163.362L172 143.527L147.032 118.546Z" fill="#0F0F14"/>
<path d="M147.032 237.093H100.333V265.775H135.155L151.28 281.909L135.155 298.043H100.333V326.726H147.032L172 301.744L152.176 281.909L172 262.074L147.032 237.093Z" fill="#0F0F14"/>
</svg>
