<svg width="215" height="32" viewBox="0 0 215 32" fill="none" xmlns="http://www.w3.org/2000/svg">
<path d="M25.6 8.91742L18.5184 15.999L25.6 23.0806L16.6816 31.999H0V21.759H12.4384L18.1984 15.999L12.4384 10.239H0V-0.000976562H16.6816L25.6 8.91742ZM55.44 19.1382C55.44 21.9798 53.1392 23.199 48.7008 23.199H35.84V8.79902H47.6416C52.6016 8.79902 54.3232 10.239 54.3232 12.479C54.3232 14.0406 53.3024 15.1606 51.904 15.759C54.2784 16.2198 55.44 17.3398 55.44 19.1382ZM39.84 14.559H47.7184C49.44 14.559 50.3168 14.319 50.3168 13.2406C50.3168 11.9606 49.1168 11.9606 47.5968 11.9606H39.84V14.559ZM51.44 18.719C51.44 17.5606 50.3808 17.359 48.6208 17.359H39.84V20.0406H49.1008C50.6592 20.0374 51.44 19.679 51.44 18.719ZM61.2416 8.79902H57.2416V23.199H71.6416V19.999H61.2416V8.79902ZM93.1584 15.999C93.1584 20.1974 96.7584 23.199 102.157 23.199H110.758V19.9606H102.198C99.2384 19.9606 97.1584 18.239 97.1584 15.999C97.1584 13.759 99.2384 12.0374 102.198 12.0374H110.758V8.79902H102.157C96.7616 8.79902 93.1584 11.8006 93.1584 15.999ZM189.158 19.0006L177.562 8.79902H173.162V23.199H177.162V13.199L188.56 23.199H193.162V8.79902H189.162V19.0006H189.158ZM153.562 23.199H170.362V19.999H157.562V17.439H169.562V14.4374H157.562V11.9574H170.362V8.79902H153.562V23.199ZM194.758 8.79902V11.999H202.598V23.199H206.598V11.999H214.4V8.79902H194.758ZM85.3792 8.79902L94.0384 23.199H89.52L87.92 20.399H78.6016L76.9632 23.199H72.4448L81.3856 8.79902H85.3792ZM86.2208 17.4006L83.3408 12.3414L80.3616 17.4006H86.2208ZM130.96 8.89822V8.79902H124.96L116.96 14.239V8.79902H112.96V23.199H116.96V17.439L125.158 23.199H131.36V23.0998L120.56 15.759L130.96 8.89822ZM146.202 18.2774L151.36 23.0998V23.199H146.16L141.398 18.639H136.56V23.199H132.56V8.79902H143.44C148.278 8.79902 150.96 10.5206 150.96 13.679C150.96 16.159 149.28 17.759 146.202 18.2774ZM147.002 13.6374C147.002 12.1974 145.882 11.9574 143.322 11.9574H136.563V15.519H143.322C145.882 15.519 147.002 15.0774 147.002 13.6374Z" fill="#1E1E23"/>
</svg>
