<svg width="78" height="80" viewBox="0 0 78 80" fill="none" xmlns="http://www.w3.org/2000/svg">
<path d="M38.9448 17.8883L30.9459 7.80965C21.4331 8.33399 12.1061 10.6581 3.45954 14.6587C6.94907 20.108 13.9481 22.7777 13.9481 22.7777C14.4281 17.9883 17.6976 16.7785 28.0163 16.7785L38.9448 80L49.8433 16.8084C60.222 16.8084 63.5015 17.9783 63.9715 22.8076C63.9715 22.8076 70.9705 20.128 74.46 14.6887C65.8079 10.6695 56.4694 8.33484 46.9437 7.80965L38.9448 17.8883Z" fill="#3C3C41"/>
<path d="M0 7.83965C0.628791 9.43019 1.35679 10.9797 2.17971 12.479C13.7454 7.33064 26.2858 4.73865 38.9448 4.88004C51.6052 4.72442 64.1486 7.31703 75.7099 12.479C76.5768 10.9951 77.3224 9.4436 77.9396 7.83965C65.599 2.66505 52.3514 0 38.9698 0C25.5882 0 12.3406 2.66505 0 7.83965Z" fill="#3C3C41"/>
</svg>
