<svg width="17" height="16" viewBox="0 0 17 16" fill="none" xmlns="http://www.w3.org/2000/svg">
<path fill-rule="evenodd" clip-rule="evenodd" d="M8.19922 2C11.5129 2 14.1992 4.68629 14.1992 8C14.1992 11.3137 11.5129 14 8.19922 14C4.88551 14 2.19922 11.3137 2.19922 8C2.19922 4.68629 4.88551 2 8.19922 2ZM15.1992 8C15.1992 4.13401 12.0652 1 8.19922 0.999999C4.33323 0.999999 1.19922 4.13401 1.19922 8C1.19922 11.866 4.33322 15 8.19922 15C12.0652 15 15.1992 11.866 15.1992 8ZM8.19922 7C7.92308 7 7.69922 7.22386 7.69922 7.5L7.69922 11.5C7.69922 11.7761 7.92308 12 8.19922 12C8.47536 12 8.69922 11.7761 8.69922 11.5L8.69922 7.5C8.69922 7.22386 8.47536 7 8.19922 7Z" fill="#A0A0A5"/>
<path d="M7.44922 5.25C7.44922 5.66421 7.785 6 8.19922 6C8.61343 6 8.94922 5.66421 8.94922 5.25C8.94922 4.83579 8.61343 4.5 8.19922 4.5C7.785 4.5 7.44922 4.83579 7.44922 5.25Z" fill="#A0A0A5"/>
</svg>
