<svg width="108" height="16" viewBox="0 0 108 16" fill="none" xmlns="http://www.w3.org/2000/svg">
<path d="M12.8 4.4592L9.2592 8L12.8 11.5408L8.3408 16H0V10.88H6.2192L9.0992 8L6.2192 5.12H0V0H8.3408L12.8 4.4592ZM27.72 9.5696C27.72 10.9904 26.5696 11.6 24.3504 11.6H17.92V4.4H23.8208C26.3008 4.4 27.1616 5.12 27.1616 6.24C27.1616 7.0208 26.6512 7.5808 25.952 7.88C27.1392 8.1104 27.72 8.6704 27.72 9.5696ZM19.92 7.28H23.8592C24.72 7.28 25.1584 7.16 25.1584 6.6208C25.1584 5.9808 24.5584 5.9808 23.7984 5.9808H19.92V7.28ZM25.72 9.36C25.72 8.7808 25.1904 8.68 24.3104 8.68H19.92V10.0208H24.5504C25.3296 10.0192 25.72 9.84 25.72 9.36ZM30.6208 4.4H28.6208V11.6H35.8208V10H30.6208V4.4ZM46.5792 8C46.5792 10.0992 48.3792 11.6 51.0784 11.6H55.3792V9.9808H51.0992C49.6192 9.9808 48.5792 9.12 48.5792 8C48.5792 6.88 49.6192 6.0192 51.0992 6.0192H55.3792V4.4H51.0784C48.3808 4.4 46.5792 5.9008 46.5792 8ZM94.5792 9.5008L88.7808 4.4H86.5808V11.6H88.5808V6.6L94.28 11.6H96.5808V4.4H94.5808V9.5008H94.5792ZM76.7808 11.6H85.1808V10H78.7808V8.72H84.7808V7.2192H78.7808V5.9792H85.1808V4.4H76.7808V11.6ZM97.3792 4.4V6H101.299V11.6H103.299V6H107.2V4.4H97.3792ZM42.6896 4.4L47.0192 11.6H44.76L43.96 10.2H39.3008L38.4816 11.6H36.2224L40.6928 4.4H42.6896ZM43.1104 8.7008L41.6704 6.1712L40.1808 8.7008H43.1104ZM65.48 4.4496V4.4H62.48L58.48 7.12V4.4H56.48V11.6H58.48V8.72L62.5792 11.6H65.68V11.5504L60.28 7.88L65.48 4.4496ZM73.1008 9.1392L75.68 11.5504V11.6H73.08L70.6992 9.32H68.28V11.6H66.28V4.4H71.72C74.1392 4.4 75.48 5.2608 75.48 6.84C75.48 8.08 74.64 8.88 73.1008 9.1392ZM73.5008 6.8192C73.5008 6.0992 72.9408 5.9792 71.6608 5.9792H68.2816V7.76H71.6608C72.9408 7.76 73.5008 7.5392 73.5008 6.8192Z" fill="#BEBEC3"/>
</svg>
