<svg width="108" height="16" viewBox="0 0 108 16" fill="none" xmlns="http://www.w3.org/2000/svg">
<path d="M13.6008 4.4592L10.06 8L13.6008 11.5408L9.14158 16H0.800781V10.88H7.01998L9.89998 8L7.01998 5.12H0.800781V0H9.14158L13.6008 4.4592ZM28.5208 9.5696C28.5208 10.9904 27.3704 11.6 25.1512 11.6H18.7208V4.4H24.6216C27.1016 4.4 27.9624 5.12 27.9624 6.24C27.9624 7.0208 27.452 7.5808 26.7528 7.88C27.94 8.1104 28.5208 8.6704 28.5208 9.5696ZM20.7208 7.28H24.66C25.5208 7.28 25.9592 7.16 25.9592 6.6208C25.9592 5.9808 25.3592 5.9808 24.5992 5.9808H20.7208V7.28ZM26.5208 9.36C26.5208 8.7808 25.9912 8.68 25.1112 8.68H20.7208V10.0208H25.3512C26.1304 10.0192 26.5208 9.84 26.5208 9.36ZM31.4216 4.4H29.4216V11.6H36.6216V10H31.4216V4.4ZM47.38 8C47.38 10.0992 49.18 11.6 51.8792 11.6H56.18V9.9808H51.9C50.42 9.9808 49.38 9.12 49.38 8C49.38 6.88 50.42 6.0192 51.9 6.0192H56.18V4.4H51.8792C49.1816 4.4 47.38 5.9008 47.38 8ZM95.38 9.5008L89.5816 4.4H87.3816V11.6H89.3816V6.6L95.0808 11.6H97.3816V4.4H95.3816V9.5008H95.38ZM77.5816 11.6H85.9816V10H79.5816V8.72H85.5816V7.2192H79.5816V5.9792H85.9816V4.4H77.5816V11.6ZM98.18 4.4V6H102.1V11.6H104.1V6H108.001V4.4H98.18ZM43.4904 4.4L47.82 11.6H45.5608L44.7608 10.2H40.1016L39.2824 11.6H37.0232L41.4936 4.4H43.4904ZM43.9112 8.7008L42.4712 6.1712L40.9816 8.7008H43.9112ZM66.2808 4.4496V4.4H63.2808L59.2808 7.12V4.4H57.2808V11.6H59.2808V8.72L63.38 11.6H66.4808V11.5504L61.0808 7.88L66.2808 4.4496ZM73.9016 9.1392L76.4808 11.5504V11.6H73.8808L71.5 9.32H69.0808V11.6H67.0808V4.4H72.5208C74.94 4.4 76.2808 5.2608 76.2808 6.84C76.2808 8.08 75.4408 8.88 73.9016 9.1392ZM74.3016 6.8192C74.3016 6.0992 73.7416 5.9792 72.4616 5.9792H69.0824V7.76H72.4616C73.7416 7.76 74.3016 7.5392 74.3016 6.8192Z" fill="#BEBEC3"/>
</svg>
