<svg width="172" height="293" viewBox="0 0 172 293" fill="none" xmlns="http://www.w3.org/2000/svg">
<path d="M46.6989 59.3164H0V87.9989H34.8219L50.9469 104.133L34.8219 120.267H0V148.949H46.6989L71.6667 123.968L51.8427 104.133L71.6667 84.298L46.6989 59.3164Z" fill="#0F0F14"/>
<path d="M46.6989 177.863H0V206.546H34.8219L50.9469 222.68L34.8219 238.814H0V267.496H46.6989L71.6667 242.515L51.8427 222.68L71.6667 202.845L46.6989 177.863Z" fill="#0F0F14"/>
<path d="M46.6989 296.41H0V325.093H34.8219L50.9469 341.227L34.8219 357.36H0V386.043H46.6989L71.6667 361.061L51.8427 341.227L71.6667 321.392L46.6989 296.41Z" fill="#0F0F14"/>
<path d="M147.032 0.0429688H100.333V28.7255H135.155L151.28 44.8594L135.155 60.9934H100.333V89.6759H147.032L172 64.6944L152.176 44.8594L172 25.0245L147.032 0.0429688Z" fill="#0F0F14"/>
<path d="M147.032 118.59H100.333V147.272H135.155L151.28 163.406L135.155 179.54H100.333V208.223H147.032L172 183.241L152.176 163.406L172 143.571L147.032 118.59Z" fill="#0F0F14"/>
<path d="M147.032 237.137H100.333V265.819H135.155L151.28 281.953L135.155 298.087H100.333V326.77H147.032L172 301.788L152.176 281.953L172 262.118L147.032 237.137Z" fill="#0F0F14"/>
</svg>
