<svg width="84" height="70" viewBox="0 0 84 70" fill="none" xmlns="http://www.w3.org/2000/svg">
<path d="M11.999 24.5946C16.343 11.8971 28.3493 3.36175 41.8617 3.36175C55.3669 3.36175 67.3805 11.8898 71.7245 24.5873L71.7609 24.6965H81.264V23.5613L77.3129 23.1029C74.8753 22.8191 74.3513 21.7422 73.6965 20.3815L73.5291 20.0468C67.8025 7.8659 55.3742 0 41.8472 0C28.3274 0 15.8919 7.86591 10.1798 20.0395L10.0197 20.3742C9.35759 21.7349 8.83368 22.8119 6.40332 23.0956L2.45218 23.5613V24.7037H11.9553L11.999 24.5946Z" fill="#3C3C41"/>
<path d="M71.71 45.4054C67.3659 58.1029 55.3669 66.631 41.8545 66.631C28.3347 66.631 16.3358 58.0956 12.0062 45.3981L11.9699 45.2963H2.45218V46.4387L6.40332 46.8971C8.83368 47.1809 9.36486 48.2578 10.0197 49.6185L10.1798 49.9459C15.8919 62.1268 28.3202 70 41.8472 70C55.3669 70 67.7952 62.1268 73.5145 49.9605L73.6746 49.6258C74.3368 48.2651 74.8534 47.1882 77.2911 46.9044L81.2495 46.4459V45.3035H71.7464L71.71 45.4054Z" fill="#3C3C41"/>
<path d="M19.0281 30.1248H16.8742V39.868H19.0281V30.1248Z" fill="#3C3C41"/>
<path d="M12.1081 39.868V30.1248H9.95426V37.3867L2.77235 30.1248H0V39.868H2.15385V32.5551L9.38669 39.868H12.1081Z" fill="#3C3C41"/>
<path d="M60.3368 30.1248L54.2536 39.8607H56.8659L57.9501 38.1216H65.0447L66.1289 39.8607H68.7412L62.658 30.1248H60.3368ZM59.0634 36.2807L61.501 32.3659L63.9314 36.2807H59.0634Z" fill="#3C3C41"/>
<path d="M39.6788 37.8596V39.868H48.4834C48.5561 39.868 49.0655 39.868 49.1892 39.8534C50.9865 39.6933 51.8015 38.1944 51.8015 36.8773C51.8015 35.5603 50.9428 34.0977 49.3129 33.9376C49.0801 33.9158 48.8472 33.9012 48.6071 33.9085H42.8514C42.6403 33.9158 42.4221 33.8939 42.211 33.8576C42.0291 33.8066 41.8618 33.6975 41.7526 33.5447C41.6435 33.3919 41.5853 33.2027 41.5925 33.0135C41.5925 32.8243 41.6507 32.6351 41.7672 32.4823C41.8836 32.3295 42.0437 32.2203 42.2256 32.1621C42.4221 32.1185 42.6258 32.1039 42.8295 32.1185H51.1393V30.1247H42.6986C42.4148 30.1174 42.131 30.132 41.8545 30.1684C41.1632 30.2484 40.5302 30.5904 40.079 31.1143C39.6206 31.6382 39.3805 32.3149 39.395 33.0062C39.395 34.2141 40.1518 35.6185 41.8181 35.8586C42.1164 35.895 42.4221 35.9023 42.7204 35.9023H48.3306C48.4397 35.9023 48.6799 35.9023 48.7381 35.9168C48.9709 35.9459 49.1819 36.0551 49.342 36.2297C49.5021 36.4043 49.5894 36.6226 49.5967 36.8555C49.604 37.0883 49.5239 37.3139 49.3784 37.4958C49.2329 37.6777 49.0218 37.7942 48.789 37.8378C48.7308 37.8451 48.4543 37.8596 48.3451 37.8596H39.6788Z" fill="#3C3C41"/>
<path d="M23.5104 37.8596V39.868H32.315C32.3877 39.868 32.8971 39.868 33.0208 39.8534C34.8181 39.6933 35.6403 38.1944 35.6403 36.8773C35.6403 35.5603 34.789 34.0977 33.159 33.9376C32.9262 33.9158 32.6933 33.9012 32.4532 33.9085H26.6902C26.4792 33.9158 26.2609 33.8939 26.0499 33.8576C25.868 33.8066 25.7006 33.6975 25.5915 33.5447C25.475 33.3919 25.4241 33.2027 25.4314 33.0135C25.4314 32.8243 25.4896 32.6351 25.606 32.4823C25.7225 32.3295 25.8825 32.2203 26.0644 32.1621C26.2609 32.1185 26.4647 32.1039 26.6684 32.1185H34.9782V30.1247H26.5374C26.2536 30.1174 25.9699 30.132 25.6933 30.1684C25.0021 30.2484 24.369 30.5904 23.9179 31.1143C23.4595 31.6382 23.2193 32.3149 23.2339 33.0062C23.2339 34.2141 23.9906 35.6185 25.657 35.8586C25.9553 35.895 26.2609 35.9023 26.5665 35.9023H32.1767C32.2859 35.9023 32.526 35.9023 32.5842 35.9168C32.817 35.9459 33.0281 36.0551 33.1881 36.2297C33.3482 36.4043 33.4356 36.6226 33.4428 36.8555C33.4501 37.0883 33.3701 37.3139 33.2245 37.4958C33.079 37.6777 32.868 37.8014 32.6351 37.8378C32.5696 37.8451 32.3004 37.8596 32.1913 37.8596H23.5104Z" fill="#3C3C41"/>
<path d="M81.526 30.1248V37.3867L74.3441 30.1248H71.5717V39.868H73.7256V32.5551L80.9584 39.868H83.6798V30.1248H81.526Z" fill="#3C3C41"/>
</svg>
