<svg width="161" height="24" viewBox="0 0 161 24" fill="none" xmlns="http://www.w3.org/2000/svg">
<path d="M19.2 6.6888L13.8888 12L19.2 17.3112L12.5112 24H0V16.32H9.3288L13.6488 12L9.3288 7.68H0V0H12.5112L19.2 6.6888ZM41.58 14.3544C41.58 16.4856 39.8544 17.4 36.5256 17.4H26.88V6.6H35.7312C39.4512 6.6 40.7424 7.68 40.7424 9.36C40.7424 10.5312 39.9768 11.3712 38.928 11.82C40.7088 12.1656 41.58 13.0056 41.58 14.3544ZM29.88 10.92H35.7888C37.08 10.92 37.7376 10.74 37.7376 9.9312C37.7376 8.9712 36.8376 8.9712 35.6976 8.9712H29.88V10.92ZM38.58 14.04C38.58 13.1712 37.7856 13.02 36.4656 13.02H29.88V15.0312H36.8256C37.9944 15.0288 38.58 14.76 38.58 14.04ZM45.9312 6.6H42.9312V17.4H53.7312V15H45.9312V6.6ZM69.8688 12C69.8688 15.1488 72.5688 17.4 76.6176 17.4H83.0688V14.9712H76.6488C74.4288 14.9712 72.8688 13.68 72.8688 12C72.8688 10.32 74.4288 9.0288 76.6488 9.0288H83.0688V6.6H76.6176C72.5712 6.6 69.8688 8.8512 69.8688 12ZM141.869 14.2512L133.171 6.6H129.871V17.4H132.871V9.9L141.42 17.4H144.871V6.6H141.871V14.2512H141.869ZM115.171 17.4H127.771V15H118.171V13.08H127.171V10.8288H118.171V8.9688H127.771V6.6H115.171V17.4ZM146.069 6.6V9H151.949V17.4H154.949V9H160.8V6.6H146.069ZM64.0344 6.6L70.5288 17.4H67.14L65.94 15.3H58.9512L57.7224 17.4H54.3336L61.0392 6.6H64.0344ZM64.6656 13.0512L62.5056 9.2568L60.2712 13.0512H64.6656ZM98.22 6.6744V6.6H93.72L87.72 10.68V6.6H84.72V17.4H87.72V13.08L93.8688 17.4H98.52V17.3256L90.42 11.82L98.22 6.6744ZM109.651 13.7088L113.52 17.3256V17.4H109.62L106.049 13.98H102.42V17.4H99.42V6.6H107.58C111.209 6.6 113.22 7.8912 113.22 10.26C113.22 12.12 111.96 13.32 109.651 13.7088ZM110.251 10.2288C110.251 9.1488 109.411 8.9688 107.491 8.9688H102.422V11.64H107.491C109.411 11.64 110.251 11.3088 110.251 10.2288Z" fill="#FAFAFF"/>
</svg>
