<svg width="100" height="36" viewBox="0 0 100 36" fill="none" xmlns="http://www.w3.org/2000/svg">
<path d="M80.5 11.98H77.87C77.67 11.98 77.57 11.98 77.49 12.18C77.19 12.76 73.49 18.27 72.82 19.32C72.7 19.48 72.56 19.46 72.54 19.27C72.4537 18.9002 72.2786 18.557 72.03 18.27C71.7608 17.9655 71.4158 17.7378 71.03 17.61C70.3958 17.3564 69.7052 17.2769 69.03 17.38C67.8638 17.5763 66.7663 18.0648 65.84 18.8C64.41 19.88 63.17 21.29 61.58 22.32C60.71 22.89 59.52 23.38 58.72 22.65C57.92 21.92 58.08 20.5 59.18 19.35C59.3 19.23 59.44 19.35 59.42 19.44C59.3551 19.6858 59.3551 19.9442 59.42 20.19C59.4893 20.4373 59.6281 20.6594 59.82 20.83C60.0568 21.0406 60.3545 21.1702 60.67 21.2C60.9832 21.2291 61.2984 21.1703 61.58 21.03C61.9071 20.8508 62.1905 20.6015 62.41 20.3C62.6181 20.0026 62.7518 19.6597 62.8 19.3C62.8367 19.0359 62.8202 18.7672 62.7515 18.5096C62.6828 18.252 62.5633 18.0107 62.4 17.8C62.2222 17.587 62.0049 17.4104 61.76 17.28C61.5136 17.1557 61.2452 17.081 60.97 17.06C59.9955 17.0318 59.0496 17.3914 58.34 18.06C57.9325 18.3789 57.5781 18.7603 57.29 19.19C57.2 19.32 57.06 19.33 57.07 19.14C57.07 17.64 56.49 16.8 55.25 16.77C54.2293 16.7987 53.246 17.1604 52.45 17.8C51.5783 18.5883 50.7599 19.4335 50 20.33C49.9 20.44 49.81 20.44 49.78 20.23C49.7703 19.2978 49.5001 18.3868 49 17.6C48.9138 17.4763 48.7861 17.3876 48.64 17.35C48.4955 17.3116 48.3418 17.3295 48.21 17.4C47.8842 17.5591 47.573 17.7465 47.28 17.96C47.1918 18.0268 47.1283 18.1209 47.0993 18.2277C47.0704 18.3345 47.0776 18.4478 47.12 18.55C47.5606 20.0647 47.4688 21.6847 46.86 23.14C46.61 23.7915 46.2263 24.3834 45.7337 24.8777C45.2412 25.372 44.6506 25.7577 44 26.01C43.6128 26.1713 43.183 26.1999 42.7778 26.0914C42.3727 25.9828 42.0148 25.7433 41.76 25.41C41.01 24.41 41.33 22.63 42.42 21.16C43.4029 19.9447 44.71 19.0328 46.19 18.53H46.28C46.308 18.5104 46.3291 18.4824 46.34 18.45C46.3486 18.4206 46.3486 18.3894 46.34 18.36C46.3489 18.3273 46.3489 18.2927 46.34 18.26C46.27 18.03 46.15 17.72 46.1 17.58C45.97 17.24 45.61 17.2 45.17 17.23C44.1551 17.3771 43.1776 17.7165 42.29 18.23C40.4002 19.3808 38.9633 21.146 38.22 23.23C38.0402 23.7238 37.7837 24.1861 37.46 24.6C36.9444 25.1938 36.379 25.7425 35.77 26.24C35.7215 26.2806 35.6895 26.3375 35.68 26.4C35.655 26.4609 35.655 26.5291 35.68 26.59C35.8501 26.9117 36.0733 27.2024 36.34 27.45C36.4058 27.4654 36.4742 27.4654 36.54 27.45C36.6014 27.43 36.6589 27.3996 36.71 27.36C37.3285 26.9296 37.8897 26.4221 38.38 25.85C38.5 25.7 38.63 25.77 38.7 25.99C38.8527 26.5755 39.1521 27.1124 39.57 27.55C39.9777 28.0045 40.4937 28.3485 41.07 28.55C43.24 29.28 45.49 28.22 47.19 26.38C47.8699 25.6101 48.5012 24.7985 49.08 23.95C50.157 22.4707 51.4095 21.1276 52.81 19.95C53.42 19.49 54.13 19.14 54.49 19.37C54.85 19.6 54.87 19.99 54.41 20.83C52.73 23.89 50.27 27.49 49.8 28.34C49.72 28.49 49.8 28.61 49.95 28.61H52.5C52.5487 28.626 52.6013 28.626 52.65 28.61C52.699 28.5834 52.7377 28.5411 52.76 28.49C54.05 26.49 55.27 24.56 56.57 22.58C56.64 22.47 56.71 22.58 56.71 22.58C56.7256 23.1055 56.8662 23.6196 57.12 24.08C57.3281 24.4222 57.6222 24.7039 57.9732 24.8969C58.3241 25.09 58.7196 25.1876 59.12 25.18C59.6615 25.1687 60.194 25.039 60.68 24.8C61.1473 24.6291 61.5882 24.3934 61.99 24.1C62.19 23.97 62.22 24.19 62.21 24.23C61.92 25.83 62.29 27.72 63.88 28.51C65.79 29.45 67.88 28.13 69.09 26.94C69.2 26.82 69.33 26.83 69.34 27.08C69.4007 27.5831 69.6339 28.0496 70 28.4C71 29.4 73 29.01 75.1 27.4C76.5509 26.2162 77.8657 24.8746 79.02 23.4C79.0233 23.3768 79.0233 23.3532 79.02 23.33C79.0243 23.3069 79.0243 23.2831 79.02 23.26V23.2C78.84 23.01 78.56 22.78 78.38 22.61C78.3361 22.5787 78.2839 22.5613 78.23 22.56C78.1792 22.5614 78.1302 22.5789 78.09 22.61C76.832 23.9702 75.464 25.2245 74 26.36C73.44 26.73 72.55 27.06 72.15 26.52C72.0697 26.3874 72.0281 26.235 72.03 26.08C72.0306 25.9253 72.072 25.7736 72.15 25.64C72.63 24.44 80.27 12.84 80.67 12.16C80.73 12.07 80.66 11.98 80.5 11.98ZM70.58 21.98C70.58 22.06 70.71 22.15 70.82 22.19C70.93 22.23 70.88 22.19 70.82 22.33C70.5377 22.922 70.203 23.4876 69.82 24.02C69.4588 24.5578 69.017 25.0367 68.51 25.44C67.74 26.07 66.67 26.76 65.79 26.3C65.5997 26.1647 65.448 25.982 65.35 25.77C65.2507 25.5614 65.2093 25.33 65.23 25.1C65.3247 23.6914 65.892 22.3561 66.84 21.31C68.09 19.78 69.48 18.98 70.39 19.41C71.3 19.84 71 20.9 70.58 21.8C70.5667 21.8281 70.5597 21.8589 70.5597 21.89C70.5597 21.9211 70.5667 21.9519 70.58 21.98Z" fill="#3C3C41"/>
<path d="M50 0C22.39 0 0 8 0 17.8C0 27.6 22.39 35.6 50 35.6C77.61 35.6 100 27.6 100 17.8C100 8 77.61 0 50 0ZM50 34.12C23.35 34.12 1.77 26.8 1.77 17.8C1.77 8.8 23.37 1.48 50 1.48C76.63 1.48 98.23 8.8 98.23 17.8C98.23 26.8 76.63 34.12 50 34.12Z" fill="#3C3C41"/>
<path d="M39.26 15.66C40.54 15.5 42.44 15.32 43.65 15.25C43.92 15.25 43.97 15.25 44.08 15.37C44.4062 15.7554 44.8034 16.0745 45.25 16.31C45.3727 16.3993 45.5185 16.4514 45.67 16.46C45.7455 16.4786 45.8245 16.4786 45.9 16.46C45.9702 16.4281 46.0318 16.3802 46.08 16.32C46.1407 16.2641 46.1826 16.1907 46.2 16.11C46.2295 16.0362 46.2295 15.9538 46.2 15.88C46.13 15.75 45.29 15.28 45.26 15.09C45.2514 15.0606 45.2514 15.0294 45.26 15C45.2726 14.9945 45.2862 14.9917 45.3 14.9917C45.3138 14.9917 45.3274 14.9945 45.34 15C45.7017 14.8859 46.0359 14.6981 46.3216 14.4486C46.6073 14.199 46.8383 13.8931 47 13.55C47.2297 13.2055 47.3305 12.791 47.2848 12.3795C47.239 11.9679 47.0497 11.5857 46.75 11.3C46.3979 11.064 45.9735 10.9606 45.5523 11.0082C45.1311 11.0558 44.7405 11.2514 44.45 11.56C44.1206 11.8636 43.8671 12.2404 43.71 12.66C43.5586 13.0825 43.5106 13.5351 43.57 13.98C43.57 14.12 43.57 14.17 43.39 14.18C42.26 14.27 41.19 14.3 40 14.37C39.92 14.37 39.89 14.37 39.94 14.26C41.3839 11.9178 43.3309 9.92629 45.64 8.43C45.79 8.32 45.75 8.1 45.74 7.92C49.89 8.81 53.85 10.48 58.13 10.44C59.8988 10.4915 61.6512 10.0887 63.22 9.27C64.64 8.5 65.22 7.77 65.22 7.04C65.2546 6.92931 65.2546 6.8107 65.22 6.7C65.1871 6.59179 65.1248 6.49484 65.04 6.42C64.9522 6.34856 64.8498 6.29735 64.74 6.27C64.6321 6.23968 64.5179 6.23968 64.41 6.27C60.2172 7.17584 55.8971 7.33158 51.65 6.73C46.03 6.07 40.65 4.57 35.02 5.04C30.33 5.41 25.86 8.04 25.85 12.04C25.8278 12.5255 25.9083 13.0103 26.0865 13.4625C26.2647 13.9147 26.5364 14.3242 26.8838 14.6641C27.2313 15.004 27.6466 15.2666 28.1026 15.4348C28.5587 15.603 29.0451 15.6729 29.53 15.64C32.17 15.55 34.33 13.45 35.46 10.79C35.9 9.79 35.09 9.37 34.71 9.95C34.048 10.9584 33.13 11.7728 32.05 12.31C30.81 12.91 29.48 12.75 29.05 11.74C28.49 10.33 29.66 8.21 32.34 7.21C36.21 5.78 40.26 6.73 44.16 7.46C44.16 7.46 44.42 7.57 44.24 7.67C43.3502 8.09158 42.5225 8.63331 41.78 9.28C40.8824 10.0471 40.0526 10.8902 39.3 11.8C38.54 12.74 37.98 13.57 37.3 14.5C37.2779 14.537 37.247 14.5679 37.21 14.59H37.08C35.2818 14.7321 33.5419 15.2938 32 16.23C31.9217 16.2731 31.8529 16.3317 31.7979 16.4021C31.7429 16.4726 31.7028 16.5535 31.68 16.64C31.631 16.8135 31.6488 16.999 31.73 17.16C31.7841 17.2207 31.8484 17.2714 31.92 17.31C31.9895 17.3525 32.0686 17.3766 32.15 17.38C32.2288 17.3999 32.3112 17.3999 32.39 17.38C32.4665 17.3574 32.5379 17.32 32.6 17.27C33.5032 16.568 34.6066 16.1722 35.75 16.14C35.75 16.14 35.83 16.14 35.84 16.14C34.7685 17.6814 33.61 19.1605 32.37 20.57C31.7063 21.353 30.9985 22.0976 30.25 22.8C27.25 25.55 24.09 25.5 22.95 23.8C22.6503 23.3628 22.4805 22.8497 22.46 22.32C22.4305 21.7916 22.5482 21.2655 22.8 20.8C23.4073 19.7605 24.3132 18.9278 25.4 18.41C25.486 18.3614 25.5589 18.2927 25.6124 18.2097C25.666 18.1267 25.6986 18.032 25.7074 17.9336C25.7163 17.8353 25.7011 17.7362 25.6632 17.645C25.6254 17.5538 25.5659 17.4732 25.49 17.41C25.332 17.2873 25.1479 17.2027 24.9519 17.1628C24.7559 17.123 24.5534 17.1288 24.36 17.18C22.9725 17.5127 21.7387 18.3059 20.86 19.43C19.8907 20.6693 19.4359 22.2342 19.59 23.8C19.7271 25.1743 20.3932 26.4414 21.4476 27.3334C22.502 28.2255 23.862 28.6725 25.24 28.58C27.5 28.58 29.65 27.87 32.24 25.28C34.63 22.85 36.81 19.22 38.86 15.88C38.91 15.8 39 15.7 39.26 15.66ZM44.8 12.8C44.9047 12.5389 45.0691 12.3061 45.28 12.12C45.3756 12.0131 45.5074 11.9454 45.65 11.93C45.7943 11.9126 45.94 11.9481 46.06 12.03C46.29 12.22 46.18 12.71 45.95 13.03C45.6978 13.4032 45.3168 13.6702 44.88 13.78C44.8 13.78 44.73 13.78 44.7 13.59C44.6722 13.3225 44.7064 13.0521 44.8 12.8Z" fill="#3C3C41"/>
</svg>
