<svg width="53" height="16" viewBox="0 0 53 16" fill="none" xmlns="http://www.w3.org/2000/svg">
<path d="M46.636 4.18555C45.6686 3.31771 44.7836 3.03139 43.8375 3.03139C42.8914 3.03139 41.7079 3.35524 41.7079 4.55966C41.7079 5.56906 42.612 5.91105 44.0538 6.36501C46.1181 7.03179 48.7843 7.89327 48.7843 10.9253C48.7843 14.4301 45.967 16 42.9566 16C40.7841 16 38.5897 15.205 37.2571 13.8065L39.5119 11.4925C40.41 12.4596 41.7512 12.968 42.9566 12.968C44.0738 12.968 45.0638 12.5363 45.0638 11.3118C45.0638 10.1504 43.9014 9.76192 41.902 9.11423C39.9681 8.49134 38.0107 7.52584 38.0107 4.77503C38.0107 1.39752 41.0641 0 43.9017 0C45.6234 0 47.5585 0.646108 48.8918 1.86961L46.636 4.18555ZM10.6454 9.67794H6.81875L8.7523 4.4515L10.6454 9.67794ZM16.9239 15.6122L10.6963 0.385883H7.03316L0.578125 15.6122H4.64628L5.76258 12.6234H11.6577L12.8399 15.6122H16.9239ZM29.9896 0.385883H25.9259L22.3991 11.3891L18.8088 0.385883H14.6799L20.4427 15.6125H24.1205L29.9896 0.385883ZM31.4628 15.6122H35.1613V0.385883H31.4628V15.6122ZM50.3975 1.6816C50.3975 2.40247 50.98 2.96618 51.6961 2.96618C52.4204 2.96618 53.0035 2.40247 53.0035 1.6816C53.0035 0.961368 52.4207 0.385883 51.6961 0.385883C50.9796 0.385883 50.3975 0.961368 50.3975 1.6816ZM50.6033 1.6816C50.6033 1.07526 51.0938 0.585028 51.6957 0.585028C52.3046 0.585028 52.7977 1.07526 52.7977 1.6816C52.7977 2.28126 52.3046 2.77944 51.6957 2.77944C51.0942 2.77912 50.6033 2.28126 50.6033 1.6816ZM51.1918 2.40756H51.4552V1.79644H51.6474L51.9859 2.40756H52.3049L51.9111 1.76717C52.1176 1.72136 52.2489 1.58393 52.2489 1.37206C52.2489 1.05808 51.9789 0.943553 51.6989 0.943553H51.1918V2.40756ZM51.4552 1.58393V1.16719H51.6932C51.8309 1.16719 51.9859 1.20664 51.9859 1.36666C51.9859 1.54353 51.8144 1.58362 51.6607 1.58362H51.4552V1.58393Z" fill="#BEBEC3"/>
</svg>
