<svg width="24" height="24" viewBox="0 0 24 24" fill="none" xmlns="http://www.w3.org/2000/svg">
<g transform="translate(6, 6)">
<path fill-rule="evenodd" clip-rule="evenodd" d="M9.08971e-07 1C9.08971e-07 0.447715 0.447716 0 1 0H11C11.5523 0 12 0.447715 12 1V11C12 11.5523 11.5523 12 11 12C10.4477 12 10 11.5523 10 11V3.41421L1.70711 11.7071C1.31658 12.0976 0.683418 12.0976 0.292893 11.7071C-0.0976309 11.3166 -0.0976312 10.6834 0.292893 10.2929L8.58578 2H1C0.447716 2 9.08971e-07 1.55228 9.08971e-07 1Z" fill="#F0FF98"/>
</g>
</svg>
