<svg width="62" height="80" viewBox="0 0 62 80" fill="none" xmlns="http://www.w3.org/2000/svg">
<path d="M30.73 0C20.07 0 12.51 1.31 0 4.17L3.39 49C4.01 61.78 16.06 72.43 30.73 80C45.4 72.43 57.45 61.78 58.07 49L61.46 4.21C48.95 1.31 41.39 0 30.73 0ZM1.99 14.28C15.67 10.7 23.99 10.37 30.11 10.28V25.48H19.11V26.78C18.7832 26.6959 18.4474 26.6522 18.11 26.65C18.2574 25.769 18.737 24.978 19.45 24.44C19.55 24.33 19.66 24.08 19.45 24.08C17.45 24.25 16.58 26.33 16.45 26.85C16.27 26.85 15.2 27.14 14.85 27.24C14.9001 26.5783 15.0944 25.9356 15.4191 25.3569C15.7439 24.7782 16.1913 24.2775 16.73 23.89C16.94 23.75 17.01 23.54 16.73 23.54C14.35 23.59 13.04 27.19 12.91 27.78C12.2709 28.0461 11.6467 28.3465 11.04 28.68C10.87 25.91 13.18 24.02 13.31 23.88C13.44 23.74 13.56 23.5 13.25 23.57C10.25 23.98 9.41 28.78 9.36 29.36C9.31 29.94 8.8 29.69 8.69 29.63C8.54296 29.5554 8.37976 29.5183 8.21491 29.522C8.05007 29.5257 7.8887 29.5701 7.74517 29.6513C7.60164 29.7324 7.48041 29.8478 7.39227 29.9872C7.30414 30.1265 7.25183 30.2855 7.24 30.45C7.23036 30.5297 7.23036 30.6103 7.24 30.69C7.05894 30.7644 6.90368 30.8902 6.79347 31.052C6.68326 31.2137 6.62294 31.4043 6.62 31.6C6.61968 31.8568 6.71814 32.1038 6.895 32.29C7.07185 32.4762 7.31354 32.5872 7.57 32.6C7.77653 32.6064 7.97859 32.539 8.14 32.41C8.23121 32.5111 8.34213 32.5926 8.46594 32.6493C8.58975 32.7061 8.72384 32.7369 8.86 32.74C9.39 32.74 10.01 32.33 10.04 31.26C13.55 28.96 16.1 28.33 17.62 28.34C18.62 28.34 18.91 28.54 19.11 28.72V33.3C18.1718 33.8065 17.3373 34.485 16.65 35.3C16.3175 35.2659 15.9825 35.2659 15.65 35.3C15.8145 34.5011 16.1562 33.7493 16.65 33.1C16.73 33.03 16.81 32.84 16.65 32.84C15.19 32.97 14.42 35.22 14.31 35.61C14.18 35.61 13.53 35.75 13.31 35.82C13.35 34.8329 13.7358 33.8913 14.4 33.16C14.56 33.05 14.61 32.9 14.4 32.9C12.62 32.9 11.87 36.29 11.77 36.73C11.3652 36.9413 10.9744 37.1785 10.6 37.44C10.5239 36.0994 10.8476 34.7664 11.53 33.61C11.64 33.51 11.71 33.33 11.53 33.38C9.37 33.99 9.43 38.02 9.39 38.45C9.35 38.88 9.05 38.66 8.96 38.62C8.84723 38.5556 8.71985 38.5212 8.59 38.52C8.39904 38.52 8.21591 38.5959 8.08088 38.7309C7.94586 38.8659 7.87 39.049 7.87 39.24C7.86049 39.2963 7.86049 39.3537 7.87 39.41C7.73433 39.4687 7.61812 39.5647 7.53491 39.6868C7.4517 39.809 7.40491 39.9523 7.4 40.1C7.4 40.291 7.47586 40.4741 7.61088 40.6091C7.74591 40.7441 7.92904 40.82 8.12 40.82C8.2717 40.8215 8.41953 40.7722 8.54 40.68C8.60831 40.7554 8.69164 40.8158 8.78463 40.8571C8.87762 40.8984 8.97823 40.9198 9.08 40.92C9.48 40.92 9.94 40.62 9.97 39.81C11.5737 37.9548 13.7999 36.7492 16.23 36.42C17.3055 36.3039 18.3835 36.6165 19.23 37.29V42.49H4.23L1.99 14.28ZM19.15 36.11C18.9064 35.7913 18.6125 35.5144 18.28 35.29C18.4954 34.7809 18.7889 34.3085 19.15 33.89V36.11ZM7.99 59.41C6.38822 56.8126 5.30492 53.9295 4.8 50.92H21.15C22.1551 52.3924 23.4947 53.6059 25.059 54.4611C26.6233 55.3162 28.3679 55.7888 30.15 55.84V59.43L7.99 59.41ZM15.36 68.13H30.11V78.2C24.7988 75.4612 19.8449 72.0791 15.36 68.13ZM20.36 44.32V26.72H41.06V44.32C41.06 47.065 39.9696 49.6976 38.0286 51.6386C36.0876 53.5796 33.455 54.67 30.71 54.67C27.965 54.67 25.3324 53.5796 23.3914 51.6386C21.4504 49.6976 20.36 47.065 20.36 44.32ZM56.73 50.81C54.82 63 42.16 72.51 31.35 78.22V55.82C32.9974 55.754 34.6125 55.3417 36.09 54.61V54.92C35.8784 55.4737 35.7568 56.0578 35.73 56.65C35.6918 56.8138 35.5907 56.9561 35.4485 57.0459C35.3062 57.1357 35.1343 57.1659 34.97 57.13C34.841 57.05 34.6918 57.0084 34.54 57.01C34.3136 57.01 34.0964 57.0992 33.9354 57.2583C33.7744 57.4175 33.6826 57.6337 33.68 57.86C33.6705 57.9297 33.6705 58.0003 33.68 58.07C33.5366 58.1273 33.4155 58.2293 33.3345 58.3607C33.2534 58.4921 33.2168 58.6462 33.23 58.8C33.2218 58.9078 33.2358 59.0162 33.2712 59.1184C33.3065 59.2206 33.3625 59.3145 33.4356 59.3942C33.5088 59.4739 33.5975 59.5377 33.6963 59.5817C33.7951 59.6257 33.9019 59.6489 34.01 59.65C34.2 59.65 34.33 59.65 34.47 59.57C34.5519 59.6579 34.651 59.7281 34.761 59.7762C34.8711 59.8244 34.9899 59.8495 35.11 59.85C35.58 59.85 35.82 59.73 35.86 58.77C39 57.1 43.79 55.83 45.86 55.94C48.26 56.07 50 58.48 50.18 58.63C50.36 58.78 50.52 58.79 50.49 58.54C50.3992 57.7278 50.0964 56.9538 49.6119 56.2956C49.1275 55.6374 48.4785 55.1182 47.73 54.79C47.88 54.14 49.02 54.02 49.23 53.92C49.44 53.82 49.45 53.64 49.23 53.64C48.7206 53.5503 48.1976 53.5737 47.6982 53.7085C47.1988 53.8433 46.7351 54.0862 46.34 54.42C45.815 54.3305 45.2823 54.2936 44.75 54.31C44.9459 53.5084 45.4165 52.8007 46.08 52.31C45.98 52.4 46.27 52.07 46.08 52.07C45.4269 52.1891 44.8149 52.473 44.3022 52.8947C43.7895 53.3165 43.3929 53.8621 43.15 54.48C43 54.48 41.15 54.82 40.81 54.91C41.1 53.09 43.16 51.85 43.35 51.73C43.54 51.61 43.59 51.42 43.35 51.42C40.75 51.5 38.85 54.86 38.75 55.57C38.2975 55.7257 37.8564 55.9128 37.43 56.13C37.26 55.3542 37.3442 54.5443 37.67 53.82L37.84 53.46C39.1476 52.4659 40.2243 51.2002 40.996 49.7501C41.7676 48.3 42.2159 46.6999 42.31 45.06V43.6L57.23 43.55L56.73 50.81ZM57.32 42.4H42.32V33.9H57.95L57.32 42.4ZM58.62 25.58H42.31V25.21H31.31V16.56L59.2 16.72L58.62 25.58ZM30.73 9C23.63 9 15.52 9.54 1.88 12.95L1.31 5.29C10.9225 2.79063 20.7991 1.4478 30.73 1.29C40.6609 1.4478 50.5375 2.79063 60.15 5.29L59.58 12.95C45.94 9.5 37.83 9 30.73 9Z" fill="#3C3C41"/>
<path d="M44.94 61.87C45.06 61.35 45.86 61.1 46.03 61.02C46.2 60.94 46.2 60.8 46.03 60.8C45.6039 60.7359 45.1689 60.7643 44.7548 60.8834C44.3406 61.0025 43.957 61.2094 43.63 61.49C43.2137 61.4213 42.7916 61.3945 42.37 61.41C42.51 60.77 43.53 60.19 44.09 59.73C44.01 59.8 44.23 59.53 44.09 59.53C43.4763 59.5972 42.8886 59.8149 42.3792 60.1638C41.8698 60.5127 41.4545 60.982 41.17 61.53C41.05 61.53 39.82 61.8 39.57 61.87C39.79 60.42 41.57 59.46 41.75 59.37C41.93 59.28 41.95 59.12 41.75 59.12C39.67 59.19 37.96 61.76 37.88 62.33C37.4396 62.4764 37.0088 62.65 36.59 62.85C36.43 61.1 38.4 59.53 38.23 59.69C38.33 59.6 38.41 59.42 38.23 59.47C36.13 59.77 35.23 62.83 35.23 63.24C35.23 63.65 34.71 63.66 34.63 63.62C34.5265 63.5512 34.4042 63.5163 34.28 63.52C34.1005 63.5226 33.929 63.5951 33.802 63.722C33.6751 63.849 33.6026 64.0205 33.6 64.2C33.5897 64.2562 33.5897 64.3138 33.6 64.37C33.4837 64.4153 33.3854 64.4976 33.3204 64.6042C33.2553 64.7108 33.2271 64.8358 33.24 64.96C33.2346 65.0457 33.2465 65.1316 33.275 65.2126C33.3035 65.2936 33.3479 65.368 33.4058 65.4315C33.4636 65.4949 33.5337 65.5461 33.6117 65.5819C33.6897 65.6177 33.7742 65.6375 33.86 65.64C33.9877 65.6609 34.1187 65.6361 34.23 65.57C34.2958 65.6426 34.376 65.7006 34.4656 65.7402C34.5552 65.7798 34.6521 65.8002 34.75 65.8C35.12 65.8 35.31 65.7 35.34 64.93C37.785 63.6562 40.4765 62.9262 43.23 62.79C44.5391 62.9303 45.7673 63.4918 46.73 64.39C46.87 64.52 47 64.52 46.97 64.32C46.847 63.7812 46.5993 63.2789 46.2467 62.8533C45.8941 62.4278 45.4465 62.091 44.94 61.87Z" fill="#3C3C41"/>
<path d="M40.8 67.82C40.8376 67.687 40.9023 67.5633 40.9901 67.4566C41.0778 67.3499 41.1868 67.2625 41.31 67.2C41.4 67.2 41.43 67.05 41.31 67.05C41.0454 67.0085 40.7745 67.0396 40.5262 67.14C40.2779 67.2404 40.0615 67.4063 39.9 67.62C39.6707 67.5949 39.4393 67.5949 39.21 67.62C39.4193 67.1149 39.7656 66.6785 40.21 66.36C40.16 66.36 40.31 66.22 40.21 66.22C39.21 66.22 38.14 67.58 38.07 67.84C37.7786 67.8979 37.4914 67.9747 37.21 68.07C37.298 67.428 37.597 66.8334 38.06 66.38C38.17 66.31 38.2 66.21 38.06 66.21C36.64 66.26 36.16 68.05 36.11 68.44C35.8679 68.5267 35.6309 68.6268 35.4 68.74C35.3127 67.9707 35.5082 67.1958 35.95 66.56C36.02 66.5 36.07 66.38 35.95 66.41C34.65 66.64 34.51 68.79 34.48 69.06C34.4719 69.1049 34.4545 69.1476 34.4291 69.1855C34.4036 69.2233 34.3705 69.2555 34.332 69.2799C34.2935 69.3043 34.2503 69.3205 34.2052 69.3274C34.1601 69.3343 34.1141 69.3318 34.07 69.32C33.9966 69.2794 33.9139 69.2587 33.83 69.26C33.7088 69.2626 33.5933 69.3118 33.5076 69.3976C33.4218 69.4833 33.3726 69.5988 33.37 69.72C33.3594 69.7593 33.3594 69.8007 33.37 69.84C33.2913 69.8716 33.2247 69.9273 33.1798 69.9992C33.1348 70.0711 33.1139 70.1554 33.12 70.24C33.1159 70.2989 33.1239 70.3581 33.1437 70.4138C33.1635 70.4695 33.1945 70.5205 33.2348 70.5636C33.2752 70.6068 33.324 70.6412 33.3782 70.6646C33.4324 70.6881 33.4909 70.7001 33.55 70.7C33.65 70.7 33.72 70.7 33.8 70.7C33.8454 70.7471 33.8997 70.7846 33.9598 70.8104C34.0199 70.8362 34.0846 70.8496 34.15 70.85C34.41 70.85 34.66 70.75 34.67 70.22C36.2353 69.2472 38.0199 68.6833 39.86 68.58C40.686 68.62 41.4852 68.8864 42.17 69.35C42.27 69.44 42.36 69.44 42.34 69.35C42.22 68.72 41.79 68.3 40.8 67.82Z" fill="#3C3C41"/>
<path d="M38.22 42.93C38.65 43.13 39.61 43.09 39.73 42.82C39.8215 42.5168 39.8215 42.1932 39.73 41.89C40 41.66 40.19 41.16 40.04 40.89C39.9514 40.7693 39.891 40.6303 39.8633 40.4832C39.8357 40.3361 39.8413 40.1846 39.88 40.04C39.61 40.04 39.32 39.77 39.51 39.59C39.6801 39.4683 39.81 39.2986 39.8831 39.1026C39.9561 38.9067 39.969 38.6933 39.92 38.49C39.98 38.16 40 37.76 39.44 37.78C39.44 37.57 39.24 36.87 38.37 37.51C38.24 37.6 38.09 37.39 38.28 37.33C38.47 37.27 39.48 36.95 39.63 36.6C39.6818 36.4977 39.7088 36.3847 39.7088 36.27C39.7088 36.1553 39.6818 36.0423 39.63 35.94C39.7274 35.7668 39.756 35.5633 39.71 35.37C39.63 35.25 39.32 35.27 39.11 35.79C38.9 36.31 38.95 36.31 38.39 36.41C37.83 36.51 37.39 36.41 37.04 37.03C36.9375 37.2255 36.7859 37.391 36.6 37.51C36.4815 37.5733 36.3782 37.6615 36.2971 37.7685C36.2159 37.8755 36.1589 37.9988 36.13 38.13C36.13 38.34 36.29 38.72 36.25 38.99C36.1798 39.2589 36.1918 39.5427 36.2845 39.8048C36.3772 40.0668 36.5463 40.2951 36.77 40.46C37.12 40.85 37.64 41.35 37.25 41.74C36.86 42.13 36.52 41.74 36.25 41.52C35.6777 41.2268 35.0431 41.0758 34.4 41.08C33.3059 41.0202 32.238 40.7234 31.27 40.21C30.79 39.81 31.08 39.6 31.33 39.48C31.4978 39.4179 31.6343 39.2921 31.71 39.13C31.7488 39.0517 31.8111 38.9874 31.8882 38.9462C31.9653 38.905 32.0533 38.8888 32.14 38.9C32.31 38.9 32.49 38.9 32.64 38.49C32.79 38.08 32.95 38.26 33.12 38.22C33.172 38.1992 33.2165 38.1633 33.2479 38.117C33.2793 38.0707 33.2961 38.016 33.2961 37.96C33.2961 37.904 33.2793 37.8493 33.2479 37.803C33.2165 37.7566 33.172 37.7208 33.12 37.7C32.81 37.59 32.64 37.47 32.66 37.35C32.7036 37.2451 32.7751 37.1542 32.8668 37.0872C32.9585 37.0202 33.0668 36.9796 33.18 36.97C33.47 36.97 33.49 36.76 33.47 36.6C33.451 36.5284 33.4601 36.4523 33.4954 36.3872C33.5308 36.3222 33.5896 36.2731 33.66 36.25C33.86 36.16 33.84 35.93 33.51 35.83C33.18 35.73 32.73 35.66 32.73 35.5C32.7556 35.3895 32.8071 35.2865 32.8801 35.1996C32.953 35.1128 33.0455 35.0443 33.15 35C33.37 34.92 33.46 34.59 32.98 34.61C32.5 34.63 32.23 34.69 32.13 34.38C32.03 34.07 32.01 33.9 32.52 33.71C32.73 33.65 32.79 33.36 32.4 33.38C32.01 33.4 31.57 33.59 31.4 33.46C31.23 33.33 31.3 33.2 31.4 33.15C31.4241 33.1314 31.4414 33.1054 31.4494 33.0761C31.4574 33.0467 31.4556 33.0155 31.4443 32.9873C31.433 32.959 31.4128 32.9352 31.3868 32.9195C31.3607 32.9037 31.3303 32.8969 31.3 32.9C31.2 32.9 30.97 32.97 30.74 33.01C30.51 33.05 30.26 33.08 30.16 33.01C30.0747 32.8983 29.9529 32.8201 29.8158 32.789C29.6787 32.758 29.5351 32.776 29.41 32.84C29.3605 32.8585 29.3163 32.889 29.2815 32.9288C29.2467 32.9685 29.2222 33.0163 29.2103 33.0678C29.1984 33.1193 29.1995 33.1729 29.2134 33.2239C29.2273 33.2749 29.2536 33.3217 29.29 33.36C29.3038 33.3725 29.315 33.3875 29.3229 33.4043C29.3309 33.4212 29.3355 33.4394 29.3364 33.4579C29.3374 33.4765 29.3346 33.4951 29.3284 33.5126C29.3221 33.5301 29.3125 33.5462 29.3 33.56C29.2875 33.5738 29.2725 33.585 29.2557 33.5929C29.2388 33.6009 29.2206 33.6055 29.2021 33.6064C29.1835 33.6073 29.1649 33.6046 29.1474 33.5984C29.1299 33.5921 29.1138 33.5825 29.1 33.57C29.0535 33.5396 29.0184 33.4947 29.0003 33.4421C28.9822 33.3896 28.9821 33.3326 29 33.28C28.9596 33.1458 28.8704 33.0316 28.75 32.96C28.62 32.88 28.62 32.67 28.66 32.53C28.7 32.39 28.54 32.26 28.31 32.4C28.1747 32.4538 28.0652 32.5574 28.0038 32.6894C27.9424 32.8214 27.9339 32.9719 27.98 33.11C27.73 33.11 27.09 33.28 27.07 33.48C27.05 33.68 27.15 33.88 27.07 33.96C26.99 34.04 26.82 34.04 26.7 34.11C26.38 34.44 25.82 34.75 25.7 34.89C25.58 35.03 25.47 35.16 25.3 35.37C25.2271 35.4325 25.1762 35.5167 25.1546 35.6103C25.133 35.7038 25.1419 35.8019 25.18 35.89C25.39 36.2 25.57 35.99 25.68 36.16C25.79 36.33 25.8 36.37 25.78 36.47C25.76 36.57 25.99 36.78 26.34 36.47C26.69 36.16 26.94 35.87 27.21 36.2C27.48 36.53 27.21 36.72 27.11 36.93C27.01 37.14 26.34 37.93 26.11 38.09C25.8175 38.4214 25.6296 38.832 25.57 39.27C25.539 39.5202 25.4306 39.7544 25.26 39.94C24.807 39.7974 24.3761 39.5921 23.98 39.33C23.9256 39.2666 23.858 39.2157 23.7821 39.1808C23.7062 39.1459 23.6236 39.1279 23.54 39.1279C23.4564 39.1279 23.3738 39.1459 23.2979 39.1808C23.222 39.2157 23.1544 39.2666 23.1 39.33C22.7231 39.8031 22.3885 40.3084 22.1 40.84C21.93 41.24 21.66 41.09 21.66 41.84C21.66 42.11 21.45 42.23 21.33 42.65C21.33 42.77 21 43.48 21.33 43.65C21.4621 43.706 21.6097 43.7136 21.7469 43.6716C21.884 43.6295 22.002 43.5404 22.08 43.42C22.1501 43.091 22.1902 42.7563 22.2 42.42C22.3 42.13 22.6 41.79 22.64 41.61C22.68 41.43 22.64 41.3 22.74 41.13C22.9112 40.9099 23.0984 40.7027 23.3 40.51C23.3536 40.4567 23.4199 40.4182 23.4927 40.398C23.5655 40.3778 23.6423 40.3767 23.7156 40.3948C23.7889 40.4129 23.8564 40.4495 23.9114 40.5012C23.9665 40.5529 24.0073 40.6179 24.03 40.69C24.25 41.15 24.61 42.17 25.35 42.48C24.9167 42.692 24.4604 42.8531 23.99 42.96C23.63 43.04 23.34 43.1 23.49 43.96C23.6266 44.4748 23.674 45.0092 23.63 45.54C23.5581 45.7984 23.5593 46.0717 23.6335 46.3294C23.7076 46.5872 23.8518 46.8193 24.05 47L24.53 47.67C24.73 47.85 25.19 48.04 25.23 47.67C25.27 47.3 25.38 46.89 25 46.85C24.8613 46.8018 24.7412 46.7111 24.6569 46.5908C24.5725 46.4706 24.5281 46.3269 24.53 46.18C24.5637 45.8554 24.49 45.5286 24.32 45.25C24.1661 44.9766 24.1198 44.6557 24.19 44.35C24.26 44.06 24.48 43.88 24.96 43.98C25.44 44.08 27.12 44.6 27.66 43.98C28.6194 44.4713 29.6592 44.7863 30.73 44.91C30.9791 44.9398 31.2309 44.9398 31.48 44.91C31.7479 45.466 32.0838 45.9867 32.48 46.46C32.6381 46.6542 32.7176 46.9006 32.7028 47.1506C32.688 47.4005 32.5799 47.6359 32.4 47.81C31.9766 48.2228 31.4863 48.5609 30.95 48.81L30.73 48.9C30.4462 48.9685 30.1867 49.1138 29.98 49.32C29.73 49.58 29.57 49.58 29.42 49.9C29.27 50.22 28.92 50.81 29.48 50.81C30.04 50.81 30.19 50.54 30.23 50.39C30.27 50.24 30.23 49.9 30.44 49.85L30.73 49.78C31.1189 49.7105 31.472 49.5092 31.73 49.21C32.1888 48.7525 32.7738 48.4426 33.41 48.32C33.4724 48.3073 33.5315 48.2819 33.5835 48.2452C33.6356 48.2085 33.6795 48.1614 33.7124 48.1069C33.7453 48.0523 33.7665 47.9916 33.7747 47.9284C33.7829 47.8653 33.7779 47.8011 33.76 47.74C33.7258 47.5956 33.7215 47.4457 33.7473 47.2995C33.7731 47.1534 33.8284 47.014 33.91 46.89C34.5825 46.9995 35.2006 47.3261 35.67 47.82C35.7182 47.9519 35.7784 48.0791 35.85 48.2C35.71 48.44 35.44 48.65 35.34 48.88C35.2301 49.2717 35.0033 49.6205 34.69 49.88C34.3222 50.1239 33.9862 50.4128 33.69 50.74C33.462 51.0478 33.3553 51.4286 33.39 51.81C33.39 52.23 33.54 52.02 33.73 52.02C33.92 52.02 34.37 51.81 34.39 51.52C34.41 51.23 34.27 51.09 34.68 50.92C35.1973 50.6692 35.6364 50.2819 35.95 49.8C36.1757 49.2936 36.5184 48.848 36.95 48.5C37.31 48.29 37.24 47.98 37.06 47.67C36.88 47.36 36.29 46.54 36.41 46C36.53 45.46 37.16 45.13 37.35 44.3C37.529 43.8126 37.529 43.2774 37.35 42.79C37.6472 42.7236 37.9586 42.7737 38.22 42.93Z" fill="#3C3C41"/>
<path d="M7.54 24C7.63622 24.1187 7.75836 24.2138 7.89704 24.2779C8.03572 24.342 8.18725 24.3735 8.34 24.37C8.92 24.37 9.61 23.92 9.65 22.72C12.7257 20.6306 16.293 19.3794 20 19.09C21.5512 19.158 23.0387 19.7264 24.24 20.71C24.48 20.91 24.67 20.91 24.63 20.6C24.44 19.36 22.78 18.24 22.2 17.93C22.4909 17.2117 22.9546 16.5762 23.55 16.08C23.7 15.93 23.82 15.73 23.55 15.73C22.3316 15.8822 21.2219 16.5071 20.46 17.47C19.8816 17.4085 19.2984 17.4085 18.72 17.47C18.8749 16.2963 19.4679 15.2247 20.38 14.47C20.5 14.35 20.61 14.16 20.38 14.16C18.22 14.35 17.02 17.16 16.87 17.75C16.68 17.75 15.44 17.98 15.06 18.1C15.1382 17.3194 15.3734 16.5627 15.7514 15.8753C16.1295 15.1879 16.6426 14.584 17.26 14.1C17.49 13.95 17.57 13.72 17.26 13.72C14.4 13.79 13.13 17.92 13.01 18.81C12.2314 19.1406 11.4704 19.511 10.73 19.92C10.6594 18.8541 10.8387 17.7864 11.2536 16.802C11.6686 15.8176 12.3077 14.9437 13.12 14.25C13.28 14.09 13.39 13.82 13.05 13.9C9.76 14.36 8.92 20.04 8.86 20.68C8.8 21.32 8.24 21.04 8.11 20.98C7.9451 20.8777 7.754 20.8256 7.56 20.83C7.27887 20.83 7.00926 20.9417 6.81047 21.1405C6.61168 21.3393 6.5 21.6089 6.5 21.89C6.48486 21.976 6.48486 22.064 6.5 22.15C6.30258 22.2361 6.13277 22.375 6.00925 22.5515C5.88574 22.7279 5.81333 22.935 5.8 23.15C5.80264 23.432 5.91653 23.7016 6.11691 23.9001C6.31729 24.0987 6.58794 24.21 6.87 24.21C7.11137 24.2233 7.34939 24.1487 7.54 24Z" fill="#3C3C41"/>
<path d="M25.97 5.32C26.1936 4.97343 26.3181 4.57227 26.33 4.16C26.33 2.77 25.44 2.57 24.43 2.65L18.89 3L19.04 8.33L20.37 8.27V6.13L24.06 5.89C24.78 5.84 25.21 6.33 25.21 7.11V7.9L26.55 7.83V7C26.5787 6.69481 26.5418 6.38702 26.4417 6.09726C26.3417 5.80751 26.1809 5.5425 25.97 5.32ZM24.25 4.75L20.25 4.97V4.12L24.25 3.91C24.56 3.91 24.69 4.03 24.7 4.31C24.71 4.59 24.52 4.73 24.25 4.75Z" fill="#3C3C41"/>
<path d="M7.97 5L2.47 6.24L2.85 11.6L4.19 11.29L4.01 9.17L8.63 8.17C9.49 7.97 9.73 7.45 9.69 6.22C9.65 4.99 8.66 4.87 7.97 5ZM7.78 7.08L3.93 8V7.21L7.63 6.38C8.02 6.31 8.16 6.5 8.17 6.63C8.17602 6.74303 8.13922 6.85418 8.06694 6.94129C7.99466 7.0284 7.8922 7.08507 7.78 7.1V7.08Z" fill="#3C3C41"/>
<path d="M18.09 4.71C18.09 3.71 16.87 3.34 16.33 3.44L11.87 4.17C10.5 4.38 10.52 5.12 10.52 5.62L10.58 8.05C10.58 9.44 11.81 9.56 12.58 9.42L16.73 8.76C18.17 8.55 18.21 7.84 18.19 7.3L18.09 4.71ZM16.09 7.63L12.73 8.17C12.27 8.24 11.96 8.26 11.92 7.66V6.22C11.92 5.81 11.92 5.42 12.61 5.29L16.03 4.71C16.1181 4.69273 16.2089 4.6945 16.2962 4.71517C16.3836 4.73585 16.4655 4.77495 16.5366 4.82988C16.6076 4.8848 16.666 4.95426 16.708 5.03362C16.75 5.11297 16.7745 5.20039 16.78 5.29V6.87C16.7857 7.05972 16.7184 7.24439 16.5918 7.38584C16.4653 7.52729 16.2892 7.6147 16.1 7.63H16.09Z" fill="#3C3C41"/>
<path d="M33.59 4.61H29.34C29.218 4.61 29.101 4.56154 29.0147 4.47527C28.9285 4.389 28.88 4.272 28.88 4.15C28.88 4.028 28.9285 3.911 29.0147 3.82473C29.101 3.73846 29.218 3.69 29.34 3.69H34.78V2.53H28.73C28.42 2.53 27.38 2.6 27.39 4.17C27.4 5.74 28.5 5.77 28.73 5.77H33C33.0613 5.76999 33.1219 5.78221 33.1784 5.80595C33.2348 5.82969 33.286 5.86447 33.3289 5.90825C33.3717 5.95203 33.4054 6.00392 33.4279 6.06089C33.4504 6.11786 33.4613 6.17876 33.46 6.24C33.4588 6.29824 33.4458 6.35562 33.4217 6.40867C33.3976 6.46172 33.363 6.50933 33.32 6.5486C33.277 6.58788 33.2265 6.61801 33.1715 6.63716C33.1164 6.6563 33.0581 6.66408 33 6.66H27.53V7.82H33.59C33.97 7.82 34.99 7.88 34.99 6.21C34.99 4.54 33.85 4.61 33.59 4.61Z" fill="#3C3C41"/>
<path d="M49.96 6.24L45.48 5.39L45.59 3.38L44.32 3.19L43.99 8.67L45.27 8.84L45.42 6.49L49.9 7.34L49.75 9.57L51.02 9.81L51.35 4.34L50.09 4.11L49.96 6.24Z" fill="#3C3C41"/>
<path d="M52.22 9.98L58.26 11.27L58.36 10.17L53.57 9.15L53.63 8.05L58.43 9.07L58.51 7.97L53.7 6.95L53.74 5.95L58.59 6.97L58.66 5.87L52.53 4.57L52.22 9.98Z" fill="#3C3C41"/>
<path d="M36.02 4.15C35.94 5.73 35.9 6.45 35.9 6.45C35.885 6.64 35.9079 6.83109 35.9673 7.01218C36.0268 7.19326 36.1215 7.36075 36.2462 7.50493C36.3708 7.64912 36.5229 7.76712 36.6935 7.8521C36.8641 7.93708 37.0498 7.98735 37.24 8L42.87 8.43L42.93 7.23L38.22 6.88C37.78 6.88 37.29 6.73 37.33 5.88V4.72C37.33 4.26 37.5 3.83 38.24 3.89L43.06 4.28L43.12 3.08L37.47 2.63C37.02 2.61 36.1 2.57 36.02 4.15Z" fill="#3C3C41"/>
<path d="M22.32 30.59C22.02 30.59 21.87 30.45 21.81 30.12H21.35C21.3464 30.3063 21.3949 30.4898 21.49 30.65C21.575 30.7879 21.6967 30.8993 21.8416 30.9718C21.9865 31.0442 22.1487 31.0748 22.31 31.06C22.4199 31.0688 22.5304 31.0557 22.6351 31.0214C22.7399 30.987 22.8367 30.9322 22.92 30.86C23.0135 30.7756 23.0877 30.6721 23.1378 30.5565C23.1878 30.4409 23.2124 30.3159 23.21 30.19C23.2242 30.0358 23.1853 29.8814 23.0999 29.7523C23.0144 29.6232 22.8875 29.5272 22.74 29.48L22.01 29.14C21.9657 29.1245 21.927 29.0963 21.8985 29.059C21.8701 29.0217 21.8532 28.9768 21.85 28.93C21.85 28.74 22.02 28.61 22.25 28.61C22.48 28.61 22.64 28.73 22.68 29.04H23.14C23.1507 28.9191 23.1348 28.7974 23.0933 28.6833C23.0519 28.5693 22.9859 28.4657 22.9001 28.3799C22.8143 28.2941 22.7107 28.2281 22.5967 28.1867C22.4826 28.1452 22.3609 28.1293 22.24 28.14C22.1269 28.1325 22.0135 28.1494 21.9075 28.1896C21.8015 28.2298 21.7054 28.2923 21.6257 28.373C21.546 28.4536 21.4846 28.5504 21.4457 28.6569C21.4067 28.7634 21.3911 28.877 21.4 28.99C21.3879 29.1385 21.4242 29.287 21.5035 29.4132C21.5829 29.5394 21.7009 29.6365 21.84 29.69L22.55 30.02C22.7 30.09 22.75 30.15 22.75 30.26C22.75 30.37 22.58 30.59 22.32 30.59Z" fill="#3C3C41"/>
<path d="M24.07 31H24.55V28.7H25.23V28.19H23.38V28.7H24.07V31Z" fill="#3C3C41"/>
<path d="M26.49 31.06C27.23 31.06 27.42 30.57 27.42 29.93V28.19H26.95V29.92C26.95 30.38 26.82 30.55 26.48 30.55C26.14 30.55 26.04 30.37 26.04 29.92V28.19H25.56V29.93C25.56 30.58 25.73 31.06 26.49 31.06Z" fill="#3C3C41"/>
<path d="M28.37 31H28.85V28.7H29.53V28.19H27.67V28.7H28.37V31Z" fill="#3C3C41"/>
<path d="M32.61 31.06C32.7514 31.0606 32.8902 31.0228 33.0118 30.9506C33.1333 30.8783 33.2329 30.7745 33.3 30.65V31H33.73V29.48H32.73V30H33.25C33.19 30.38 32.99 30.59 32.69 30.59C32.39 30.59 32.05 30.21 32.05 29.64C32.05 29.07 32.3 28.64 32.69 28.64C33.08 28.64 33.11 28.78 33.2 29.08H33.73C33.7147 28.8253 33.6026 28.5861 33.4167 28.4114C33.2308 28.2366 32.9851 28.1395 32.73 28.14C32.05 28.14 31.6 28.73 31.6 29.62C31.6 30.51 31.99 31.06 32.61 31.06Z" fill="#3C3C41"/>
<path d="M34.6 30.41H35.44L35.6 31H36.12L35.3 28.19H34.73L33.94 31H34.44L34.6 30.41ZM35.02 28.83L35.31 29.93H34.73L35.02 28.83Z" fill="#3C3C41"/>
<path d="M36.86 29.89H37.29C37.73 29.89 37.68 30.15 37.69 30.56C37.6773 30.7079 37.6909 30.8568 37.73 31H38.26C38.19 30.92 38.17 30.85 38.16 30.39C38.15 29.93 38.16 29.77 37.89 29.65C38.0055 29.5885 38.0998 29.4935 38.1605 29.3775C38.2211 29.2616 38.2454 29.13 38.23 29C38.2355 28.8811 38.2171 28.7623 38.1759 28.6507C38.1346 28.539 38.0714 28.4368 37.99 28.35C37.85 28.22 37.73 28.19 37.4 28.19H36.4V31H36.88L36.86 29.89ZM36.86 28.7H37.31C37.64 28.7 37.74 28.78 37.74 29.05C37.74 29.32 37.63 29.42 37.31 29.42H36.86V28.7Z" fill="#3C3C41"/>
<path d="M39.19 31H39.67V28.7H40.35V28.19H38.49V28.7H39.19V31Z" fill="#3C3C41"/>
<path d="M30.46 31H30.93V28.7H31.61V28.19H29.76V28.7H30.46V31Z" fill="#3C3C41"/>
</svg>
