<svg width="477" height="983" viewBox="0 0 477 983" fill="none" xmlns="http://www.w3.org/2000/svg">
<path d="M129.28 0.941406H0V80.3014H96.4L141.04 124.941L96.4 169.581H0V248.941H129.28L198.4 179.821L143.52 124.941L198.4 70.0614L129.28 0.941406Z" fill="#F0F0F5"/>
<path d="M129.28 328.301H0V407.661H96.4L141.04 452.301L96.4 496.941H0V576.301H129.28L198.4 507.181L143.52 452.301L198.4 397.421L129.28 328.301Z" fill="#F0F0F5"/>
<path d="M129.28 655.662H0V735.022H96.4L141.04 779.662L96.4 824.302H0V903.662H129.28L198.4 834.542L143.52 779.662L198.4 724.782L129.28 655.662Z" fill="#F0F0F5"/>
<path d="M476.162 149.421L407.042 80.3008H277.762V159.661H374.162L418.802 204.301L374.162 248.941H277.762V328.301H407.042L476.162 259.181L421.282 204.301L476.162 149.421Z" fill="#F0F0F5"/>
<path d="M407.042 407.662H277.762V487.022H374.162L418.802 531.662L374.162 576.302H277.762V655.662H407.042L476.162 586.542L421.282 531.662L476.162 476.782L407.042 407.662Z" fill="#F0F0F5"/>
<path d="M407.042 735.021H277.762V814.381H374.162L418.802 859.021L374.162 903.661H277.762V983.021H407.042L476.162 913.901L421.282 859.021L476.162 804.141L407.042 735.021Z" fill="#F0F0F5"/>
</svg>
