<svg width="670" height="101" viewBox="0 0 670 101" fill="none" xmlns="http://www.w3.org/2000/svg">
<path d="M80 28.6473L57.87 50.7773L80 72.9073L52.13 100.777H0V68.7773H38.87L56.87 50.7773L38.87 32.7773H0V0.777344H52.13L80 28.6473ZM173.25 60.5873C173.25 69.4673 166.06 73.2773 152.19 73.2773H112V28.2773H148.88C164.38 28.2773 169.76 32.7773 169.76 39.7773C169.76 44.6573 166.57 48.1573 162.2 50.0273C169.62 51.4673 173.25 54.9673 173.25 60.5873ZM124.5 46.2773H149.12C154.5 46.2773 157.24 45.5273 157.24 42.1573C157.24 38.1573 153.49 38.1573 148.74 38.1573H124.5V46.2773ZM160.75 59.2773C160.75 55.6573 157.44 55.0273 151.94 55.0273H124.5V63.4073H153.44C158.31 63.3973 160.75 62.2773 160.75 59.2773ZM191.38 28.2773H178.88V73.2773H223.88V63.2773H191.38V28.2773ZM291.12 50.7773C291.12 63.8973 302.37 73.2773 319.24 73.2773H346.12V63.1573H319.37C310.12 63.1573 303.62 57.7773 303.62 50.7773C303.62 43.7773 310.12 38.3973 319.37 38.3973H346.12V28.2773H319.24C302.38 28.2773 291.12 37.6573 291.12 50.7773ZM591.12 60.1573L554.88 28.2773H541.13V73.2773H553.63V42.0273L589.25 73.2773H603.63V28.2773H591.13V60.1573H591.12ZM479.88 73.2773H532.38V63.2773H492.38V55.2773H529.88V45.8973H492.38V38.1473H532.38V28.2773H479.88V73.2773ZM608.62 28.2773V38.2773H633.12V73.2773H645.62V38.2773H670V28.2773H608.62ZM266.81 28.2773L293.87 73.2773H279.75L274.75 64.5273H245.63L240.51 73.2773H226.39L254.33 28.2773H266.81ZM269.44 55.1573L260.44 39.3473L251.13 55.1573H269.44ZM409.25 28.5873V28.2773H390.5L365.5 45.2773V28.2773H353V73.2773H365.5V55.2773L391.12 73.2773H410.5V72.9673L376.75 50.0273L409.25 28.5873ZM456.88 57.8973L473 72.9673V73.2773H456.75L441.87 59.0273H426.75V73.2773H414.25V28.2773H448.25C463.37 28.2773 471.75 33.6573 471.75 43.5273C471.75 51.2773 466.5 56.2773 456.88 57.8973ZM459.38 43.3973C459.38 38.8973 455.88 38.1473 447.88 38.1473H426.76V49.2773H447.88C455.88 49.2773 459.38 47.8973 459.38 43.3973Z" fill="#05050A"/>
</svg>
