<svg width="100" height="100" viewBox="0 0 100 100" fill="none" xmlns="http://www.w3.org/2000/svg">
<path fill-rule="evenodd" clip-rule="evenodd" d="M82.7507 34.2206C80.4891 33.0611 78.1502 32.0587 75.7507 31.2206C64.3682 27.4524 52.292 26.2537 40.3907 27.7106C29.3907 29.2206 18.6007 31.8506 10.1807 39.5006C6.18073 43.2406 3.75073 48.8706 5.72073 54.2606C8.29073 60.8306 15.1507 65.2006 21.2607 67.7406C39.3207 75.0006 63.9007 74.7506 81.4107 66.3806C87.4107 63.3806 94.1207 58.3806 94.9507 51.1306C95.6607 43.3606 88.8107 37.5406 82.7507 34.2206ZM42.2607 37.3106C43.7707 34.3706 46.4607 30.9106 50.1707 30.8506C57.8475 30.8337 65.4887 31.894 72.8707 34.0006C73.3007 34.2206 73.8107 34.3106 74.0707 34.7406C74.3307 35.1706 73.8407 35.5406 73.5907 35.8506C67.6707 40.4806 60.9107 43.0506 54.0007 45.3006C50.4807 46.1606 46.9407 47.7006 43.0007 46.8506C42.5282 46.7295 42.0847 46.5149 41.6966 46.2195C41.3084 45.924 40.9834 45.5538 40.7407 45.1306C39.8007 42.4506 41.1207 39.6506 42.2607 37.3106ZM18.3507 61.3106C17.4407 62.1706 16.5507 61.0306 15.7307 60.6606C11.5607 58.0006 7.79073 53.5306 8.87073 48.2706C10.6107 41.4206 17.6707 37.7606 23.5507 35.2706C27.0853 33.8993 30.7511 32.8941 34.4907 32.2706C34.8907 32.2706 35.4007 32.2106 35.6007 32.5806L35.4907 33.0106C28.0007 41.5906 23.0007 51.5006 18.3507 61.3506V61.3106ZM56.7107 64.6006C54.9907 67.2506 52.1707 69.5406 48.7707 69.2006C41.3173 69.095 33.9141 67.9609 26.7707 65.8306C26.4432 65.7452 26.1585 65.5423 25.9707 65.2606C25.9284 65.0788 25.9378 64.8888 25.9979 64.7121C26.058 64.5354 26.1664 64.379 26.3107 64.2606C32.6207 59.1406 40.1307 56.7706 47.5607 54.2606C50.3307 53.4606 53.2707 52.6006 56.3807 53.0006C57.0321 53.0898 57.6499 53.3444 58.175 53.74C58.7002 54.1356 59.1153 54.6591 59.3807 55.2606C60.1107 58.8406 58.2507 61.7806 56.7107 64.6406V64.6006ZM91.0907 51.8006C89.3207 58.8906 81.6107 62.6606 75.4707 65.0506C72.1274 66.3191 68.647 67.1917 65.1007 67.6506C64.8807 67.6506 64.5007 67.6506 64.4507 67.3406L64.5307 66.9406C69.5038 61.1408 73.7362 54.7451 77.1307 47.9006C78.7307 44.9006 80.2107 41.8206 81.5807 38.7906C81.7495 38.5947 81.9668 38.4465 82.2107 38.3606C83.5007 38.4806 84.4107 39.4806 85.4407 40.1606C89.0007 43.0806 92.1807 47.0506 91.0907 51.8406V51.8006Z" fill="#3C3C41"/>
</svg>
