<svg width="100" height="100" viewBox="0 0 100 100" fill="none" xmlns="http://www.w3.org/2000/svg">
<path d="M49.9448 28.111L41.9459 18.0323C32.4331 18.5567 23.1061 20.8808 14.4595 24.8814C17.9491 30.3307 24.9481 33.0003 24.9481 33.0003C25.4281 28.2109 28.6976 27.0011 39.0163 27.0011L49.9448 90.2227L60.8433 27.0311C71.222 27.0311 74.5015 28.2009 74.9715 33.0303C74.9715 33.0303 81.9705 30.3507 85.46 24.9114C76.8079 20.8921 67.4694 18.5575 57.9437 18.0323L49.9448 28.111Z" fill="#3C3C41"/>
<path d="M11 18.0623C11.6288 19.6528 12.3568 21.2023 13.1797 22.7017C24.7454 17.5533 37.2858 14.9613 49.9448 15.1027C62.6052 14.9471 75.1486 17.5397 86.7099 22.7017C87.5768 21.2178 88.3224 19.6663 88.9396 18.0623C76.599 12.8877 63.3514 10.2227 49.9698 10.2227C36.5882 10.2227 23.3406 12.8877 11 18.0623Z" fill="#3C3C41"/>
</svg>
