<svg width="100" height="100" viewBox="0 0 100 100" fill="none" xmlns="http://www.w3.org/2000/svg">
<path d="M50 15.0001C43.0776 15.0001 36.3108 17.0528 30.555 20.8986C24.7993 24.7445 20.3133 30.2107 17.6642 36.6061C15.0152 43.0015 14.322 50.0388 15.6725 56.8282C17.023 63.6175 20.3564 69.8539 25.2513 74.7487C30.1461 79.6436 36.3825 82.977 43.1718 84.3275C49.9612 85.678 56.9985 84.9848 63.3939 82.3358C69.7893 79.6867 75.2555 75.2007 79.1014 69.445C82.9472 63.6892 84.9999 56.9224 84.9999 50C85.008 45.4015 84.1082 40.8466 82.3522 36.5966C80.5961 32.3465 78.0183 28.485 74.7667 25.2333C71.515 21.9817 67.6535 19.4039 63.4034 17.6478C59.1534 15.8918 54.5985 14.992 50 15.0001ZM50 18.1588C53.5342 18.1433 57.0427 18.7596 60.36 19.9788L50.42 42.3788C50.28 42.6588 50.2187 42.7988 50 42.7988C49.7812 42.7988 49.72 42.58 49.58 42.3788L39.64 19.9788C42.9573 18.7596 46.4658 18.1433 50 18.1588ZM34.74 22.2188L46.36 48.04C46.4192 48.2198 46.5385 48.3736 46.6979 48.4756C46.8573 48.5777 47.047 48.6216 47.235 48.6H52.835C53.023 48.6216 53.2127 48.5777 53.3721 48.4756C53.5315 48.3736 53.6508 48.2198 53.71 48.04L65.3387 22.2188C69.9395 24.8142 73.8426 28.4861 76.7137 32.92L60.5 65.4C60.4387 65.6188 60.2987 65.82 60.08 65.82C59.8612 65.82 59.8 65.6188 59.66 65.4L53.5787 51.54C53.5085 51.3511 53.3753 51.1922 53.2016 51.0902C53.0278 50.9882 52.8241 50.9493 52.625 50.98H47.025C46.8367 50.9567 46.6463 51 46.4865 51.1022C46.3267 51.2045 46.2077 51.3593 46.15 51.54L40.2787 65.4C40.2 65.6188 40.06 65.82 39.8587 65.82C39.6575 65.82 39.5787 65.6188 39.4387 65.4L23.3475 32.92C26.204 28.4677 30.1178 24.7914 34.74 22.2188ZM50 81.78C41.593 81.7361 33.5441 78.3711 27.6076 72.4181C21.6711 66.4652 18.3282 58.4071 18.3075 50C18.3005 46.2018 18.9823 42.4337 20.32 38.8788L38.8787 76.18C38.9546 76.4222 39.1024 76.6357 39.3024 76.7919C39.5025 76.9482 39.7453 77.04 39.9987 77.055C40.2511 77.0365 40.4923 76.9434 40.6917 76.7876C40.8911 76.6318 41.0397 76.4204 41.1187 76.18L49.6587 57.0788C49.72 56.86 49.86 56.6588 50.0787 56.6588C50.2975 56.6588 50.3587 56.86 50.4987 57.0788L59.0387 76.18C59.1146 76.4222 59.2624 76.6357 59.4624 76.7919C59.6625 76.9482 59.9053 77.04 60.1587 77.055C60.4111 77.0365 60.6522 76.9434 60.8516 76.7876C61.051 76.6318 61.1997 76.4204 61.2787 76.18L79.82 38.8788C81.1786 42.4287 81.8698 46.199 81.8587 50C81.7786 58.4174 78.3938 66.4661 72.4342 72.411C66.4746 78.3559 58.4175 81.7207 50 81.78Z" fill="#3C3C41"/>
</svg>
