<svg width="100" height="100" viewBox="0 0 100 100" fill="none" xmlns="http://www.w3.org/2000/svg">
<path d="M80.5 44.1792H77.87C77.67 44.1792 77.57 44.1792 77.49 44.3792C77.19 44.9592 73.49 50.4692 72.82 51.5192C72.7 51.6792 72.56 51.6592 72.54 51.4692C72.4537 51.0994 72.2786 50.7562 72.03 50.4692C71.7608 50.1647 71.4158 49.937 71.03 49.8092C70.3958 49.5556 69.7052 49.4762 69.03 49.5792C67.8638 49.7755 66.7663 50.264 65.84 50.9992C64.41 52.0792 63.17 53.4892 61.58 54.5192C60.71 55.0892 59.52 55.5792 58.72 54.8492C57.92 54.1192 58.08 52.6992 59.18 51.5492C59.3 51.4292 59.44 51.5492 59.42 51.6392C59.3551 51.885 59.3551 52.1434 59.42 52.3892C59.4893 52.6365 59.6281 52.8586 59.82 53.0292C60.0568 53.2398 60.3545 53.3694 60.67 53.3992C60.9832 53.4284 61.2984 53.3695 61.58 53.2292C61.9071 53.05 62.1905 52.8008 62.41 52.4992C62.6181 52.2019 62.7518 51.8589 62.8 51.4992C62.8367 51.2352 62.8202 50.9664 62.7515 50.7088C62.6828 50.4512 62.5633 50.21 62.4 49.9992C62.2222 49.7862 62.0049 49.6096 61.76 49.4792C61.5136 49.3549 61.2452 49.2802 60.97 49.2592C59.9955 49.231 59.0496 49.5907 58.34 50.2592C57.9325 50.5781 57.5781 50.9595 57.29 51.3892C57.2 51.5192 57.06 51.5292 57.07 51.3392C57.07 49.8392 56.49 48.9992 55.25 48.9692C54.2293 48.9979 53.246 49.3596 52.45 49.9992C51.5783 50.7875 50.7599 51.6327 50 52.5292C49.9 52.6392 49.81 52.6392 49.78 52.4292C49.7703 51.497 49.5001 50.586 49 49.7992C48.9138 49.6755 48.7861 49.5868 48.64 49.5492C48.4955 49.5108 48.3418 49.5287 48.21 49.5992C47.8842 49.7583 47.573 49.9457 47.28 50.1592C47.1918 50.226 47.1283 50.3202 47.0993 50.4269C47.0704 50.5337 47.0776 50.647 47.12 50.7492C47.5606 52.264 47.4688 53.8839 46.86 55.3392C46.61 55.9907 46.2263 56.5826 45.7337 57.0769C45.2412 57.5712 44.6506 57.9569 44 58.2092C43.6128 58.3705 43.183 58.3991 42.7778 58.2906C42.3727 58.1821 42.0148 57.9425 41.76 57.6092C41.01 56.6092 41.33 54.8292 42.42 53.3592C43.4029 52.1439 44.71 51.232 46.19 50.7292H46.28C46.308 50.7096 46.3291 50.6816 46.34 50.6492C46.3486 50.6198 46.3486 50.5886 46.34 50.5592C46.3489 50.5265 46.3489 50.492 46.34 50.4592C46.27 50.2292 46.15 49.9192 46.1 49.7792C45.97 49.4392 45.61 49.3992 45.17 49.4292C44.1551 49.5763 43.1776 49.9157 42.29 50.4292C40.4002 51.58 38.9633 53.3452 38.22 55.4292C38.0402 55.923 37.7837 56.3853 37.46 56.7992C36.9444 57.393 36.379 57.9417 35.77 58.4392C35.7215 58.4798 35.6895 58.5367 35.68 58.5992C35.655 58.6601 35.655 58.7284 35.68 58.7892C35.8501 59.1109 36.0733 59.4017 36.34 59.6492C36.4058 59.6646 36.4742 59.6646 36.54 59.6492C36.6014 59.6292 36.6589 59.5988 36.71 59.5592C37.3285 59.1288 37.8897 58.6214 38.38 58.0492C38.5 57.8992 38.63 57.9692 38.7 58.1892C38.8527 58.7747 39.1521 59.3116 39.57 59.7492C39.9777 60.2037 40.4937 60.5477 41.07 60.7492C43.24 61.4792 45.49 60.4192 47.19 58.5792C47.8699 57.8093 48.5012 56.9977 49.08 56.1492C50.157 54.6699 51.4095 53.3268 52.81 52.1492C53.42 51.6892 54.13 51.3392 54.49 51.5692C54.85 51.7992 54.87 52.1892 54.41 53.0292C52.73 56.0892 50.27 59.6892 49.8 60.5392C49.72 60.6892 49.8 60.8092 49.95 60.8092H52.5C52.5487 60.8252 52.6013 60.8252 52.65 60.8092C52.699 60.7826 52.7377 60.7404 52.76 60.6892C54.05 58.6892 55.27 56.7592 56.57 54.7792C56.64 54.6692 56.71 54.7792 56.71 54.7792C56.7256 55.3047 56.8662 55.8189 57.12 56.2792C57.3281 56.6215 57.6222 56.9031 57.9732 57.0962C58.3241 57.2892 58.7196 57.3868 59.12 57.3792C59.6615 57.3679 60.194 57.2382 60.68 56.9992C61.1473 56.8283 61.5882 56.5927 61.99 56.2992C62.19 56.1692 62.22 56.3892 62.21 56.4292C61.92 58.0292 62.29 59.9192 63.88 60.7092C65.79 61.6492 67.88 60.3292 69.09 59.1392C69.2 59.0192 69.33 59.0292 69.34 59.2792C69.4007 59.7823 69.6339 60.2488 70 60.5992C71 61.5992 73 61.2092 75.1 59.5992C76.5509 58.4154 77.8657 57.0738 79.02 55.5992C79.0233 55.576 79.0233 55.5524 79.02 55.5292C79.0243 55.5061 79.0243 55.4823 79.02 55.4592V55.3992C78.84 55.2092 78.56 54.9792 78.38 54.8092C78.3361 54.778 78.2839 54.7605 78.23 54.7592C78.1792 54.7606 78.1302 54.7782 78.09 54.8092C76.832 56.1694 75.464 57.4237 74 58.5592C73.44 58.9292 72.55 59.2592 72.15 58.7192C72.0697 58.5866 72.0281 58.4342 72.03 58.2792C72.0306 58.1246 72.072 57.9728 72.15 57.8392C72.63 56.6392 80.27 45.0392 80.67 44.3592C80.73 44.2692 80.66 44.1792 80.5 44.1792ZM70.58 54.1792C70.58 54.2592 70.71 54.3492 70.82 54.3892C70.93 54.4292 70.88 54.3892 70.82 54.5292C70.5377 55.1212 70.203 55.6868 69.82 56.2192C69.4588 56.757 69.017 57.2359 68.51 57.6392C67.74 58.2692 66.67 58.9592 65.79 58.4992C65.5997 58.3639 65.448 58.1812 65.35 57.9692C65.2507 57.7607 65.2093 57.5293 65.23 57.2992C65.3247 55.8907 65.892 54.5553 66.84 53.5092C68.09 51.9792 69.48 51.1792 70.39 51.6092C71.3 52.0392 71 53.0992 70.58 53.9992C70.5667 54.0273 70.5597 54.0581 70.5597 54.0892C70.5597 54.1203 70.5667 54.1511 70.58 54.1792Z" fill="#3C3C41"/>
<path d="M50 32.1992C22.39 32.1992 0 40.1992 0 49.9992C0 59.7992 22.39 67.7992 50 67.7992C77.61 67.7992 100 59.7992 100 49.9992C100 40.1992 77.61 32.1992 50 32.1992ZM50 66.3192C23.35 66.3192 1.77 58.9992 1.77 49.9992C1.77 40.9992 23.37 33.6792 50 33.6792C76.63 33.6792 98.23 40.9992 98.23 49.9992C98.23 58.9992 76.63 66.3192 50 66.3192Z" fill="#3C3C41"/>
<path d="M39.26 47.8592C40.54 47.6992 42.44 47.5192 43.65 47.4492C43.92 47.4492 43.97 47.4492 44.08 47.5692C44.4062 47.9546 44.8034 48.2737 45.25 48.5092C45.3727 48.5985 45.5185 48.6506 45.67 48.6592C45.7455 48.6779 45.8245 48.6779 45.9 48.6592C45.9702 48.6274 46.0318 48.5794 46.08 48.5192C46.1407 48.4633 46.1826 48.3899 46.2 48.3092C46.2295 48.2354 46.2295 48.1531 46.2 48.0792C46.13 47.9492 45.29 47.4792 45.26 47.2892C45.2514 47.2598 45.2514 47.2286 45.26 47.1992C45.2726 47.1937 45.2862 47.1909 45.3 47.1909C45.3138 47.1909 45.3274 47.1937 45.34 47.1992C45.7017 47.0851 46.0359 46.8973 46.3216 46.6478C46.6073 46.3983 46.8383 46.0923 47 45.7492C47.2297 45.4047 47.3305 44.9902 47.2848 44.5787C47.239 44.1672 47.0497 43.7849 46.75 43.4992C46.3979 43.2632 45.9735 43.1598 45.5523 43.2074C45.1311 43.2551 44.7405 43.4506 44.45 43.7592C44.1206 44.0629 43.8671 44.4397 43.71 44.8592C43.5586 45.2817 43.5106 45.7344 43.57 46.1792C43.57 46.3192 43.57 46.3692 43.39 46.3792C42.26 46.4692 41.19 46.4992 40 46.5692C39.92 46.5692 39.89 46.5692 39.94 46.4592C41.3839 44.117 43.3309 42.1255 45.64 40.6292C45.79 40.5192 45.75 40.2992 45.74 40.1192C49.89 41.0092 53.85 42.6792 58.13 42.6392C59.8988 42.6907 61.6512 42.2879 63.22 41.4692C64.64 40.6992 65.22 39.9692 65.22 39.2392C65.2546 39.1285 65.2546 39.0099 65.22 38.8992C65.1871 38.791 65.1248 38.6941 65.04 38.6192C64.9522 38.5478 64.8498 38.4966 64.74 38.4692C64.6321 38.4389 64.5179 38.4389 64.41 38.4692C60.2172 39.3751 55.8971 39.5308 51.65 38.9292C46.03 38.2692 40.65 36.7692 35.02 37.2392C30.33 37.6092 25.86 40.2392 25.85 44.2392C25.8278 44.7248 25.9083 45.2095 26.0865 45.6617C26.2647 46.114 26.5364 46.5234 26.8838 46.8633C27.2313 47.2032 27.6466 47.4658 28.1026 47.634C28.5587 47.8022 29.0451 47.8721 29.53 47.8392C32.17 47.7492 34.33 45.6492 35.46 42.9892C35.9 41.9892 35.09 41.5692 34.71 42.1492C34.048 43.1576 33.13 43.972 32.05 44.5092C30.81 45.1092 29.48 44.9492 29.05 43.9392C28.49 42.5292 29.66 40.4092 32.34 39.4092C36.21 37.9792 40.26 38.9292 44.16 39.6592C44.16 39.6592 44.42 39.7692 44.24 39.8692C43.3502 40.2908 42.5225 40.8325 41.78 41.4792C40.8824 42.2463 40.0526 43.0894 39.3 43.9992C38.54 44.9392 37.98 45.7692 37.3 46.6992C37.2779 46.7362 37.247 46.7671 37.21 46.7892H37.08C35.2818 46.9313 33.5419 47.493 32 48.4292C31.9217 48.4723 31.8529 48.5309 31.7979 48.6014C31.7429 48.6718 31.7028 48.7528 31.68 48.8392C31.631 49.0127 31.6488 49.1983 31.73 49.3592C31.7841 49.4199 31.8484 49.4706 31.92 49.5092C31.9895 49.5517 32.0686 49.5758 32.15 49.5792C32.2288 49.5991 32.3112 49.5991 32.39 49.5792C32.4665 49.5566 32.5379 49.5193 32.6 49.4692C33.5032 48.7673 34.6066 48.3714 35.75 48.3392C35.75 48.3392 35.83 48.3392 35.84 48.3392C34.7685 49.8807 33.61 51.3597 32.37 52.7692C31.7063 53.5522 30.9985 54.2968 30.25 54.9992C27.25 57.7492 24.09 57.6992 22.95 55.9992C22.6503 55.562 22.4805 55.0489 22.46 54.5192C22.4305 53.9909 22.5482 53.4647 22.8 52.9992C23.4073 51.9598 24.3132 51.127 25.4 50.6092C25.486 50.5606 25.5589 50.4919 25.6124 50.4089C25.666 50.3259 25.6986 50.2312 25.7074 50.1328C25.7163 50.0345 25.7011 49.9354 25.6632 49.8442C25.6254 49.753 25.5659 49.6724 25.49 49.6092C25.332 49.4865 25.1479 49.402 24.9519 49.3621C24.7559 49.3222 24.5534 49.328 24.36 49.3792C22.9725 49.7119 21.7387 50.5051 20.86 51.6292C19.8907 52.8685 19.4359 54.4335 19.59 55.9992C19.7271 57.3735 20.3932 58.6406 21.4476 59.5326C22.502 60.4247 23.862 60.8717 25.24 60.7792C27.5 60.7792 29.65 60.0692 32.24 57.4792C34.63 55.0492 36.81 51.4192 38.86 48.0792C38.91 47.9992 39 47.8992 39.26 47.8592ZM44.8 44.9992C44.9047 44.7382 45.0691 44.5053 45.28 44.3192C45.3756 44.2123 45.5074 44.1446 45.65 44.1292C45.7943 44.1118 45.94 44.1473 46.06 44.2292C46.29 44.4192 46.18 44.9092 45.95 45.2292C45.6978 45.6024 45.3168 45.8694 44.88 45.9792C44.8 45.9792 44.73 45.9792 44.7 45.7892C44.6722 45.5217 44.7064 45.2514 44.8 44.9992Z" fill="#3C3C41"/>
</svg>
