<svg width="100" height="100" viewBox="0 0 100 100" fill="none" xmlns="http://www.w3.org/2000/svg">
<path d="M50 15C43.0799 15 36.3151 17.0514 30.5605 20.8949C24.8059 24.7385 20.3198 30.2016 17.6692 36.594C15.0186 42.9863 14.3225 50.021 15.6687 56.8089C17.0149 63.5968 20.3431 69.8333 25.2327 74.7302C30.1223 79.6271 36.3538 82.9647 43.1397 84.3211C49.9256 85.6775 56.9612 84.9918 63.3575 82.3508C69.7539 79.7098 75.2237 75.2319 79.0759 69.4831C82.9281 63.7343 84.9896 56.9726 85 50.0525C85.0069 45.4518 84.1067 40.8949 82.3508 36.6425C80.595 32.39 78.018 28.5254 74.7673 25.2698C71.5165 22.0142 67.6558 19.4314 63.406 17.6692C59.1562 15.907 54.6007 15 50 15ZM49.8775 82.0075C43.5519 81.985 37.3748 80.0887 32.1262 76.558C26.8775 73.0274 22.7928 68.0207 20.3876 62.1701C17.9825 56.3196 17.3648 49.8875 18.6127 43.6862C19.8605 37.4849 22.9179 31.7923 27.3987 27.3274C31.8795 22.8624 37.5829 19.8253 43.7886 18.5994C49.9943 17.3736 56.4241 18.0141 62.2661 20.44C68.1081 22.8658 73.1003 26.9683 76.6123 32.2295C80.1243 37.4906 81.9987 43.6744 81.9987 50C82.001 54.212 81.1715 58.3831 79.5578 62.2737C77.9441 66.1644 75.5779 69.6981 72.5951 72.672C69.6123 75.6459 66.0715 78.0014 62.176 79.6035C58.2805 81.2055 54.107 82.0225 49.895 82.0075H49.8775Z" fill="#3C3C41"/>
<path d="M64.8217 61.0434C64.5942 61.6559 64.3667 62.2246 64.1567 62.7934C64.1373 62.905 64.0755 63.0047 63.9841 63.0716C63.8927 63.1385 63.7789 63.1674 63.6667 63.1521C62.9667 63.1521 62.2667 63.1521 61.5579 63.1521C61.4454 63.1422 61.3341 63.1217 61.2254 63.0909L61.4092 62.6009C63.2031 57.9639 64.1915 53.0545 64.3317 48.0846C64.3921 46.0925 64.2808 44.0989 63.9992 42.1259C63.6004 39.2286 62.7901 36.403 61.5929 33.7346C59.6604 29.5465 56.8247 25.8382 53.2892 22.8759C52.8074 22.4467 52.1844 22.21 51.5392 22.2109C48.8453 22.0845 46.1467 22.3199 43.5155 22.9109C42.7017 23.1034 41.888 23.3484 41.0742 23.5671L41.013 23.7159C41.1159 23.7624 41.2128 23.8212 41.3017 23.8909C43.1715 25.4804 44.9097 27.2186 46.4992 29.0884C48.2336 31.0872 49.7257 33.2842 50.9442 35.6334C51.0317 35.8171 51.1104 36.0096 51.1979 36.1934C50.4279 36.5871 50.323 36.5784 49.8417 36.0096L49.7104 35.8609C47.5711 33.4738 45.2386 31.2672 42.7367 29.2634C41.0115 27.8532 39.108 26.6764 37.0755 25.7634C36.9379 25.6944 36.7845 25.663 36.6309 25.6722C36.4773 25.6814 36.3288 25.731 36.2005 25.8159C33.5796 27.3025 31.2159 29.2023 29.2005 31.4421C28.938 31.7221 28.693 32.0284 28.413 32.3171L28.868 32.5884C31.5455 34.0871 34.126 35.7529 36.5942 37.5759C38.04 38.6137 39.3847 39.7855 40.6105 41.0759L40.978 41.5134C40.348 41.9596 40.3567 41.9334 39.7967 41.5746C38.9217 41.0321 38.0467 40.4721 37.1717 40.0084C34.0393 38.4295 30.7366 37.2141 27.328 36.3859L25.823 36.0184L25.6305 36.3071C23.9134 39.318 22.7767 42.6244 22.2792 46.0546C22.2663 46.1973 22.2663 46.3408 22.2792 46.4834C23.5742 46.8159 24.808 47.1046 26.033 47.4459C28.5736 48.1328 30.9977 49.1945 33.2255 50.5959C35.6242 52.0859 37.5415 54.2371 38.7467 56.7909C39.4891 58.4302 39.9732 60.1746 40.1817 61.9621C40.2342 62.3121 40.2605 62.6621 40.3042 63.0646H39.7792C39.3067 63.0646 38.8342 63.0646 38.3617 63.0646C38.0592 63.0679 37.7599 63.0021 37.4867 62.8721C36.1917 62.2946 34.8617 61.7346 33.593 61.1659C33.2424 61.0423 32.8696 60.9946 32.4992 61.0259H24.6242C24.4931 61.0184 24.3616 61.0184 24.2305 61.0259C24.25 61.1 24.2734 61.173 24.3005 61.2446C25.6059 64.1824 27.3789 66.8892 29.5505 69.2596C29.6222 69.3377 29.7106 69.3986 29.809 69.438C29.9074 69.4774 30.0134 69.4942 30.1192 69.4871H33.103C33.5612 69.4957 34.0137 69.384 34.4155 69.1634C35.3955 68.6471 36.393 68.1571 37.373 67.6409C37.6818 67.5096 38.0197 67.4613 38.353 67.5009H63.9992C64.2704 68.2184 64.5329 68.9009 64.8042 69.6009C68.0547 69.1916 71.0694 67.6889 73.3529 65.3396C71.082 62.9771 68.072 61.4613 64.8217 61.0434ZM54.7854 59.9409C54.0911 59.9513 53.4093 59.7549 52.8269 59.3767C52.2444 58.9985 51.7877 58.4556 51.5147 57.8171C51.2417 57.1785 51.1649 56.4732 51.2939 55.7908C51.423 55.1085 51.7521 54.4799 52.2394 53.9852C52.7268 53.4904 53.3503 53.1518 54.0306 53.0125C54.7109 52.8731 55.4173 52.9393 56.0599 53.2026C56.7025 53.4659 57.2523 53.9144 57.6392 54.4911C58.0262 55.0677 58.2329 55.7464 58.2329 56.4409C58.2331 57.3601 57.8715 58.2425 57.2265 58.8974C56.5814 59.5523 55.7046 59.9271 54.7854 59.9409Z" fill="#3C3C41"/>
</svg>
