<svg width="20" height="20" viewBox="0 0 20 20" fill="none" xmlns="http://www.w3.org/2000/svg">
<path fill-rule="evenodd" clip-rule="evenodd" d="M5 2C4.44772 2 4 2.44772 4 3V18H13V3C13 2.44772 12.5523 2 12 2H5ZM15 18V3C15 1.34315 13.6569 0 12 0H5C3.34315 0 2 1.34315 2 3V18H1C0.447715 18 0 18.4477 0 19C0 19.5523 0.447715 20 1 20H18C18.5523 20 19 19.5523 19 19C19 18.4477 18.5523 18 18 18H15ZM16.5343 4.11508C17.023 3.85786 17.6277 4.04553 17.8849 4.53425L18.9375 6.53425C19.0142 6.67997 19.0538 6.84236 19.0526 7.00702L19 14.507C18.9961 15.0593 18.5453 15.5039 17.993 15.5C17.4407 15.4961 16.9961 15.0453 17 14.493L17.0509 7.24379L16.1151 5.46575C15.8579 4.97702 16.0455 4.37231 16.5343 4.11508ZM6 9C6 8.44772 6.44772 8 7 8H10C10.5523 8 11 8.44772 11 9C11 9.55229 10.5523 10 10 10H7C6.44772 10 6 9.55229 6 9Z" fill="#FAFAFF"/>
</svg>
