<svg width="20" height="20" viewBox="0 0 20 20" fill="none" xmlns="http://www.w3.org/2000/svg">
<path d="M5.5 8C6.32843 8 7 7.32843 7 6.5C7 5.67157 6.32843 5 5.5 5C4.67157 5 4 5.67157 4 6.5C4 7.32843 4.67157 8 5.5 8Z" fill="#FAFAFF"/>
<path fill-rule="evenodd" clip-rule="evenodd" d="M5 0C2.23858 0 0 2.23858 0 5V15C0 17.7614 2.23858 20 5 20H15C17.7614 20 20 17.7614 20 15V5C20 2.23858 17.7614 0 15 0H5ZM2 5C2 3.34315 3.34315 2 5 2H15C16.6569 2 18 3.34315 18 5V9.88976L14.1332 6.72604C13.7215 6.38913 13.118 6.43364 12.7601 6.82733L3.16947 17.377C2.45819 16.8284 2 15.9677 2 15V5ZM13.6014 8.87504L18 12.4739V15C18 16.6569 16.6569 18 15 18H5.30601L13.6014 8.87504Z" fill="#FAFAFF"/>
</svg>
