<svg width="23" height="20" viewBox="0 0 23 20" fill="none" xmlns="http://www.w3.org/2000/svg">
<path fill-rule="evenodd" clip-rule="evenodd" d="M11.0122 2.50452C9.72527 1.11423 8.29071 -0.000173133 5.9999 2.01744e-08C2.69457 0.000226296 5.49304e-05 2.69782 9.27685e-10 5.99979C-2.63288e-05 7.69341 0.559658 9.46673 1.78227 10.6963L10.273 19.6864C10.4727 19.8979 10.7427 20.003 11.0122 19.9997C11.2817 20.003 11.5518 19.8979 11.7514 19.6864L20.2422 10.6963C21.4648 9.46673 22.0245 7.69341 22.0244 5.99979C22.0244 2.69782 19.3299 0.000226296 16.0245 2.01744e-08C13.7337 -0.000173133 12.2992 1.11423 11.0122 2.50452ZM11.0122 17.5563L3.22699 9.31321C3.22045 9.30628 3.21382 9.29946 3.20708 9.29272C2.43706 8.5227 1.99998 7.30136 2 5.99982C2.00004 3.80184 3.79973 2.00015 6.00004 2C7.7593 1.99987 8.74419 2.90467 10.24 4.65055C10.4407 4.88477 10.7262 5.00337 11.0122 4.99986C11.2983 5.00337 11.5837 4.88477 11.7844 4.65055C13.2802 2.90467 14.2651 1.99987 16.0244 2C18.2247 2.00015 20.0244 3.80184 20.0244 5.99982C20.0245 7.30136 19.5874 8.5227 18.8173 9.29272C18.8106 9.29946 18.804 9.30628 18.7974 9.31321L11.0122 17.5563Z" fill="#F0F0F5"/>
</svg>
