<svg width="22" height="19" viewBox="0 0 22 19" fill="none" xmlns="http://www.w3.org/2000/svg">
<path fill-rule="evenodd" clip-rule="evenodd" d="M8 1C8 0.447715 8.44772 0 9 0H17C17.5523 0 18 0.447715 18 1C18 1.55228 17.5523 2 17 2H14V4H19C20.6569 4 22 5.34315 22 7V16C22 17.6569 20.6569 19 19 19H14.6842C14.425 19 14.1758 18.8993 13.9894 18.7192L11.1748 16H7C5.34314 16 4 14.6569 4 13V12H2V15C2 15.5523 1.55228 16 1 16C0.447715 16 0 15.5523 0 15V7C0 6.44772 0.447715 6 1 6C1.55228 6 2 6.44772 2 7V10H4V7C4 5.34315 5.34315 4 7 4H12V2H9C8.44772 2 8 1.55228 8 1ZM6 13C6 13.5523 6.44772 14 7 14H11.5789C11.8382 14 12.0873 14.1007 12.2738 14.2808L15.0884 17H19C19.5523 17 20 16.5523 20 16V7C20 6.44772 19.5523 6 19 6H7C6.44772 6 6 6.44772 6 7V13Z" fill="#FAFAFF"/>
</svg>
