<svg width="20" height="20" viewBox="0 0 20 20" fill="none" xmlns="http://www.w3.org/2000/svg">
<path fill-rule="evenodd" clip-rule="evenodd" d="M19.724 0.310208C19.9971 0.596898 20.0754 1.01778 19.9236 1.3835L12.4499 19.3835C12.2845 19.7819 11.8823 20.0293 11.4521 19.9973C11.0219 19.9653 10.6608 19.661 10.5562 19.2426L8.57912 11.3343L0.654023 8.41196C0.259655 8.26654 -0.00168052 7.89002 8.13542e-06 7.4697C0.00169685 7.04938 0.266049 6.67497 0.661573 6.53273L18.6616 0.0590408C19.0342 -0.0749744 19.4508 0.0235175 19.724 0.310208ZM3.9222 7.48546L9.76703 9.64074C10.0773 9.75516 10.311 10.0156 10.3912 10.3364L11.7628 15.8227L17.2085 2.70707L3.9222 7.48546Z" fill="#FAFAFF"/>
</svg>
