<svg width="24" height="17" viewBox="0 0 24 17" fill="none" xmlns="http://www.w3.org/2000/svg">
<path fill-rule="evenodd" clip-rule="evenodd" d="M7.725 2C7.36379 2 7.03066 2.19479 6.85351 2.50957L4.88928 6H19.1266L17.1963 2.51543C17.0201 2.19736 16.6852 2 16.3215 2H7.725ZM21.413 6L18.9458 1.54628C18.4172 0.592088 17.4124 0 16.3215 0H7.725C6.64138 0 5.64198 0.584368 5.11055 1.52872L2.59434 6H1C0.447715 6 0 6.44772 0 7C0 7.55228 0.447715 8 1 8H2V13.9815C1.99974 13.9946 1.99974 14.0076 2 14.0206V16C2 16.5523 2.44772 17 3 17C3.55228 17 4 16.5523 4 16V15.2198L7.60969 15.9417C7.80341 15.9805 8.00048 16 8.19804 16H15.802C15.9995 16 16.1966 15.9805 16.3903 15.9417L20 15.2198V16C20 16.5523 20.4477 17 21 17C21.5523 17 22 16.5523 22 16V14.0207C22.0003 14.0076 22.0003 13.9946 22 13.9815V8H23C23.5523 8 24 7.55228 24 7C24 6.44772 23.5523 6 23 6H21.413ZM20 8V10H17C16.4477 10 16 10.4477 16 11C16 11.5523 16.4477 12 17 12H20V13.1802L15.9981 13.9806C15.9335 13.9935 15.8678 14 15.802 14H8.19804C8.13219 14 8.0665 13.9935 8.00192 13.9806L4 13.1802V12L7 12C7.55229 12 8 11.5523 8 11C8 10.4477 7.55228 10 7 10L4 10V8H20Z" fill="#BEBEC3"/>
</svg>
