<svg width="20" height="20" viewBox="0 0 20 20" fill="none" xmlns="http://www.w3.org/2000/svg">
<path fill-rule="evenodd" clip-rule="evenodd" d="M10.0001 0C10.5524 0 11.0001 0.447715 11.0001 1V5C11.0001 5.55228 10.5524 6 10.0001 6C9.4478 6 9.00009 5.55228 9.00009 5V1C9.00009 0.447715 9.4478 0 10.0001 0ZM16.8897 0.00625348C17.4386 -0.0547357 17.933 0.3408 17.994 0.889707L19.994 18.8898C20.055 19.4388 19.6594 19.9332 19.1105 19.9942C18.5616 20.0551 18.0672 19.6596 18.0062 19.1107L16.0062 1.11057C15.9452 0.561661 16.3408 0.0672427 16.8897 0.00625348ZM3.11052 0.00639093C3.65943 0.0673805 4.05496 0.561799 3.99397 1.11071L1.99397 19.1107C1.93298 19.6596 1.43856 20.0551 0.889657 19.9942C0.34075 19.9332 -0.0547852 19.4387 0.00620445 18.8898L2.0062 0.889843C2.06719 0.340936 2.56161 -0.0545987 3.11052 0.00639093ZM10.0001 10.0001C10.5524 10.0001 11.0001 10.4479 11.0001 11.0001V15.0001C11.0001 15.5524 10.5524 16.0001 10.0001 16.0001C9.4478 16.0001 9.00009 15.5524 9.00009 15.0001V11.0001C9.00009 10.4479 9.4478 10.0001 10.0001 10.0001Z" fill="#FAFAFF"/>
</svg>
