<svg width="100" height="23" viewBox="0 0 100 23" fill="none" xmlns="http://www.w3.org/2000/svg">
<path d="M99.73 7.42185C99.4032 5.58107 98.496 3.89314 97.1412 2.60487C95.7864 1.3166 94.0549 0.495567 92.2 0.261846C90.6372 0.0746495 89.0639 -0.0121935 87.49 0.00184726H86.85C85.2757 -0.0027584 83.7027 0.090755 82.14 0.281846C80.2961 0.517237 78.5773 1.34103 77.2388 2.6309C75.9003 3.92077 75.0135 5.60792 74.71 7.44185C74.5309 8.6202 74.4373 9.80998 74.43 11.0018C74.4296 12.1874 74.5233 13.3711 74.71 14.5418C75.0094 16.3864 75.8928 18.0862 77.2303 19.3912C78.5678 20.6963 80.2887 21.5377 82.14 21.7918C83.59 21.8818 85.14 22.0718 86.94 22.0718H87.49C89.21 22.0718 90.84 21.8818 92.2 21.7918C94.0623 21.5395 95.7959 20.7008 97.1497 19.3973C98.5035 18.0938 99.4073 16.3933 99.73 14.5418C99.9068 13.3701 99.997 12.1869 100 11.0018C99.9905 9.8038 99.9003 8.60776 99.73 7.42185ZM91.39 13.5818C91.3426 14.362 91.0113 15.0978 90.4586 15.6505C89.906 16.2031 89.1702 16.5344 88.39 16.5818H86C85.2242 16.5221 84.4954 16.1868 83.9452 15.6366C83.395 15.0865 83.0598 14.3576 83 13.5818C82.9535 12.7392 82.9535 11.8945 83 11.0518C83 10.1418 83 8.87185 83.09 8.05185C83.1848 7.29349 83.5471 6.59385 84.1117 6.07875C84.6763 5.56365 85.4062 5.26689 86.17 5.24185C86.5276 5.16294 86.8943 5.13267 87.26 5.15185L88.44 5.24185C89.1956 5.26723 89.9163 5.56613 90.4681 6.08299C91.02 6.59984 91.3653 7.29948 91.44 8.05185C91.53 8.87185 91.53 10.1418 91.53 10.9518C91.5317 11.8304 91.485 12.7084 91.39 13.5818Z" fill="#3C3C41"/>
<path d="M72.35 0.261844C70.6635 0.0727693 68.967 -0.0140544 67.27 0.00184615C65.6956 -0.00555926 64.1224 0.0879646 62.56 0.281845C60.7155 0.518305 58.9961 1.34223 57.6562 2.63172C56.3163 3.9212 55.427 5.60775 55.12 7.44184C54.865 8.61096 54.7442 9.80535 54.76 11.0018V11.1018C54.7418 12.2588 54.8627 13.4137 55.12 14.5418C55.423 16.3866 56.3088 18.0857 57.6477 19.3904C58.9865 20.6951 60.7081 21.5367 62.56 21.7918C63.92 21.8818 65.56 22.0718 67.27 22.0718C69.17 22.0718 70.9 21.9718 72.35 21.9718C72.6051 21.9309 72.8368 21.7989 73.0023 21.6004C73.1677 21.4019 73.2557 21.1502 73.25 20.8918V17.5718C73.2611 17.434 73.2434 17.2953 73.1981 17.1646C73.1529 17.0338 73.081 16.9139 72.987 16.8124C72.893 16.7109 72.779 16.63 72.6521 16.5748C72.5253 16.5197 72.3883 16.4914 72.25 16.4918C72.25 16.4918 70.52 16.5818 69.62 16.5818C68.6173 16.5719 67.6159 16.5085 66.62 16.3918C65.8571 16.3432 65.1364 16.0248 64.5867 15.4935C64.0371 14.9622 63.6944 14.2527 63.62 13.4918C63.5153 12.6824 63.4552 11.8679 63.44 11.0518V11.0018C63.4552 10.1858 63.5153 9.37126 63.62 8.56185C63.6967 7.81028 64.0427 7.11183 64.5941 6.59538C65.1455 6.07892 65.865 5.77932 66.62 5.75185C67.62 5.66185 68.52 5.66185 69.62 5.66185C70.52 5.66185 72.25 5.75185 72.25 5.75185C72.3893 5.75241 72.5271 5.72389 72.6547 5.6681C72.7823 5.61232 72.8968 5.5305 72.9909 5.42789C73.0851 5.32528 73.1567 5.20413 73.2014 5.07222C73.246 4.94031 73.2625 4.80053 73.25 4.66185V1.34185C73.2557 1.0835 73.1677 0.831818 73.0023 0.633301C72.8368 0.434783 72.6051 0.302838 72.35 0.261844Z" fill="#3C3C41"/>
<path d="M52.31 0.351846H39.31C38.7502 0.350527 38.1957 0.459818 37.6782 0.673436C37.1608 0.887054 36.6906 1.20079 36.2948 1.59663C35.8989 1.99247 35.5852 2.46262 35.3716 2.98006C35.158 3.4975 35.0487 4.05205 35.05 4.61185V17.4818C35.0487 18.0416 35.158 18.5962 35.3716 19.1136C35.5852 19.6311 35.8989 20.1012 36.2948 20.4971C36.6906 20.8929 37.1608 21.2066 37.6782 21.4203C38.1957 21.6339 38.7502 21.7432 39.31 21.7418H52.31C52.4557 21.7555 52.6026 21.7371 52.7404 21.6878C52.8782 21.6385 53.0035 21.5596 53.1074 21.4566C53.2114 21.3536 53.2914 21.229 53.342 21.0917C53.3925 20.9544 53.4123 20.8077 53.4 20.6618V17.3918C53.3974 17.1036 53.2817 16.8278 53.0779 16.624C52.874 16.4201 52.5983 16.3045 52.31 16.3018H44.31C44.1651 16.314 44.0193 16.2944 43.8828 16.2444C43.7462 16.1944 43.6222 16.1153 43.5194 16.0124C43.4166 15.9096 43.3374 15.7856 43.2874 15.6491C43.2375 15.5125 43.2179 15.3667 43.23 15.2218V13.4018H50.03C50.3165 13.3966 50.5897 13.2798 50.7914 13.0763C50.9931 12.8727 51.1074 12.5984 51.11 12.3118V9.59185C51.0913 9.31158 50.9715 9.04764 50.7728 8.84902C50.5742 8.6504 50.3103 8.53059 50.03 8.51185L43.23 8.60185V6.60185C43.2296 6.46351 43.2578 6.32659 43.313 6.19974C43.3682 6.07289 43.4491 5.95887 43.5506 5.86488C43.6521 5.7709 43.772 5.69899 43.9027 5.65372C44.0334 5.60844 44.1721 5.59078 44.31 5.60185H52.31C52.4547 5.60747 52.5989 5.58312 52.7337 5.53034C52.8685 5.47755 52.9909 5.39746 53.0933 5.2951C53.1956 5.19274 53.2757 5.07032 53.3285 4.93553C53.3813 4.80074 53.4056 4.65649 53.4 4.51185V1.34185C53.3992 1.20344 53.3696 1.06671 53.3132 0.940312C53.2568 0.813914 53.1748 0.700599 53.0724 0.607541C52.9699 0.514483 52.8492 0.443707 52.718 0.399693C52.5868 0.35568 52.4478 0.339386 52.31 0.351846Z" fill="#3C3C41"/>
<path d="M32.09 0.351845H28.38C28.1475 0.358471 27.9237 0.441356 27.743 0.587727C27.5623 0.734099 27.4348 0.935835 27.38 1.16185L23.84 15.4918C23.8331 15.585 23.7929 15.6726 23.7268 15.7387C23.6608 15.8048 23.5732 15.8449 23.48 15.8518C23.3727 15.8631 23.2653 15.8316 23.1811 15.7642C23.0968 15.6969 23.0426 15.599 23.03 15.4918L19.58 1.16185C19.5188 0.924225 19.3785 0.714536 19.1822 0.567307C18.9859 0.420078 18.7453 0.344085 18.5 0.351845H11.88C11.7413 0.339312 11.6015 0.355883 11.4696 0.400494C11.3377 0.445106 11.2166 0.516774 11.114 0.610913C11.0114 0.705051 10.9295 0.819586 10.8737 0.947175C10.818 1.07476 10.7894 1.21259 10.79 1.35185V1.63185L15.23 18.7618C15.5065 19.6285 16.05 20.3854 16.7829 20.9243C17.5158 21.4632 18.4004 21.7563 19.31 21.7618H24.75C25.7261 21.7751 26.6762 21.4479 27.4372 20.8365C28.1982 20.2252 28.7225 19.3678 28.92 18.4118L33.18 1.64185V1.36185C33.182 1.22176 33.1545 1.08282 33.0993 0.954033C33.0442 0.825248 32.9625 0.709491 32.8598 0.614266C32.757 0.519042 32.6354 0.446476 32.5028 0.401269C32.3702 0.356062 32.2295 0.339222 32.09 0.351845Z" fill="#3C3C41"/>
<path d="M7.53 0.351843H1.09C0.815183 0.348545 0.549446 0.450145 0.346926 0.635943C0.144405 0.821741 0.0203385 1.07776 0 1.35184V20.6618C0.00519917 20.9484 0.122018 21.2216 0.325594 21.4233C0.52917 21.625 0.803429 21.7393 1.09 21.7418H7.53C7.6749 21.754 7.8207 21.7344 7.95724 21.6844C8.09378 21.6344 8.21778 21.5553 8.3206 21.4524C8.42341 21.3496 8.50257 21.2256 8.55255 21.0891C8.60254 20.9525 8.62214 20.8067 8.61 20.6618V1.34185C8.60907 1.20435 8.57979 1.06854 8.524 0.94287C8.46821 0.817204 8.3871 0.704391 8.28575 0.611483C8.18439 0.518575 8.06497 0.447569 7.93494 0.402895C7.8049 0.358222 7.66705 0.340841 7.53 0.351843Z" fill="#3C3C41"/>
</svg>
