<svg width="100" height="40" viewBox="0 0 100 40" fill="none" xmlns="http://www.w3.org/2000/svg">
<path d="M99.6834 7.2317C98.0099 8.40159 96.0492 9.0932 94.012 9.23217C91.904 9.2097 89.8147 8.83442 87.8306 8.1219L87.5105 8.03188C85.8429 7.51754 84.1372 7.13626 82.4093 6.89162C80.0988 6.68157 79.1786 6.8316 77.9483 7.62179C77.4621 8.0175 77.0616 8.50798 76.771 9.06339C76.4804 9.6188 76.3058 10.2275 76.2579 10.8525C76.2579 10.8525 75.9978 13.3731 75.0976 13.5732C74.7704 13.6658 74.4264 13.6825 74.0918 13.6218C73.7572 13.5611 73.441 13.4247 73.1672 13.2231C71.9269 12.4529 70.4565 11.4527 69.8064 10.9926C67.1729 8.93999 64.12 7.49209 60.8643 6.75158C57.2034 5.75135 52.4723 6.46151 51.5721 6.60155C49.2018 7.01721 46.8054 7.26788 44.4004 7.35172C41.847 7.29057 39.3037 7.00947 36.7986 6.51153L34.8682 6.17145C35.5108 6.09383 36.1487 5.98029 36.7786 5.83137C37.5428 5.65552 38.2384 5.25901 38.7791 4.6911C38.7964 4.67817 38.8108 4.66164 38.8211 4.64265C38.8315 4.62366 38.8376 4.60266 38.8391 4.58107C38.8247 4.55399 38.8048 4.53021 38.7807 4.51126C38.7566 4.49232 38.7288 4.47862 38.6991 4.47105H38.6291C38.1446 4.45385 37.6657 4.36278 37.2087 4.20098L36.6086 3.8609L37.1987 3.57084C38.1559 3.09556 39.0844 2.56453 39.9794 1.98047C39.9995 1.95717 40.0114 1.92788 40.0132 1.89714C40.015 1.8664 40.0066 1.83592 39.9894 1.81042C39.9894 1.81042 39.9194 1.81043 39.8593 1.75041C38.154 1.68001 36.4458 1.7335 34.7481 1.91045C33.7479 1.97046 32.8577 2.03048 32.4776 2.03048C31.3674 2.03048 30.7972 1.80042 30.7172 1.40033C30.7123 1.37052 30.7123 1.34012 30.7172 1.31031C30.7172 1.01024 30.9873 0.740173 31.2973 0.480112L31.3874 0.38009C29.3869 0.190046 26.7963 0.98023 25.0759 1.49035L23.7956 1.85043H23.7256C22.6753 2.1205 22.0652 2.08049 21.8751 1.7204C21.8296 1.64902 21.8085 1.56476 21.8151 1.48035C21.9074 0.959995 22.1591 0.481162 22.5353 0.110026L22.6253 0C20.9917 0.515583 19.4109 1.18543 17.9042 2.00047C17.0988 2.4362 16.2508 2.78813 15.3736 3.05072L14.2333 3.30077L14.5034 2.68063C14.702 2.16 14.8037 1.60745 14.8035 1.05025C14.819 0.813779 14.819 0.576549 14.8035 0.34008C14.8035 0.250059 14.8035 0.200048 14.7535 0.200048C14.7033 0.210654 14.6557 0.231047 14.6134 0.260061C14.4543 0.39778 14.2836 0.521597 14.1033 0.630149C13.0049 1.21439 12.0854 2.08548 11.4427 3.15074V3.25076L10.9226 3.54083L10.7825 3.61084L10.3624 3.78089H10.2624C10.0446 3.87282 9.8422 3.99763 9.66226 4.15097C8.98686 4.66529 8.35766 5.23759 7.78182 5.86137L7.40173 6.32148L6.98164 6.8216C6.84165 6.95273 6.69474 7.07627 6.54153 7.19169C6.3556 7.36276 6.1818 7.54658 6.02141 7.74181C5.92266 7.86121 5.84487 7.9965 5.79136 8.14191C4.79112 9.73228 4.271 10.4625 3.89091 10.9926L3.75088 11.1926C3.40812 11.6579 3.03382 12.099 2.63062 12.5129L1.98046 13.1631L1.12026 14.0033C0.782195 14.3409 0.480474 14.713 0.220052 15.1135C0.0772739 15.3266 0.000712217 15.5772 0 15.8337C0.00971021 15.9904 0.0399767 16.1451 0.0900211 16.2938C0.193792 16.5546 0.314064 16.8085 0.450105 17.054V17.204C0.583516 17.7718 0.866753 18.2933 1.2703 18.7144C1.45907 18.8713 1.67646 18.9902 1.91045 19.0645C1.97046 19.0645 2.5706 19.1645 3.44081 19.2545C4.61108 19.1145 4.87114 18.5744 4.91115 18.4243V18.3643V18.3143C5.98658 17.0767 7.27359 16.0403 8.71204 15.2536C9.90926 14.6491 11.1755 14.1923 12.4829 13.8933L13.6332 13.5732C14.3875 13.3931 15.0938 13.0519 15.7037 12.5729L15.7937 12.4829H15.9837C18.8744 12.4229 23.1054 16.5939 23.9256 17.4841L23.9856 17.5141V17.6241C24.0492 18.7388 24.3601 19.8253 24.8958 20.8049L24.9659 20.9149V21.0349C24.7448 22.6393 24.3525 24.2153 23.7956 25.736C23.555 26.3164 23.2846 26.884 22.9854 27.4364L22.5253 28.3466C22.4415 28.5109 22.3969 28.6924 22.3952 28.8768C22.3916 29.0165 22.4174 29.1555 22.4708 29.2847C22.5242 29.4139 22.6041 29.5305 22.7053 29.6269C23.1342 30.0107 23.5887 30.365 24.0656 30.6872C24.3501 30.8059 24.6582 30.8572 24.9659 30.8372H25.396H26.0761C26.5062 30.8372 30.9673 30.7672 32.3276 30.7472H32.5576L32.6977 31.0673C32.7722 31.2308 32.8292 31.4018 32.8677 31.5774C33.6579 31.9675 34.298 32.2576 34.3881 32.2876L34.7281 32.3776L35.7284 32.6677C36.0043 32.7631 36.2666 32.8943 36.5086 33.0578L36.5886 33.1078C36.7086 33.1778 37.4688 33.7679 37.9389 34.108L38.399 34.4981L37.8489 34.7081C37.4533 34.8285 37.0711 34.9894 36.7086 35.1882C36.4748 35.3943 36.2726 35.6336 36.1085 35.8984L35.9984 36.0484H33.6479L31.1673 38.8791H36.3385C36.4185 38.0789 36.5986 37.5688 36.9687 37.3588C37.1134 37.2817 37.2748 37.2414 37.4388 37.2414C37.6027 37.2414 37.7642 37.2817 37.9089 37.3588H37.9989L38.1389 37.4388C38.2706 37.5366 38.4243 37.6006 38.5866 37.625C38.7488 37.6494 38.9145 37.6335 39.0692 37.5788C39.4701 37.3635 39.8132 37.0547 40.0694 36.6786L40.4695 36.3485L41.1897 37.2287C41.3018 37.3639 41.4425 37.4725 41.6016 37.5469C41.7607 37.6212 41.9343 37.6595 42.1099 37.6588C42.6383 37.7016 43.1558 37.8335 43.6402 38.0489C44.2059 38.3109 44.734 38.6473 45.2106 39.0492H48.6914L45.6907 35.5283L44.4904 35.8184C44.3663 35.8602 44.2334 35.8684 44.1051 35.842C43.9768 35.8156 43.8578 35.7557 43.7603 35.6684L42.9901 35.0482L42.63 34.7381L43.0901 34.5181C44.6504 33.6282 46.2914 32.888 47.9912 32.3076L48.2813 32.2075L48.7814 32.0775C50.2951 32.2632 51.7928 32.5607 53.2625 32.9677L53.4925 33.0277C54.0627 33.1678 54.2027 32.9177 54.3627 32.5976C55.0657 31.2779 56.0127 30.1036 57.1534 29.1368C57.4435 28.9468 58.4037 28.5167 59.804 27.8865C60.6542 27.5064 61.5444 27.1064 62.0946 26.8263C63.4035 26.1951 64.638 25.4202 65.7754 24.5157C66.9852 23.4634 68.0845 22.2904 69.0562 21.0149C69.3463 20.6248 70.2265 19.0145 70.7566 18.0142C70.9585 17.6581 71.2485 17.3597 71.5988 17.1478C71.949 16.9359 72.3479 16.8175 72.7571 16.8039C72.9571 16.8039 73.4872 16.8039 74.3574 16.904L76.2779 17.024C77.6024 17.1464 78.9351 16.9007 80.1288 16.3138C80.7848 15.7676 81.3139 15.085 81.6791 14.3134L81.7892 14.1333C82.0596 13.6133 82.4816 13.1877 82.9995 12.913C83.4858 12.7668 84.0101 12.8171 84.4598 13.0531C86.3533 13.7794 88.3402 14.2341 90.3612 14.4034C91.4314 14.5134 95.1323 14.2633 97.0027 13.0631C99.4533 11.4927 100.003 9.83231 100.003 8.71204C99.9985 8.20196 99.8896 7.69825 99.6834 7.2317ZM30.9873 28.4367C30.3463 28.6012 29.6784 28.6328 29.0248 28.5296C28.3711 28.4264 27.7455 28.1905 27.1864 27.8365H27.1264L26.6963 26.9463V26.8063C26.6963 26.7463 26.8363 26.4762 27.2064 25.696C27.4064 25.2459 27.6665 24.6958 27.6965 24.6358L27.7765 24.4957L28.1466 23.7856L28.3967 24.5458C28.5834 24.768 28.7839 24.9785 28.9968 25.1759C29.4298 25.5941 29.8405 26.0348 30.2271 26.4962C30.6056 26.9612 30.9404 27.4601 31.2273 27.9866L31.4374 28.4067L30.9873 28.4367ZM51.5921 21.7351C51.382 22.1952 51.192 22.5453 51.102 22.8254C50.7922 23.7103 50.4212 24.5726 49.9917 25.406C49.2666 26.6472 48.4152 27.8104 47.4511 28.8768L47.1911 29.1768H47.051L43.8303 29.4769L40.1594 32.4776L39.9894 32.4076C39.1589 31.977 38.4658 31.322 37.9889 30.5172L37.8189 30.2571L38.0489 30.057C38.583 29.628 39.0876 29.1635 39.5593 28.6667L39.6293 28.5967L41.2897 28.3066L43.6602 25.9461L38.7391 25.636C38.6191 26.1761 38.339 27.1164 37.6588 27.3464L37.4888 27.4064L37.3387 27.2864C37.295 27.2599 37.2449 27.2459 37.1937 27.2459C37.1426 27.2459 37.0924 27.2599 37.0487 27.2864L36.6886 27.4264L36.5886 27.0663C36.2848 26.0684 36.2605 25.0063 36.5186 23.9956L36.5986 23.7456H36.8586C38.6984 23.7729 40.5375 23.6592 42.3599 23.4055C44.2896 23.1081 46.1789 22.5913 47.9912 21.8651C48.9915 21.455 50.7819 20.8649 51.4721 20.6949L52.1822 20.5148L51.5921 21.7351Z" fill="#3C3C41"/>
</svg>
