<svg width="100" height="100" viewBox="0 0 100 100" fill="none" xmlns="http://www.w3.org/2000/svg">
<path d="M99.73 46.4199C99.4032 44.5791 98.496 42.8912 97.1412 41.6029C95.7864 40.3146 94.0549 39.4936 92.2 39.2599C90.6372 39.0727 89.0639 38.9859 87.49 38.9999H86.85C85.2757 38.9953 83.7027 39.0888 82.14 39.2799C80.2961 39.5153 78.5773 40.3391 77.2388 41.6289C75.9003 42.9188 75.0135 44.606 74.71 46.4399C74.5309 47.6182 74.4373 48.808 74.43 49.9999C74.4296 51.1854 74.5233 52.3691 74.71 53.5399C75.0094 55.3844 75.8928 57.0842 77.2303 58.3893C78.5678 59.6943 80.2887 60.5358 82.14 60.7899C83.59 60.8799 85.14 61.0699 86.94 61.0699H87.49C89.21 61.0699 90.84 60.8799 92.2 60.7899C94.0623 60.5375 95.7959 59.6988 97.1497 58.3954C98.5035 57.0919 99.4073 55.3913 99.73 53.5399C99.9068 52.3681 99.997 51.1849 100 49.9999C99.9905 48.8018 99.9003 47.6058 99.73 46.4199ZM91.39 52.5799C91.3426 53.36 91.0113 54.0959 90.4586 54.6485C89.906 55.2012 89.1702 55.5325 88.39 55.5799H86C85.2242 55.5201 84.4954 55.1849 83.9452 54.6347C83.395 54.0845 83.0598 53.3557 83 52.5799C82.9535 51.7372 82.9535 50.8926 83 50.0499C83 49.1399 83 47.8699 83.09 47.0499C83.1848 46.2915 83.5471 45.5919 84.1117 45.0768C84.6763 44.5617 85.4062 44.2649 86.17 44.2399C86.5276 44.161 86.8943 44.1307 87.26 44.1499L88.44 44.2399C89.1956 44.2653 89.9163 44.5642 90.4681 45.081C91.02 45.5979 91.3653 46.2975 91.44 47.0499C91.53 47.8699 91.53 49.1399 91.53 49.9499C91.5317 50.8285 91.485 51.7065 91.39 52.5799Z" fill="#3C3C41"/>
<path d="M72.35 39.2599C70.6635 39.0708 68.967 38.984 67.27 38.9999C65.6956 38.9925 64.1224 39.086 62.56 39.2799C60.7155 39.5164 58.9961 40.3403 57.6562 41.6298C56.3163 42.9193 55.427 44.6058 55.12 46.4399C54.865 47.609 54.7442 48.8034 54.76 49.9999V50.0999C54.7418 51.2568 54.8627 52.4118 55.12 53.5399C55.423 55.3846 56.3088 57.0838 57.6477 58.3885C58.9865 59.6931 60.7081 60.5347 62.56 60.7899C63.92 60.8799 65.56 61.0699 67.27 61.0699C69.17 61.0699 70.9 60.9699 72.35 60.9699C72.6051 60.9289 72.8368 60.797 73.0023 60.5984C73.1677 60.3999 73.2557 60.1482 73.25 59.8899V56.5699C73.2611 56.432 73.2434 56.2933 73.1981 56.1626C73.1529 56.0319 73.081 55.912 72.987 55.8105C72.893 55.709 72.779 55.6281 72.6521 55.5729C72.5253 55.5177 72.3883 55.4895 72.25 55.4899C72.25 55.4899 70.52 55.5799 69.62 55.5799C68.6173 55.57 67.6159 55.5065 66.62 55.3899C65.8571 55.3413 65.1364 55.0229 64.5867 54.4916C64.0371 53.9602 63.6944 53.2507 63.62 52.4899C63.5153 51.6805 63.4552 50.8659 63.44 50.0499V49.9999C63.4552 49.1839 63.5153 48.3693 63.62 47.5599C63.6967 46.8083 64.0427 46.1099 64.5941 45.5934C65.1455 45.077 65.865 44.7774 66.62 44.7499C67.62 44.6599 68.52 44.6599 69.62 44.6599C70.52 44.6599 72.25 44.7499 72.25 44.7499C72.3893 44.7505 72.5271 44.7219 72.6547 44.6661C72.7823 44.6104 72.8968 44.5285 72.9909 44.4259C73.0851 44.3233 73.1567 44.2022 73.2014 44.0703C73.246 43.9384 73.2625 43.7986 73.25 43.6599V40.3399C73.2557 40.0815 73.1677 39.8299 73.0023 39.6313C72.8368 39.4328 72.6051 39.3009 72.35 39.2599Z" fill="#3C3C41"/>
<path d="M52.31 39.3499H39.31C38.7502 39.3486 38.1957 39.4579 37.6782 39.6715C37.1608 39.8851 36.6906 40.1988 36.2948 40.5947C35.8989 40.9905 35.5852 41.4607 35.3716 41.9781C35.158 42.4955 35.0487 43.0501 35.05 43.6099V56.4799C35.0487 57.0397 35.158 57.5942 35.3716 58.1117C35.5852 58.6291 35.8989 59.0993 36.2948 59.4951C36.6906 59.8909 37.1608 60.2047 37.6782 60.4183C38.1957 60.6319 38.7502 60.7412 39.31 60.7399H52.31C52.4557 60.7536 52.6026 60.7351 52.7404 60.6858C52.8782 60.6366 53.0035 60.5576 53.1074 60.4546C53.2114 60.3516 53.2914 60.2271 53.342 60.0898C53.3925 59.9524 53.4123 59.8057 53.4 59.6599V56.3899C53.3974 56.1016 53.2817 55.8259 53.0779 55.622C52.874 55.4182 52.5983 55.3025 52.31 55.2999H44.31C44.1651 55.312 44.0193 55.2924 43.8828 55.2424C43.7462 55.1925 43.6222 55.1133 43.5194 55.0105C43.4166 54.9077 43.3374 54.7837 43.2874 54.6471C43.2375 54.5106 43.2179 54.3648 43.23 54.2199V52.3999H50.03C50.3165 52.3947 50.5897 52.2779 50.7914 52.0743C50.9931 51.8707 51.1074 51.5965 51.11 51.3099V48.5899C51.0913 48.3096 50.9715 48.0457 50.7728 47.8471C50.5742 47.6484 50.3103 47.5286 50.03 47.5099L43.23 47.5999V45.5999C43.2296 45.4616 43.2578 45.3246 43.313 45.1978C43.3682 45.0709 43.4491 44.9569 43.5506 44.8629C43.6521 44.7689 43.772 44.697 43.9027 44.6518C44.0334 44.6065 44.1721 44.5888 44.31 44.5999H52.31C52.4547 44.6055 52.5989 44.5812 52.7337 44.5284C52.8685 44.4756 52.9909 44.3955 53.0933 44.2931C53.1956 44.1908 53.2757 44.0684 53.3285 43.9336C53.3813 43.7988 53.4056 43.6545 53.4 43.5099V40.3399C53.3992 40.2015 53.3696 40.0648 53.3132 39.9384C53.2568 39.812 53.1748 39.6986 53.0724 39.6056C52.9699 39.5125 52.8492 39.4418 52.718 39.3977C52.5868 39.3537 52.4478 39.3374 52.31 39.3499Z" fill="#3C3C41"/>
<path d="M32.09 39.3499H28.38C28.1475 39.3565 27.9237 39.4394 27.743 39.5858C27.5623 39.7321 27.4348 39.9339 27.38 40.1599L23.84 54.4899C23.8331 54.5831 23.7929 54.6707 23.7268 54.7367C23.6608 54.8028 23.5732 54.843 23.48 54.8499C23.3727 54.8612 23.2653 54.8297 23.1811 54.7623C23.0968 54.6949 23.0426 54.597 23.03 54.4899L19.58 40.1599C19.5188 39.9223 19.3785 39.7126 19.1822 39.5654C18.9859 39.4181 18.7453 39.3421 18.5 39.3499H11.88C11.7413 39.3374 11.6015 39.3539 11.4696 39.3985C11.3377 39.4432 11.2166 39.5148 11.114 39.609C11.0114 39.7031 10.9295 39.8176 10.8737 39.9452C10.818 40.0728 10.7894 40.2106 10.79 40.3499V40.6299L15.23 57.7599C15.5065 58.6265 16.05 59.3835 16.7829 59.9223C17.5158 60.4612 18.4004 60.7544 19.31 60.7599H24.75C25.7261 60.7731 26.6762 60.4459 27.4372 59.8346C28.1982 59.2232 28.7225 58.3659 28.92 57.4099L33.18 40.6399V40.3599C33.182 40.2198 33.1545 40.0809 33.0993 39.9521C33.0442 39.8233 32.9625 39.7075 32.8598 39.6123C32.757 39.5171 32.6354 39.4445 32.5028 39.3993C32.3702 39.3541 32.2295 39.3373 32.09 39.3499Z" fill="#3C3C41"/>
<path d="M7.53 39.3499H1.09C0.815183 39.3466 0.549446 39.4482 0.346926 39.634C0.144405 39.8198 0.0203385 40.0758 0 40.3499V59.6599C0.00519917 59.9464 0.122018 60.2196 0.325594 60.4213C0.52917 60.623 0.803429 60.7373 1.09 60.7399H7.53C7.6749 60.752 7.8207 60.7324 7.95724 60.6824C8.09378 60.6325 8.21778 60.5533 8.3206 60.4505C8.42341 60.3477 8.50257 60.2237 8.55255 60.0871C8.60254 59.9506 8.62214 59.8048 8.61 59.6599V40.3399C8.60907 40.2024 8.57979 40.0666 8.524 39.9409C8.46821 39.8153 8.3871 39.7024 8.28575 39.6095C8.18439 39.5166 8.06497 39.4456 7.93494 39.4009C7.8049 39.3563 7.66705 39.3389 7.53 39.3499Z" fill="#3C3C41"/>
</svg>
