<svg width="100" height="100" viewBox="0 0 100 100" fill="none" xmlns="http://www.w3.org/2000/svg">
<path d="M-992 -642C-992 -643.105 -991.105 -644 -990 -644H6384C6385.1 -644 6386 -643.105 6386 -642V758C6386 759.105 6385.1 760 6384 760H-990C-991.105 760 -992 759.105 -992 758V-642Z" fill="#C8C8CD"/>
<rect x="-155.5" y="-295.5" width="551" height="551" rx="4.5" stroke="#9747FF" stroke-dasharray="10 5"/>
<path d="M99.6795 37.7202C98.0064 38.8899 96.0462 39.5813 94.0095 39.7202C91.902 39.6978 89.8131 39.3226 87.8295 38.6102L87.5095 38.5202C85.8423 38.006 84.137 37.6248 82.4095 37.3802C80.0995 37.1702 79.1795 37.3202 77.9495 38.1102C77.4635 38.5059 77.063 38.9962 76.7725 39.5515C76.482 40.1068 76.3074 40.7154 76.2595 41.3402C76.2595 41.3402 75.9995 43.8602 75.0995 44.0602C74.7724 44.1529 74.4285 44.1695 74.094 44.1088C73.7595 44.0482 73.4433 43.9118 73.1695 43.7102C71.9295 42.9402 70.4595 41.9402 69.8095 41.4802C67.1767 39.4281 64.1245 37.9806 60.8695 37.2402C57.2095 36.2402 52.4795 36.9502 51.5795 37.0902C49.2098 37.5058 46.814 37.7564 44.4095 37.8402C41.8568 37.7791 39.314 37.4981 36.8095 37.0002L34.8795 36.6602C35.522 36.5826 36.1597 36.4691 36.7895 36.3202C37.5535 36.1444 38.249 35.748 38.7895 35.1802C38.8069 35.1673 38.8212 35.1508 38.8316 35.1318C38.8419 35.1128 38.848 35.0918 38.8495 35.0702C38.8351 35.0432 38.8153 35.0194 38.7912 35.0004C38.767 34.9815 38.7392 34.9678 38.7095 34.9602H38.6395C38.1552 34.943 37.6764 34.852 37.2195 34.6902L36.6195 34.3502L37.2095 34.0602C38.1665 33.5851 39.0948 33.0542 39.9895 32.4702C40.0097 32.4469 40.0215 32.4177 40.0233 32.3869C40.0252 32.3562 40.0168 32.3257 39.9995 32.3002C39.9995 32.3002 39.9295 32.3002 39.8695 32.2402C38.1646 32.1698 36.4567 32.2233 34.7595 32.4002C33.7595 32.4602 32.8695 32.5202 32.4895 32.5202C31.3795 32.5202 30.8095 32.2902 30.7295 31.8902C30.7247 31.8604 30.7247 31.83 30.7295 31.8002C30.7295 31.5002 30.9995 31.2302 31.3095 30.9702L31.3995 30.8702C29.3995 30.6802 26.8095 31.4702 25.0895 31.9802L23.8095 32.3402H23.7395C22.6895 32.6102 22.0795 32.5702 21.8895 32.2102C21.844 32.1389 21.823 32.0546 21.8295 31.9702C21.9218 31.45 22.1734 30.9713 22.5495 30.6002L22.6395 30.4902C21.0063 31.0057 19.4259 31.6754 17.9195 32.4902C17.1143 32.9259 16.2666 33.2777 15.3895 33.5402L14.2495 33.7902L14.5195 33.1702C14.718 32.6497 14.8197 32.0973 14.8195 31.5402C14.835 31.3038 14.835 31.0666 14.8195 30.8302C14.8195 30.7402 14.8195 30.6902 14.7695 30.6902C14.7194 30.7008 14.6718 30.7212 14.6295 30.7502C14.4704 30.8879 14.2998 31.0117 14.1195 31.1202C13.0214 31.7043 12.1021 32.5752 11.4595 33.6402V33.7402L10.9395 34.0302L10.7995 34.1002L10.3795 34.2702H10.2795C10.0618 34.3621 9.85942 34.4869 9.67953 34.6402C9.00429 35.1544 8.37523 35.7266 7.79953 36.3502L7.41953 36.8102L6.99953 37.3102C6.85958 37.4413 6.7127 37.5648 6.55953 37.6802C6.37364 37.8513 6.19988 38.035 6.03953 38.2302C5.9408 38.3496 5.86303 38.4849 5.80953 38.6302C4.80953 40.2202 4.28953 40.9502 3.90953 41.4802L3.76953 41.6802C3.42685 42.1454 3.05264 42.5864 2.64953 43.0002L1.99953 43.6502L1.13953 44.4902C0.801543 44.8277 0.499892 45.1998 0.239531 45.6002C0.0967871 45.8133 0.0202433 46.0638 0.0195312 46.3202C0.0292392 46.4768 0.0594986 46.6315 0.109531 46.7802C0.213278 47.041 0.333521 47.2948 0.469531 47.5402V47.6902C0.602911 48.2578 0.886081 48.7793 1.28953 49.2002C1.47826 49.3571 1.69559 49.476 1.92953 49.5502C1.98953 49.5502 2.58953 49.6502 3.45953 49.7402C4.62953 49.6002 4.88953 49.0602 4.92953 48.9102V48.8502V48.8002C6.0047 47.563 7.29142 46.5268 8.72953 45.7402C9.92646 45.1359 11.1924 44.6792 12.4995 44.3802L13.6495 44.0602C14.4036 43.8802 15.1098 43.5391 15.7195 43.0602L15.8095 42.9702H15.9995C18.8895 42.9102 23.1195 47.0802 23.9395 47.9702L23.9995 48.0002V48.1102C24.0631 49.2246 24.3739 50.3109 24.9095 51.2902L24.9795 51.4002V51.5202C24.7586 53.1242 24.3663 54.6999 23.8095 56.2202C23.569 56.8005 23.2987 57.3679 22.9995 57.9202L22.5395 58.8302C22.4557 58.9944 22.4112 59.1759 22.4095 59.3602C22.4059 59.5 22.4316 59.6389 22.485 59.7681C22.5384 59.8973 22.6183 60.0138 22.7195 60.1102C23.1483 60.4939 23.6027 60.8481 24.0795 61.1702C24.364 61.2889 24.672 61.3402 24.9795 61.3202H25.4095H26.0895C26.5195 61.3202 30.9795 61.2502 32.3395 61.2302H32.5695L32.7095 61.5502C32.7841 61.7137 32.8411 61.8847 32.8795 62.0602C33.6695 62.4502 34.3095 62.7402 34.3995 62.7702L34.7395 62.8602L35.7395 63.1502C36.0154 63.2457 36.2776 63.3768 36.5195 63.5402L36.5995 63.5902C36.7195 63.6602 37.4795 64.2502 37.9495 64.5902L38.4095 64.9802L37.8595 65.1902C37.464 65.3105 37.082 65.4714 36.7195 65.6702C36.4858 65.8762 36.2837 66.1155 36.1195 66.3802L36.0095 66.5302H33.6595L31.1795 69.3602H36.3495C36.4295 68.5602 36.6095 68.0502 36.9795 67.8402C37.1242 67.7632 37.2856 67.7229 37.4495 67.7229C37.6134 67.7229 37.7748 67.7632 37.9195 67.8402H38.0095L38.1495 67.9202C38.2812 68.018 38.4349 68.082 38.597 68.1064C38.7592 68.1308 38.9249 68.115 39.0795 68.0602C39.4804 67.845 39.8234 67.5363 40.0795 67.1602L40.4795 66.8302L41.1995 67.7102C41.3117 67.8453 41.4523 67.954 41.6114 68.0283C41.7704 68.1026 41.944 68.1409 42.1195 68.1402C42.6479 68.183 43.1652 68.3149 43.6495 68.5302C44.215 68.7922 44.743 69.1285 45.2195 69.5302H48.6995L45.6995 66.0102L44.4995 66.3002C44.3755 66.3421 44.2425 66.3502 44.1143 66.3238C43.986 66.2975 43.8671 66.2376 43.7695 66.1502L42.9995 65.5302L42.6395 65.2202L43.0995 65.0002C44.6594 64.1105 46.3001 63.3706 47.9995 62.7902L48.2895 62.6902L48.7895 62.5602C50.3028 62.7459 51.8002 63.0433 53.2695 63.4502L53.4995 63.5102C54.0695 63.6502 54.2095 63.4002 54.3695 63.0802C55.0724 61.7609 56.0191 60.5868 57.1595 59.6202C57.4495 59.4302 58.4095 59.0002 59.8095 58.3702C60.6595 57.9902 61.5495 57.5902 62.0995 57.3102C63.4081 56.6792 64.6424 55.9044 65.7795 55.0002C66.989 53.9481 68.0881 52.7754 69.0595 51.5002C69.3495 51.1102 70.2295 49.5002 70.7595 48.5002C70.9614 48.1442 71.2513 47.8459 71.6015 47.634C71.9517 47.4222 72.3505 47.3038 72.7595 47.2902C72.9595 47.2902 73.4895 47.2902 74.3595 47.3902L76.2795 47.5102C77.6038 47.6327 78.9361 47.387 80.1295 46.8002C80.7854 46.2542 81.3144 45.5717 81.6795 44.8002L81.7895 44.6202C82.0599 44.1003 82.4818 43.6748 82.9995 43.4002C83.4858 43.254 84.0099 43.3043 84.4595 43.5402C86.3526 44.2664 88.339 44.721 90.3595 44.8902C91.4295 45.0002 95.1295 44.7502 96.9995 43.5502C99.4495 41.9802 99.9995 40.3202 99.9995 39.2002C99.9946 38.6903 99.8857 38.1867 99.6795 37.7202ZM30.9995 58.9202C30.3587 59.0847 29.691 59.1163 29.0375 59.0131C28.384 58.9099 27.7585 58.6741 27.1995 58.3202H27.1395L26.7095 57.4302V57.2902C26.7095 57.2302 26.8495 56.9602 27.2195 56.1802C27.4195 55.7302 27.6795 55.1802 27.7095 55.1202L27.7895 54.9802L28.1595 54.2702L28.4095 55.0302C28.5963 55.2525 28.7967 55.4629 29.0095 55.6602C29.4424 56.0783 29.853 56.5189 30.2395 56.9802C30.6179 57.4451 30.9527 57.9439 31.2395 58.4702L31.4495 58.8902L30.9995 58.9202ZM51.5995 52.2202C51.3895 52.6802 51.1995 53.0302 51.1095 53.3102C50.7998 54.1949 50.4289 55.057 49.9995 55.8902C49.2745 57.1312 48.4234 58.2941 47.4595 59.3602L47.1995 59.6602H47.0595L43.8395 59.9602L40.1695 62.9602L39.9995 62.8902C39.1692 62.4597 38.4763 61.8049 37.9995 61.0002L37.8295 60.7402L38.0595 60.5402C38.5935 60.1113 39.098 59.6469 39.5695 59.1502L39.6395 59.0802L41.2995 58.7902L43.6695 56.4302L38.7495 56.1202C38.6295 56.6602 38.3495 57.6002 37.6695 57.8302L37.4995 57.8902L37.3495 57.7702C37.3058 57.7438 37.2557 57.7298 37.2045 57.7298C37.1534 57.7298 37.1033 57.7438 37.0595 57.7702L36.6995 57.9102L36.5995 57.5502C36.2958 56.5526 36.2716 55.4907 36.5295 54.4802L36.6095 54.2302H36.8695C38.7089 54.2576 40.5476 54.1439 42.3695 53.8902C44.2987 53.593 46.1876 53.0763 47.9995 52.3502C48.9995 51.9402 50.7895 51.3502 51.4795 51.1802L52.1895 51.0002L51.5995 52.2202Z" fill="#3C3C41"/>
</svg>
