<svg width="100" height="100" viewBox="0 0 100 100" fill="none" xmlns="http://www.w3.org/2000/svg">
<path d="M49.9995 10C39.3395 10 31.7795 11.31 19.2695 14.17L22.6595 59C23.2795 71.78 35.3295 82.43 49.9995 90C64.6695 82.43 76.7195 71.78 77.3395 59L80.7295 14.21C68.2195 11.31 60.6595 10 49.9995 10ZM21.2595 24.28C34.9395 20.7 43.2595 20.37 49.3795 20.28V35.48H38.3795V36.78C38.0528 36.6959 37.7169 36.6522 37.3795 36.65C37.5269 35.769 38.0065 34.978 38.7195 34.44C38.8195 34.33 38.9295 34.08 38.7195 34.08C36.7195 34.25 35.8495 36.33 35.7195 36.85C35.5395 36.85 34.4695 37.14 34.1195 37.24C34.1696 36.5783 34.3639 35.9356 34.6887 35.3569C35.0134 34.7782 35.4608 34.2775 35.9995 33.89C36.2095 33.75 36.2795 33.54 35.9995 33.54C33.6195 33.59 32.3095 37.19 32.1795 37.78C31.5404 38.0461 30.9162 38.3465 30.3095 38.68C30.1395 35.91 32.4495 34.02 32.5795 33.88C32.7095 33.74 32.8295 33.5 32.5195 33.57C29.5195 33.98 28.6795 38.78 28.6295 39.36C28.5795 39.94 28.0695 39.69 27.9595 39.63C27.8125 39.5554 27.6493 39.5183 27.4844 39.522C27.3196 39.5257 27.1582 39.5701 27.0147 39.6513C26.8712 39.7324 26.7499 39.8478 26.6618 39.9872C26.5737 40.1265 26.5214 40.2855 26.5095 40.45C26.4999 40.5297 26.4999 40.6103 26.5095 40.69C26.3285 40.7644 26.1732 40.8902 26.063 41.052C25.9528 41.2137 25.8925 41.4043 25.8895 41.6C25.8892 41.8568 25.9877 42.1038 26.1645 42.29C26.3414 42.4762 26.5831 42.5872 26.8395 42.6C27.0461 42.6064 27.2481 42.539 27.4095 42.41C27.5007 42.5111 27.6117 42.5926 27.7355 42.6493C27.8593 42.7061 27.9934 42.7369 28.1295 42.74C28.6595 42.74 29.2795 42.33 29.3095 41.26C32.8195 38.96 35.3695 38.33 36.8895 38.34C37.8895 38.34 38.1795 38.54 38.3795 38.72V43.3C37.4414 43.8065 36.6068 44.485 35.9195 45.3C35.5871 45.2659 35.252 45.2659 34.9195 45.3C35.084 44.5011 35.4258 43.7493 35.9195 43.1C35.9995 43.03 36.0795 42.84 35.9195 42.84C34.4595 42.97 33.6895 45.22 33.5795 45.61C33.4495 45.61 32.7995 45.75 32.5795 45.82C32.6195 44.8329 33.0054 43.8913 33.6695 43.16C33.8295 43.05 33.8795 42.9 33.6695 42.9C31.8895 42.9 31.1395 46.29 31.0395 46.73C30.6347 46.9413 30.2439 47.1785 29.8695 47.44C29.7934 46.0994 30.1171 44.7664 30.7995 43.61C30.9095 43.51 30.9795 43.33 30.7995 43.38C28.6395 43.99 28.6995 48.02 28.6595 48.45C28.6195 48.88 28.3195 48.66 28.2295 48.62C28.1168 48.5556 27.9894 48.5212 27.8595 48.52C27.6686 48.52 27.4854 48.5959 27.3504 48.7309C27.2154 48.8659 27.1395 49.049 27.1395 49.24C27.13 49.2963 27.13 49.3537 27.1395 49.41C27.0039 49.4687 26.8877 49.5647 26.8044 49.6868C26.7212 49.809 26.6744 49.9523 26.6695 50.1C26.6695 50.291 26.7454 50.4741 26.8804 50.6091C27.0154 50.7441 27.1986 50.82 27.3895 50.82C27.5412 50.8215 27.6891 50.7722 27.8095 50.68C27.8778 50.7554 27.9612 50.8158 28.0542 50.8571C28.1472 50.8984 28.2478 50.9198 28.3495 50.92C28.7495 50.92 29.2095 50.62 29.2395 49.81C30.8433 47.9548 33.0694 46.7492 35.4995 46.42C36.5751 46.3039 37.653 46.6165 38.4995 47.29V52.49H23.4995L21.2595 24.28ZM38.4195 46.11C38.1759 45.7913 37.8821 45.5144 37.5495 45.29C37.7649 44.7809 38.0584 44.3085 38.4195 43.89V46.11ZM27.2595 69.41C25.6578 66.8126 24.5745 63.9295 24.0695 60.92H40.4195C41.4247 62.3924 42.7642 63.6059 44.3286 64.4611C45.8929 65.3162 47.6375 65.7888 49.4195 65.84V69.43L27.2595 69.41ZM34.6295 78.13H49.3795V88.2C44.0684 85.4612 39.1145 82.0791 34.6295 78.13ZM39.6295 54.32V36.72H60.3295V54.32C60.3295 57.065 59.2391 59.6976 57.2981 61.6386C55.3571 63.5796 52.7245 64.67 49.9795 64.67C47.2345 64.67 44.602 63.5796 42.661 61.6386C40.72 59.6976 39.6295 57.065 39.6295 54.32ZM75.9995 60.81C74.0895 73 61.4295 82.51 50.6195 88.22V65.82C52.267 65.754 53.882 65.3417 55.3595 64.61V64.92C55.1479 65.4737 55.0264 66.0578 54.9995 66.65C54.9614 66.8138 54.8602 66.9561 54.718 67.0459C54.5758 67.1357 54.4039 67.1659 54.2395 67.13C54.1105 67.05 53.9613 67.0084 53.8095 67.01C53.5832 67.01 53.3659 67.0992 53.2049 67.2583C53.0439 67.4175 52.9522 67.6337 52.9495 67.86C52.9401 67.9297 52.9401 68.0003 52.9495 68.07C52.8062 68.1273 52.685 68.2293 52.604 68.3607C52.523 68.4921 52.4863 68.6462 52.4995 68.8C52.4913 68.9078 52.5053 69.0162 52.5407 69.1184C52.5761 69.2206 52.6321 69.3145 52.7052 69.3942C52.7783 69.4739 52.867 69.5377 52.9658 69.5817C53.0646 69.6257 53.1714 69.6489 53.2795 69.65C53.4695 69.65 53.5995 69.65 53.7395 69.57C53.8214 69.6579 53.9205 69.7281 54.0306 69.7762C54.1406 69.8244 54.2594 69.8495 54.3795 69.85C54.8495 69.85 55.0895 69.73 55.1295 68.77C58.2695 67.1 63.0595 65.83 65.1295 65.94C67.5295 66.07 69.2695 68.48 69.4495 68.63C69.6295 68.78 69.7895 68.79 69.7595 68.54C69.6687 67.7278 69.3659 66.9538 68.8815 66.2956C68.397 65.6374 67.748 65.1182 66.9995 64.79C67.1495 64.14 68.2895 64.02 68.4995 63.92C68.7095 63.82 68.7195 63.64 68.4995 63.64C67.9901 63.5503 67.4672 63.5737 66.9678 63.7085C66.4684 63.8433 66.0047 64.0862 65.6095 64.42C65.0845 64.3305 64.5519 64.2936 64.0195 64.31C64.2155 63.5084 64.686 62.8007 65.3495 62.31C65.2495 62.4 65.5395 62.07 65.3495 62.07C64.6964 62.1891 64.0845 62.473 63.5717 62.8947C63.059 63.3165 62.6624 63.8621 62.4195 64.48C62.2695 64.48 60.4195 64.82 60.0795 64.91C60.3695 63.09 62.4295 61.85 62.6195 61.73C62.8095 61.61 62.8595 61.42 62.6195 61.42C60.0195 61.5 58.1195 64.86 58.0195 65.57C57.567 65.7257 57.1259 65.9128 56.6995 66.13C56.5295 65.3542 56.6137 64.5443 56.9395 63.82L57.1095 63.46C58.4172 62.4659 59.4938 61.2002 60.2655 59.7501C61.0372 58.3 61.4855 56.6999 61.5795 55.06V53.6L76.4995 53.55L75.9995 60.81ZM76.5895 52.4H61.5895V43.9H77.2195L76.5895 52.4ZM77.8895 35.58H61.5795V35.21H50.5795V26.56L78.4695 26.72L77.8895 35.58ZM49.9995 19C42.8995 19 34.7895 19.54 21.1495 22.95L20.5795 15.29C30.1921 12.7906 40.0686 11.4478 49.9995 11.29C59.9304 11.4478 69.807 12.7906 79.4195 15.29L78.8495 22.95C65.2095 19.5 57.0995 19 49.9995 19Z" fill="#3C3C41"/>
<path d="M64.2095 71.87C64.3295 71.35 65.1295 71.1 65.2995 71.02C65.4695 70.94 65.4695 70.8 65.2995 70.8C64.8734 70.7359 64.4385 70.7643 64.0243 70.8834C63.6102 71.0025 63.2265 71.2094 62.8995 71.49C62.4833 71.4213 62.0611 71.3945 61.6395 71.41C61.7795 70.77 62.7995 70.19 63.3595 69.73C63.2795 69.8 63.4995 69.53 63.3595 69.53C62.7458 69.5972 62.1581 69.8149 61.6487 70.1638C61.1394 70.5127 60.724 70.982 60.4395 71.53C60.3195 71.53 59.0895 71.8 58.8395 71.87C59.0595 70.42 60.8395 69.46 61.0195 69.37C61.1995 69.28 61.2195 69.12 61.0195 69.12C58.9395 69.19 57.2295 71.76 57.1495 72.33C56.7091 72.4764 56.2783 72.65 55.8595 72.85C55.6995 71.1 57.6695 69.53 57.4995 69.69C57.5995 69.6 57.6795 69.42 57.4995 69.47C55.3995 69.77 54.4995 72.83 54.4995 73.24C54.4995 73.65 53.9795 73.66 53.8995 73.62C53.796 73.5512 53.6737 73.5163 53.5495 73.52C53.37 73.5226 53.1985 73.5951 53.0716 73.722C52.9446 73.849 52.8721 74.0205 52.8695 74.2C52.8592 74.2562 52.8592 74.3138 52.8695 74.37C52.7532 74.4153 52.6549 74.4976 52.5899 74.6042C52.5249 74.7108 52.4966 74.8358 52.5095 74.96C52.5041 75.0457 52.516 75.1316 52.5445 75.2126C52.573 75.2936 52.6175 75.368 52.6753 75.4315C52.7332 75.4949 52.8032 75.5461 52.8812 75.5819C52.9593 75.6177 53.0437 75.6375 53.1295 75.64C53.2573 75.6609 53.3883 75.6361 53.4995 75.57C53.5653 75.6426 53.6456 75.7006 53.7351 75.7402C53.8247 75.7798 53.9216 75.8002 54.0195 75.8C54.3895 75.8 54.5795 75.7 54.6095 74.93C57.0545 73.6562 59.746 72.9262 62.4995 72.79C63.8087 72.9303 65.0369 73.4918 65.9995 74.39C66.1395 74.52 66.2695 74.52 66.2395 74.32C66.1166 73.7812 65.8688 73.2789 65.5162 72.8533C65.1636 72.4278 64.7161 72.091 64.2095 71.87Z" fill="#3C3C41"/>
<path d="M60.0695 77.82C60.1071 77.687 60.1718 77.5633 60.2596 77.4566C60.3474 77.3499 60.4563 77.2625 60.5795 77.2C60.6695 77.2 60.6995 77.05 60.5795 77.05C60.3149 77.0085 60.044 77.0396 59.7957 77.14C59.5474 77.2404 59.331 77.4063 59.1695 77.62C58.9402 77.5949 58.7088 77.5949 58.4795 77.62C58.6888 77.1149 59.0352 76.6785 59.4795 76.36C59.4295 76.36 59.5795 76.22 59.4795 76.22C58.4795 76.22 57.4095 77.58 57.3395 77.84C57.0482 77.8979 56.7609 77.9747 56.4795 78.07C56.5675 77.428 56.8665 76.8334 57.3295 76.38C57.4395 76.31 57.4695 76.21 57.3295 76.21C55.9095 76.26 55.4295 78.05 55.3795 78.44C55.1375 78.5267 54.9004 78.6268 54.6695 78.74C54.5822 77.9707 54.7777 77.1958 55.2195 76.56C55.2895 76.5 55.3395 76.38 55.2195 76.41C53.9195 76.64 53.7795 78.79 53.7495 79.06C53.7414 79.1049 53.7241 79.1476 53.6986 79.1855C53.6731 79.2233 53.6401 79.2555 53.6015 79.2799C53.563 79.3043 53.5198 79.3205 53.4747 79.3274C53.4296 79.3343 53.3836 79.3318 53.3395 79.32C53.2661 79.2794 53.1834 79.2587 53.0995 79.26C52.9783 79.2626 52.8628 79.3118 52.7771 79.3976C52.6914 79.4833 52.6421 79.5988 52.6395 79.72C52.6289 79.7593 52.6289 79.8007 52.6395 79.84C52.5608 79.8716 52.4942 79.9273 52.4493 79.9992C52.4044 80.0711 52.3834 80.1554 52.3895 80.24C52.3854 80.2989 52.3935 80.3581 52.4132 80.4138C52.433 80.4695 52.464 80.5205 52.5044 80.5636C52.5447 80.6068 52.5935 80.6412 52.6477 80.6646C52.702 80.6881 52.7604 80.7001 52.8195 80.7C52.9195 80.7 52.9895 80.7 53.0695 80.7C53.1149 80.7471 53.1693 80.7846 53.2294 80.8104C53.2895 80.8362 53.3541 80.8496 53.4195 80.85C53.6795 80.85 53.9295 80.75 53.9395 80.22C55.5048 79.2472 57.2895 78.6833 59.1295 78.58C59.9556 78.62 60.7547 78.8864 61.4395 79.35C61.5395 79.44 61.6295 79.44 61.6095 79.35C61.4895 78.72 61.0595 78.3 60.0695 77.82Z" fill="#3C3C41"/>
<path d="M57.4895 52.93C57.9195 53.13 58.8795 53.09 58.9995 52.82C59.091 52.5168 59.091 52.1932 58.9995 51.89C59.2695 51.66 59.4595 51.16 59.3095 50.89C59.2209 50.7693 59.1606 50.6303 59.1329 50.4832C59.1052 50.3361 59.1109 50.1846 59.1495 50.04C58.8795 50.04 58.5895 49.77 58.7795 49.59C58.9497 49.4683 59.0796 49.2986 59.1526 49.1026C59.2257 48.9067 59.2385 48.6933 59.1895 48.49C59.2495 48.16 59.2695 47.76 58.7095 47.78C58.7095 47.57 58.5095 46.87 57.6395 47.51C57.5095 47.6 57.3595 47.39 57.5495 47.33C57.7395 47.27 58.7495 46.95 58.8995 46.6C58.9514 46.4977 58.9784 46.3847 58.9784 46.27C58.9784 46.1553 58.9514 46.0423 58.8995 45.94C58.9969 45.7668 59.0255 45.5633 58.9795 45.37C58.8995 45.25 58.5895 45.27 58.3795 45.79C58.1695 46.31 58.2195 46.31 57.6595 46.41C57.0995 46.51 56.6595 46.41 56.3095 47.03C56.2071 47.2255 56.0554 47.391 55.8695 47.51C55.7511 47.5733 55.6477 47.6615 55.5666 47.7685C55.4854 47.8755 55.4285 47.9988 55.3995 48.13C55.3995 48.34 55.5595 48.72 55.5195 48.99C55.4493 49.2589 55.4613 49.5427 55.554 49.8048C55.6467 50.0668 55.8158 50.2951 56.0395 50.46C56.3895 50.85 56.9095 51.35 56.5195 51.74C56.1295 52.13 55.7895 51.74 55.5195 51.52C54.9472 51.2268 54.3126 51.0758 53.6695 51.08C52.5755 51.0202 51.5075 50.7234 50.5395 50.21C50.0595 49.81 50.3495 49.6 50.5995 49.48C50.7673 49.4179 50.9038 49.2921 50.9795 49.13C51.0184 49.0517 51.0807 48.9874 51.1577 48.9462C51.2348 48.905 51.3228 48.8888 51.4095 48.9C51.5795 48.9 51.7595 48.9 51.9095 48.49C52.0595 48.08 52.2195 48.26 52.3895 48.22C52.4415 48.1992 52.4861 48.1633 52.5174 48.117C52.5488 48.0707 52.5656 48.016 52.5656 47.96C52.5656 47.904 52.5488 47.8493 52.5174 47.803C52.4861 47.7566 52.4415 47.7208 52.3895 47.7C52.0795 47.59 51.9095 47.47 51.9295 47.35C51.9731 47.2451 52.0446 47.1542 52.1363 47.0872C52.228 47.0202 52.3364 46.9796 52.4495 46.97C52.7395 46.97 52.7595 46.76 52.7395 46.6C52.7205 46.5284 52.7296 46.4523 52.765 46.3872C52.8003 46.3222 52.8592 46.2731 52.9295 46.25C53.1295 46.16 53.1095 45.93 52.7795 45.83C52.4495 45.73 51.9995 45.66 51.9995 45.5C52.0252 45.3895 52.0766 45.2865 52.1496 45.1996C52.2226 45.1128 52.3151 45.0443 52.4195 45C52.6395 44.92 52.7295 44.59 52.2495 44.61C51.7695 44.63 51.4995 44.69 51.3995 44.38C51.2995 44.07 51.2795 43.9 51.7895 43.71C51.9995 43.65 52.0595 43.36 51.6695 43.38C51.2795 43.4 50.8395 43.59 50.6695 43.46C50.4995 43.33 50.5695 43.2 50.6695 43.15C50.6936 43.1314 50.7109 43.1054 50.7189 43.0761C50.7269 43.0467 50.7252 43.0155 50.7139 42.9873C50.7026 42.959 50.6824 42.9352 50.6563 42.9195C50.6303 42.9037 50.5998 42.8969 50.5695 42.9C50.4695 42.9 50.2395 42.97 50.0095 43.01C49.7795 43.05 49.5295 43.08 49.4295 43.01C49.3442 42.8983 49.2224 42.8201 49.0853 42.789C48.9483 42.758 48.8047 42.776 48.6795 42.84C48.63 42.8585 48.5859 42.889 48.551 42.9288C48.5162 42.9685 48.4917 43.0163 48.4798 43.0678C48.4679 43.1193 48.469 43.1729 48.4829 43.2239C48.4968 43.2749 48.5231 43.3217 48.5595 43.36C48.5733 43.3725 48.5845 43.3875 48.5925 43.4043C48.6004 43.4212 48.605 43.4394 48.606 43.4579C48.6069 43.4765 48.6041 43.4951 48.5979 43.5126C48.5916 43.5301 48.582 43.5462 48.5695 43.56C48.5571 43.5738 48.542 43.585 48.5252 43.5929C48.5084 43.6009 48.4902 43.6055 48.4716 43.6064C48.453 43.6073 48.4345 43.6046 48.4169 43.5984C48.3994 43.5921 48.3833 43.5825 48.3695 43.57C48.323 43.5396 48.2879 43.4947 48.2698 43.4421C48.2517 43.3896 48.2516 43.3326 48.2695 43.28C48.2292 43.1458 48.14 43.0316 48.0195 42.96C47.8895 42.88 47.8895 42.67 47.9295 42.53C47.9695 42.39 47.8095 42.26 47.5795 42.4C47.4443 42.4538 47.3347 42.5574 47.2733 42.6894C47.212 42.8214 47.2035 42.9719 47.2495 43.11C46.9995 43.11 46.3595 43.28 46.3395 43.48C46.3195 43.68 46.4195 43.88 46.3395 43.96C46.2595 44.04 46.0895 44.04 45.9695 44.11C45.6495 44.44 45.0895 44.75 44.9695 44.89C44.8495 45.03 44.7395 45.16 44.5695 45.37C44.4967 45.4325 44.4457 45.5167 44.4241 45.6103C44.4025 45.7038 44.4114 45.8019 44.4495 45.89C44.6595 46.2 44.8395 45.99 44.9495 46.16C45.0595 46.33 45.0695 46.37 45.0495 46.47C45.0295 46.57 45.2595 46.78 45.6095 46.47C45.9595 46.16 46.2095 45.87 46.4795 46.2C46.7495 46.53 46.4795 46.72 46.3795 46.93C46.2795 47.14 45.6095 47.93 45.3795 48.09C45.087 48.4214 44.8992 48.832 44.8395 49.27C44.8085 49.5202 44.7001 49.7544 44.5295 49.94C44.0765 49.7974 43.6456 49.5921 43.2495 49.33C43.1951 49.2666 43.1276 49.2157 43.0516 49.1808C42.9757 49.1459 42.8931 49.1279 42.8095 49.1279C42.726 49.1279 42.6434 49.1459 42.5674 49.1808C42.4915 49.2157 42.424 49.2666 42.3695 49.33C41.9926 49.8031 41.658 50.3084 41.3695 50.84C41.1995 51.24 40.9295 51.09 40.9295 51.84C40.9295 52.11 40.7195 52.23 40.5995 52.65C40.5995 52.77 40.2695 53.48 40.5995 53.65C40.7316 53.706 40.8792 53.7136 41.0164 53.6716C41.1536 53.6295 41.2715 53.5404 41.3495 53.42C41.4196 53.091 41.4598 52.7563 41.4695 52.42C41.5695 52.13 41.8695 51.79 41.9095 51.61C41.9495 51.43 41.9095 51.3 42.0095 51.13C42.1807 50.9099 42.3679 50.7027 42.5695 50.51C42.6231 50.4567 42.6895 50.4182 42.7622 50.398C42.835 50.3778 42.9118 50.3767 42.9851 50.3948C43.0585 50.4129 43.1259 50.4495 43.181 50.5012C43.236 50.5529 43.2769 50.6179 43.2995 50.69C43.5195 51.15 43.8795 52.17 44.6195 52.48C44.1863 52.692 43.7299 52.8531 43.2595 52.96C42.8995 53.04 42.6095 53.1 42.7595 53.96C42.8961 54.4748 42.9435 55.0092 42.8995 55.54C42.8277 55.7984 42.8289 56.0717 42.903 56.3294C42.9772 56.5872 43.1213 56.8193 43.3195 57L43.7995 57.67C43.9995 57.85 44.4595 58.04 44.4995 57.67C44.5395 57.3 44.6495 56.89 44.2695 56.85C44.1308 56.8018 44.0108 56.7111 43.9264 56.5908C43.8421 56.4706 43.7977 56.3269 43.7995 56.18C43.8333 55.8554 43.7595 55.5286 43.5895 55.25C43.4357 54.9766 43.3893 54.6557 43.4595 54.35C43.5295 54.06 43.7495 53.88 44.2295 53.98C44.7095 54.08 46.3895 54.6 46.9295 53.98C47.8889 54.4713 48.9288 54.7863 49.9995 54.91C50.2486 54.9398 50.5004 54.9398 50.7495 54.91C51.0175 55.466 51.3534 55.9867 51.7495 56.46C51.9076 56.6542 51.9871 56.9006 51.9723 57.1506C51.9575 57.4005 51.8495 57.6359 51.6695 57.81C51.2461 58.2228 50.7558 58.5609 50.2195 58.81L49.9995 58.9C49.7157 58.9685 49.4562 59.1138 49.2495 59.32C48.9995 59.58 48.8395 59.58 48.6895 59.9C48.5395 60.22 48.1895 60.81 48.7495 60.81C49.3095 60.81 49.4595 60.54 49.4995 60.39C49.5395 60.24 49.4995 59.9 49.7095 59.85L49.9995 59.78C50.3884 59.7105 50.7416 59.5092 50.9995 59.21C51.4583 58.7525 52.0433 58.4426 52.6795 58.32C52.7419 58.3073 52.801 58.2819 52.8531 58.2452C52.9051 58.2085 52.949 58.1614 52.9819 58.1069C53.0148 58.0523 53.036 57.9916 53.0442 57.9284C53.0524 57.8653 53.0474 57.8011 53.0295 57.74C52.9953 57.5956 52.991 57.4457 53.0168 57.2995C53.0426 57.1534 53.098 57.014 53.1795 56.89C53.852 56.9995 54.4701 57.3261 54.9395 57.82C54.9877 57.9519 55.048 58.0791 55.1195 58.2C54.9795 58.44 54.7095 58.65 54.6095 58.88C54.4996 59.2717 54.2729 59.6205 53.9595 59.88C53.5917 60.1239 53.2558 60.4128 52.9595 60.74C52.7316 61.0478 52.6248 61.4286 52.6595 61.81C52.6595 62.23 52.8095 62.02 52.9995 62.02C53.1895 62.02 53.6395 61.81 53.6595 61.52C53.6795 61.23 53.5395 61.09 53.9495 60.92C54.4669 60.6692 54.906 60.2819 55.2195 59.8C55.4452 59.2936 55.7879 58.848 56.2195 58.5C56.5795 58.29 56.5095 57.98 56.3295 57.67C56.1495 57.36 55.5595 56.54 55.6795 56C55.7995 55.46 56.4295 55.13 56.6195 54.3C56.7985 53.8126 56.7985 53.2774 56.6195 52.79C56.9168 52.7236 57.2281 52.7737 57.4895 52.93Z" fill="#3C3C41"/>
<path d="M26.8095 34C26.9057 34.1187 27.0279 34.2138 27.1666 34.2779C27.3052 34.342 27.4568 34.3735 27.6095 34.37C28.1895 34.37 28.8795 33.92 28.9195 32.72C31.9952 30.6306 35.5626 29.3794 39.2695 29.09C40.8207 29.158 42.3082 29.7264 43.5095 30.71C43.7495 30.91 43.9395 30.91 43.8995 30.6C43.7095 29.36 42.0495 28.24 41.4695 27.93C41.7605 27.2117 42.2242 26.5762 42.8195 26.08C42.9695 25.93 43.0895 25.73 42.8195 25.73C41.6012 25.8822 40.4914 26.5071 39.7295 27.47C39.1512 27.4085 38.5679 27.4085 37.9895 27.47C38.1444 26.2963 38.7374 25.2247 39.6495 24.47C39.7695 24.35 39.8795 24.16 39.6495 24.16C37.4895 24.35 36.2895 27.16 36.1395 27.75C35.9495 27.75 34.7095 27.98 34.3295 28.1C34.4077 27.3194 34.6429 26.5627 35.021 25.8753C35.399 25.1879 35.9122 24.584 36.5295 24.1C36.7595 23.95 36.8395 23.72 36.5295 23.72C33.6695 23.79 32.3995 27.92 32.2795 28.81C31.501 29.1406 30.7399 29.511 29.9995 29.92C29.9289 28.8541 30.1082 27.7864 30.5232 26.802C30.9381 25.8176 31.5772 24.9437 32.3895 24.25C32.5495 24.09 32.6595 23.82 32.3195 23.9C29.0295 24.36 28.1895 30.04 28.1295 30.68C28.0695 31.32 27.5095 31.04 27.3795 30.98C27.2146 30.8777 27.0235 30.8256 26.8295 30.83C26.5484 30.83 26.2788 30.9417 26.08 31.1405C25.8812 31.3393 25.7695 31.6089 25.7695 31.89C25.7544 31.976 25.7544 32.064 25.7695 32.15C25.5721 32.2361 25.4023 32.375 25.2788 32.5515C25.1553 32.7279 25.0829 32.935 25.0695 33.15C25.0722 33.432 25.1861 33.7016 25.3864 33.9001C25.5868 34.0987 25.8575 34.21 26.1395 34.21C26.3809 34.2233 26.6189 34.1487 26.8095 34Z" fill="#3C3C41"/>
<path d="M45.2395 15.32C45.4631 14.9734 45.5876 14.5723 45.5995 14.16C45.5995 12.77 44.7095 12.57 43.6995 12.65L38.1595 13L38.3095 18.33L39.6395 18.27V16.13L43.3295 15.89C44.0495 15.84 44.4795 16.33 44.4795 17.11V17.9L45.8195 17.83V17C45.8482 16.6948 45.8113 16.387 45.7113 16.0973C45.6112 15.8075 45.4504 15.5425 45.2395 15.32ZM43.5195 14.75L39.5195 14.97V14.12L43.5195 13.91C43.8295 13.91 43.9595 14.03 43.9695 14.31C43.9795 14.59 43.7895 14.73 43.5195 14.75Z" fill="#3C3C41"/>
<path d="M27.2395 15L21.7395 16.24L22.1195 21.6L23.4595 21.29L23.2795 19.17L27.8995 18.17C28.7595 17.97 28.9995 17.45 28.9595 16.22C28.9195 14.99 27.9295 14.87 27.2395 15ZM27.0495 17.08L23.1995 18V17.21L26.8995 16.38C27.2895 16.31 27.4295 16.5 27.4395 16.63C27.4456 16.743 27.4088 16.8542 27.3365 16.9413C27.2642 17.0284 27.1617 17.0851 27.0495 17.1V17.08Z" fill="#3C3C41"/>
<path d="M37.3595 14.71C37.3595 13.71 36.1395 13.34 35.5995 13.44L31.1395 14.17C29.7695 14.38 29.7895 15.12 29.7895 15.62L29.8495 18.05C29.8495 19.44 31.0795 19.56 31.8495 19.42L35.9995 18.76C37.4395 18.55 37.4795 17.84 37.4595 17.3L37.3595 14.71ZM35.3595 17.63L31.9995 18.17C31.5395 18.24 31.2295 18.26 31.1895 17.66V16.22C31.1895 15.81 31.1895 15.42 31.8795 15.29L35.2995 14.71C35.3876 14.6927 35.4784 14.6945 35.5658 14.7152C35.6531 14.7358 35.7351 14.775 35.8061 14.8299C35.8771 14.8848 35.9356 14.9543 35.9776 15.0336C36.0195 15.113 36.0441 15.2004 36.0495 15.29V16.87C36.0553 17.0597 35.9879 17.2444 35.8613 17.3858C35.7348 17.5273 35.5587 17.6147 35.3695 17.63H35.3595Z" fill="#3C3C41"/>
<path d="M52.8595 14.61H48.6095C48.4875 14.61 48.3705 14.5615 48.2843 14.4753C48.198 14.389 48.1495 14.272 48.1495 14.15C48.1495 14.028 48.198 13.911 48.2843 13.8247C48.3705 13.7385 48.4875 13.69 48.6095 13.69H54.0495V12.53H47.9995C47.6895 12.53 46.6495 12.6 46.6595 14.17C46.6695 15.74 47.7695 15.77 47.9995 15.77H52.2695C52.3308 15.77 52.3914 15.7822 52.4479 15.8059C52.5044 15.8297 52.5555 15.8645 52.5984 15.9082C52.6412 15.952 52.6749 16.0039 52.6974 16.0609C52.7199 16.1179 52.7309 16.1788 52.7295 16.24C52.7283 16.2982 52.7153 16.3556 52.6912 16.4087C52.6672 16.4617 52.6326 16.5093 52.5896 16.5486C52.5465 16.5879 52.496 16.618 52.441 16.6372C52.386 16.6563 52.3276 16.6641 52.2695 16.66H46.7995V17.82H52.8595C53.2395 17.82 54.2595 17.88 54.2595 16.21C54.2595 14.54 53.1195 14.61 52.8595 14.61Z" fill="#3C3C41"/>
<path d="M69.2295 16.24L64.7495 15.39L64.8595 13.38L63.5895 13.19L63.2595 18.67L64.5395 18.84L64.6895 16.49L69.1695 17.34L69.0195 19.57L70.2895 19.81L70.6195 14.34L69.3595 14.11L69.2295 16.24Z" fill="#3C3C41"/>
<path d="M71.4895 19.98L77.5295 21.27L77.6295 20.17L72.8395 19.15L72.8995 18.05L77.6995 19.07L77.7795 17.97L72.9695 16.95L73.0095 15.95L77.8595 16.97L77.9295 15.87L71.7995 14.57L71.4895 19.98Z" fill="#3C3C41"/>
<path d="M55.2895 14.15C55.2095 15.73 55.1695 16.45 55.1695 16.45C55.1545 16.64 55.1774 16.8311 55.2369 17.0122C55.2963 17.1933 55.3911 17.3608 55.5157 17.5049C55.6404 17.6491 55.7924 17.7671 55.963 17.8521C56.1336 17.9371 56.3194 17.9874 56.5095 18L62.1395 18.43L62.1995 17.23L57.4895 16.88C57.0495 16.88 56.5595 16.73 56.5995 15.88V14.72C56.5995 14.26 56.7695 13.83 57.5095 13.89L62.3295 14.28L62.3895 13.08L56.7395 12.63C56.2895 12.61 55.3695 12.57 55.2895 14.15Z" fill="#3C3C41"/>
<path d="M41.5895 40.59C41.2895 40.59 41.1395 40.45 41.0795 40.12H40.6195C40.6159 40.3063 40.6644 40.4898 40.7595 40.65C40.8445 40.7879 40.9663 40.8993 41.1111 40.9718C41.256 41.0442 41.4182 41.0748 41.5795 41.06C41.6894 41.0688 41.7999 41.0557 41.9046 41.0214C42.0094 40.987 42.1062 40.9322 42.1895 40.86C42.283 40.7756 42.3573 40.6721 42.4073 40.5565C42.4573 40.4409 42.482 40.3159 42.4795 40.19C42.4937 40.0358 42.4549 39.8814 42.3694 39.7523C42.284 39.6232 42.157 39.5272 42.0095 39.48L41.2795 39.14C41.2353 39.1245 41.1965 39.0963 41.1681 39.059C41.1396 39.0217 41.1228 38.9768 41.1195 38.93C41.1195 38.74 41.2895 38.61 41.5195 38.61C41.7495 38.61 41.9095 38.73 41.9495 39.04H42.4095C42.4202 38.9191 42.4043 38.7974 42.3629 38.6833C42.3214 38.5693 42.2555 38.4657 42.1697 38.3799C42.0839 38.2941 41.9803 38.2281 41.8662 38.1867C41.7522 38.1452 41.6304 38.1293 41.5095 38.14C41.3964 38.1325 41.283 38.1494 41.177 38.1896C41.071 38.2298 40.9749 38.2923 40.8952 38.373C40.8155 38.4536 40.7541 38.5504 40.7152 38.6569C40.6762 38.7634 40.6607 38.877 40.6695 38.99C40.6574 39.1385 40.6938 39.287 40.7731 39.4132C40.8524 39.5394 40.9704 39.6365 41.1095 39.69L41.8195 40.02C41.9695 40.09 42.0195 40.15 42.0195 40.26C42.0195 40.37 41.8495 40.59 41.5895 40.59Z" fill="#3C3C41"/>
<path d="M43.3395 41H43.8195V38.7H44.4995V38.19H42.6495V38.7H43.3395V41Z" fill="#3C3C41"/>
<path d="M45.7595 41.06C46.4995 41.06 46.6895 40.57 46.6895 39.93V38.19H46.2195V39.92C46.2195 40.38 46.0895 40.55 45.7495 40.55C45.4095 40.55 45.3095 40.37 45.3095 39.92V38.19H44.8295V39.93C44.8295 40.58 44.9995 41.06 45.7595 41.06Z" fill="#3C3C41"/>
<path d="M47.6395 41H48.1195V38.7H48.7995V38.19H46.9395V38.7H47.6395V41Z" fill="#3C3C41"/>
<path d="M51.8795 41.06C52.0209 41.0606 52.1598 41.0228 52.2813 40.9506C52.4029 40.8783 52.5025 40.7745 52.5695 40.65V41H52.9995V39.48H51.9995V40H52.5195C52.4595 40.38 52.2595 40.59 51.9595 40.59C51.6595 40.59 51.3195 40.21 51.3195 39.64C51.3195 39.07 51.5695 38.64 51.9595 38.64C52.3495 38.64 52.3795 38.78 52.4695 39.08H52.9995C52.9842 38.8253 52.8721 38.5861 52.6862 38.4114C52.5003 38.2366 52.2547 38.1395 51.9995 38.14C51.3195 38.14 50.8695 38.73 50.8695 39.62C50.8695 40.51 51.2595 41.06 51.8795 41.06Z" fill="#3C3C41"/>
<path d="M53.8695 40.41H54.7095L54.8695 41H55.3895L54.5695 38.19H53.9995L53.2095 41H53.7095L53.8695 40.41ZM54.2895 38.83L54.5795 39.93H53.9995L54.2895 38.83Z" fill="#3C3C41"/>
<path d="M56.1295 39.89H56.5595C56.9995 39.89 56.9495 40.15 56.9595 40.56C56.9468 40.7079 56.9604 40.8568 56.9995 41H57.5295C57.4595 40.92 57.4395 40.85 57.4295 40.39C57.4195 39.93 57.4295 39.77 57.1595 39.65C57.2751 39.5885 57.3693 39.4935 57.43 39.3775C57.4907 39.2616 57.5149 39.13 57.4995 39C57.505 38.8811 57.4866 38.7623 57.4454 38.6507C57.4042 38.539 57.341 38.4368 57.2595 38.35C57.1195 38.22 56.9995 38.19 56.6695 38.19H55.6695V41H56.1495L56.1295 39.89ZM56.1295 38.7H56.5795C56.9095 38.7 57.0095 38.78 57.0095 39.05C57.0095 39.32 56.8995 39.42 56.5795 39.42H56.1295V38.7Z" fill="#3C3C41"/>
<path d="M58.4595 41H58.9395V38.7H59.6195V38.19H57.7595V38.7H58.4595V41Z" fill="#3C3C41"/>
<path d="M49.7295 41H50.1995V38.7H50.8795V38.19H49.0295V38.7H49.7295V41Z" fill="#3C3C41"/>
</svg>
