<svg width="23" height="20" viewBox="0 0 23 20" fill="none" xmlns="http://www.w3.org/2000/svg">
<path fill-rule="evenodd" clip-rule="evenodd" d="M11.9868 2.50354C10.6999 1.11326 9.26532 -0.0011497 6.97451 -0.000976542C3.66918 -0.000750266 0.974664 2.69685 0.974609 5.99881C0.974583 7.69244 1.53427 9.46575 2.75688 10.6953L11.2476 19.6855C11.4473 19.8969 11.7173 20.002 11.9868 19.9988C12.2564 20.002 12.5264 19.8969 12.726 19.6855L21.2168 10.6953C22.4394 9.46575 22.9991 7.69244 22.999 5.99881C22.999 2.69685 20.3045 -0.000750266 16.9991 -0.000976542C14.7083 -0.0011497 13.2738 1.11326 11.9868 2.50354ZM11.9868 17.5554L4.2016 9.31223C4.19506 9.30531 4.18842 9.29848 4.18169 9.29175C3.41167 8.52172 2.97459 7.30038 2.97461 5.99885C2.97464 3.80086 4.77434 1.99917 6.97465 1.99902C8.73391 1.99889 9.7188 2.90369 11.2146 4.64957C11.4153 4.88379 11.7008 5.00239 11.9868 4.99888C12.2729 5.00239 12.5584 4.88379 12.759 4.64957C14.2548 2.90369 15.2397 1.99889 16.999 1.99902C19.1993 1.99917 20.999 3.80086 20.999 5.99885C20.9991 7.30038 20.562 8.52172 19.792 9.29175C19.7852 9.29848 19.7786 9.30531 19.7721 9.31223L11.9868 17.5554Z" fill="#D7FF14"/>
</svg>
