<svg width="23" height="20" viewBox="0 0 23 20" fill="none" xmlns="http://www.w3.org/2000/svg">
<path d="M17.001 -0.000976549C20.3063 -0.000750273 23.0009 2.69706 23.001 5.99902C23.001 7.69258 22.4413 9.46579 21.2188 10.6953L12.7275 19.6855C12.528 19.8967 12.2585 20.0021 11.9893 19.999C11.7198 20.0022 11.4496 19.8968 11.25 19.6855L2.75879 10.6953C1.53625 9.46579 0.976583 7.69257 0.976562 5.99902C0.976617 2.69706 3.67123 -0.000750273 6.97656 -0.000976549C9.26732 -0.00111722 10.7023 1.11364 11.9893 2.50391C13.2762 1.11367 14.7103 -0.00111196 17.001 -0.000976549ZM17.001 1.99902C15.2417 1.99889 14.2566 2.90354 12.7607 4.64941C12.5602 4.88348 12.2751 5.0024 11.9893 4.99902C11.7032 5.00254 11.4175 4.88362 11.2168 4.64941C9.72097 2.90354 8.73582 1.99889 6.97656 1.99902C4.77627 1.9992 2.9766 3.80106 2.97656 5.99902C2.97658 7.30049 3.4136 8.522 4.18359 9.29199C4.19027 9.29867 4.19664 9.30563 4.20312 9.3125L11.9893 17.5557L19.7744 9.3125C19.7809 9.30564 19.7873 9.29867 19.7939 9.29199C20.5639 8.522 21.001 7.30049 21.001 5.99902C21.0009 3.80105 19.2013 1.99919 17.001 1.99902Z" fill="#BEBEC3"/>
</svg>
