<svg width="215" height="33" viewBox="0 0 215 33" fill="none" xmlns="http://www.w3.org/2000/svg">
<path d="M25.6 8.96137L18.5184 16.043L25.6 23.1246L16.6816 32.043H0V21.803H12.4384L18.1984 16.043L12.4384 10.283H0V0.0429688H16.6816L25.6 8.96137ZM55.44 19.1822C55.44 22.0238 53.1392 23.243 48.7008 23.243H35.84V8.84297H47.6416C52.6016 8.84297 54.3232 10.283 54.3232 12.523C54.3232 14.0846 53.3024 15.2046 51.904 15.803C54.2784 16.2638 55.44 17.3838 55.44 19.1822ZM39.84 14.603H47.7184C49.44 14.603 50.3168 14.363 50.3168 13.2846C50.3168 12.0046 49.1168 12.0046 47.5968 12.0046H39.84V14.603ZM51.44 18.763C51.44 17.6046 50.3808 17.403 48.6208 17.403H39.84V20.0846H49.1008C50.6592 20.0814 51.44 19.723 51.44 18.763ZM61.2416 8.84297H57.2416V23.243H71.6416V20.043H61.2416V8.84297ZM93.1584 16.043C93.1584 20.2414 96.7584 23.243 102.157 23.243H110.758V20.0046H102.198C99.2384 20.0046 97.1584 18.283 97.1584 16.043C97.1584 13.803 99.2384 12.0814 102.198 12.0814H110.758V8.84297H102.157C96.7616 8.84297 93.1584 11.8446 93.1584 16.043ZM189.158 19.0446L177.562 8.84297H173.162V23.243H177.162V13.243L188.56 23.243H193.162V8.84297H189.162V19.0446H189.158ZM153.562 23.243H170.362V20.043H157.562V17.483H169.562V14.4814H157.562V12.0014H170.362V8.84297H153.562V23.243ZM194.758 8.84297V12.043H202.598V23.243H206.598V12.043H214.4V8.84297H194.758ZM85.3792 8.84297L94.0384 23.243H89.52L87.92 20.443H78.6016L76.9632 23.243H72.4448L81.3856 8.84297H85.3792ZM86.2208 17.4446L83.3408 12.3854L80.3616 17.4446H86.2208ZM130.96 8.94217V8.84297H124.96L116.96 14.283V8.84297H112.96V23.243H116.96V17.483L125.158 23.243H131.36V23.1438L120.56 15.803L130.96 8.94217ZM146.202 18.3214L151.36 23.1438V23.243H146.16L141.398 18.683H136.56V23.243H132.56V8.84297H143.44C148.278 8.84297 150.96 10.5646 150.96 13.723C150.96 16.203 149.28 17.803 146.202 18.3214ZM147.002 13.6814C147.002 12.2414 145.882 12.0014 143.322 12.0014H136.563V15.563H143.322C145.882 15.563 147.002 15.1214 147.002 13.6814Z" fill="#1E1E23"/>
</svg>
