<svg width="476" height="816" viewBox="0 0 476 816" fill="none" xmlns="http://www.w3.org/2000/svg">
<path d="M129.28 163.999H0V243.359H96.4L141.04 287.999L96.4 332.639H0V411.999H129.28L198.4 342.879L143.52 287.999L198.4 233.119L129.28 163.999Z" fill="#0F0F14"/>
<path d="M129.28 491.999H0V571.359H96.4L141.04 615.999L96.4 660.639H0V739.999H129.28L198.4 670.879L143.52 615.999L198.4 561.119L129.28 491.999Z" fill="#0F0F14"/>
<path d="M129.28 819.999H0V899.359H96.4L141.04 943.999L96.4 988.639H0V1068H129.28L198.4 998.879L143.52 943.999L198.4 889.119L129.28 819.999Z" fill="#0F0F14"/>
<path d="M407.04 -0.000976562H277.76V79.359H374.16L418.8 123.999L374.16 168.639H277.76V247.999H407.04L476.16 178.879L421.28 123.999L476.16 69.119L407.04 -0.000976562Z" fill="#0F0F14"/>
<path d="M407.04 327.999H277.76V407.359H374.16L418.8 451.999L374.16 496.639H277.76V575.999H407.04L476.16 506.879L421.28 451.999L476.16 397.119L407.04 327.999Z" fill="#0F0F14"/>
<path d="M407.04 655.999H277.76V735.359H374.16L418.8 779.999L374.16 824.639H277.76V903.999H407.04L476.16 834.879L421.28 779.999L476.16 725.119L407.04 655.999Z" fill="#0F0F14"/>
</svg>
