<svg width="172" height="292" viewBox="0 0 172 292" fill="none" xmlns="http://www.w3.org/2000/svg">
<path d="M46.6989 59.2734H0V87.956H34.8219L50.9469 104.09L34.8219 120.224H0V148.906H46.6989L71.6667 123.925L51.8427 104.09L71.6667 84.255L46.6989 59.2734Z" fill="#0F0F14"/>
<path d="M46.6989 177.82H0V206.503H34.8219L50.9469 222.637L34.8219 238.771H0V267.453H46.6989L71.6667 242.472L51.8427 222.637L71.6667 202.802L46.6989 177.82Z" fill="#0F0F14"/>
<path d="M46.6989 296.367H0V325.05H34.8219L50.9469 341.184L34.8219 357.317H0V386H46.6989L71.6667 361.018L51.8427 341.184L71.6667 321.349L46.6989 296.367Z" fill="#0F0F14"/>
<path d="M147.032 0H100.333V28.6825H135.155L151.28 44.8165L135.155 60.9504H100.333V89.633H147.032L172 64.6514L152.176 44.8165L172 24.9816L147.032 0Z" fill="#0F0F14"/>
<path d="M147.032 118.547H100.333V147.229H135.155L151.28 163.363L135.155 179.497H100.333V208.18H147.032L172 183.198L152.176 163.363L172 143.528L147.032 118.547Z" fill="#0F0F14"/>
<path d="M147.032 237.094H100.333V265.776H135.155L151.28 281.91L135.155 298.044H100.333V326.727H147.032L172 301.745L152.176 281.91L172 262.075L147.032 237.094Z" fill="#0F0F14"/>
</svg>
