<svg width="121" height="24" viewBox="0 0 121 24" fill="none" xmlns="http://www.w3.org/2000/svg">
<g clip-path="url(#clip0_10914_21191)">
<g filter="url(#filter0_d_10914_21191)">
<path d="M11.4998 3.69496C11.8464 2.76835 13.1536 2.76835 13.5002 3.69496L15.2074 8.25929C15.3637 8.67731 15.7623 8.95425 16.2076 8.95425H20.4296C21.4288 8.95425 21.881 10.2068 21.1135 10.8481L18.0056 13.4447C17.6678 13.727 17.537 14.1879 17.6761 14.6062L19.3314 19.5852C19.6626 20.5813 18.5149 21.4107 17.6771 20.7807L13.1409 17.3697C12.7611 17.0841 12.2389 17.0841 11.8591 17.3697L7.32292 20.7807C6.48511 21.4107 5.33739 20.5813 5.66857 19.5852L7.32392 14.6062C7.46297 14.1879 7.33218 13.727 6.99437 13.4447L3.8865 10.8481C3.11895 10.2068 3.57125 8.95425 4.57036 8.95425H8.7924C9.23769 8.95425 9.63627 8.67731 9.79262 8.25929L11.4998 3.69496Z" fill="#F0FF98"/>
<path d="M11.4998 3.69496C11.8464 2.76835 13.1536 2.76835 13.5002 3.69496L15.2074 8.25929C15.3637 8.67731 15.7623 8.95425 16.2076 8.95425H20.4296C21.4288 8.95425 21.881 10.2068 21.1135 10.8481L18.0056 13.4447C17.6678 13.727 17.537 14.1879 17.6761 14.6062L19.3314 19.5852C19.6626 20.5813 18.5149 21.4107 17.6771 20.7807L13.1409 17.3697C12.7611 17.0841 12.2389 17.0841 11.8591 17.3697L7.32292 20.7807C6.48511 21.4107 5.33739 20.5813 5.66857 19.5852L7.32392 14.6062C7.46297 14.1879 7.33218 13.727 6.99437 13.4447L3.8865 10.8481C3.11895 10.2068 3.57125 8.95425 4.57036 8.95425H8.7924C9.23769 8.95425 9.63627 8.67731 9.79262 8.25929L11.4998 3.69496Z" stroke="#F0F0F5" stroke-linejoin="round"/>
</g>
</g>
<g clip-path="url(#clip1_10914_21191)">
<g filter="url(#filter1_d_10914_21191)">
<path d="M35.4998 3.69496C35.8464 2.76835 37.1536 2.76835 37.5002 3.69496L39.2074 8.25929C39.3637 8.67731 39.7623 8.95425 40.2076 8.95425H44.4296C45.4288 8.95425 45.881 10.2068 45.1135 10.8481L42.0056 13.4447C41.6678 13.727 41.537 14.1879 41.6761 14.6062L43.3314 19.5852C43.6626 20.5813 42.5149 21.4107 41.6771 20.7807L37.1409 17.3697C36.7611 17.0841 36.2389 17.0841 35.8591 17.3697L31.3229 20.7807C30.4851 21.4107 29.3374 20.5813 29.6686 19.5852L31.3239 14.6062C31.463 14.1879 31.3322 13.727 30.9944 13.4447L27.8865 10.8481C27.119 10.2068 27.5712 8.95425 28.5704 8.95425H32.7924C33.2377 8.95425 33.6363 8.67731 33.7926 8.25929L35.4998 3.69496Z" fill="#F0FF98"/>
<path d="M35.4998 3.69496C35.8464 2.76835 37.1536 2.76835 37.5002 3.69496L39.2074 8.25929C39.3637 8.67731 39.7623 8.95425 40.2076 8.95425H44.4296C45.4288 8.95425 45.881 10.2068 45.1135 10.8481L42.0056 13.4447C41.6678 13.727 41.537 14.1879 41.6761 14.6062L43.3314 19.5852C43.6626 20.5813 42.5149 21.4107 41.6771 20.7807L37.1409 17.3697C36.7611 17.0841 36.2389 17.0841 35.8591 17.3697L31.3229 20.7807C30.4851 21.4107 29.3374 20.5813 29.6686 19.5852L31.3239 14.6062C31.463 14.1879 31.3322 13.727 30.9944 13.4447L27.8865 10.8481C27.119 10.2068 27.5712 8.95425 28.5704 8.95425H32.7924C33.2377 8.95425 33.6363 8.67731 33.7926 8.25929L35.4998 3.69496Z" stroke="#F0F0F5" stroke-linejoin="round"/>
</g>
</g>
<g clip-path="url(#clip2_10914_21191)">
<g filter="url(#filter2_d_10914_21191)">
<path d="M59.4998 3.69496C59.8464 2.76835 61.1536 2.76835 61.5002 3.69496L63.2074 8.25929C63.3637 8.67731 63.7623 8.95425 64.2076 8.95425H68.4296C69.4288 8.95425 69.881 10.2068 69.1135 10.8481L66.0056 13.4447C65.6678 13.727 65.537 14.1879 65.6761 14.6062L67.3314 19.5852C67.6626 20.5813 66.5149 21.4107 65.6771 20.7807L61.1409 17.3697C60.7611 17.0841 60.2389 17.0841 59.8591 17.3697L55.3229 20.7807C54.4851 21.4107 53.3374 20.5813 53.6686 19.5852L55.3239 14.6062C55.463 14.1879 55.3322 13.727 54.9944 13.4447L51.8865 10.8481C51.119 10.2068 51.5712 8.95425 52.5704 8.95425H56.7924C57.2377 8.95425 57.6363 8.67731 57.7926 8.25929L59.4998 3.69496Z" fill="#F0FF98"/>
<path d="M59.4998 3.69496C59.8464 2.76835 61.1536 2.76835 61.5002 3.69496L63.2074 8.25929C63.3637 8.67731 63.7623 8.95425 64.2076 8.95425H68.4296C69.4288 8.95425 69.881 10.2068 69.1135 10.8481L66.0056 13.4447C65.6678 13.727 65.537 14.1879 65.6761 14.6062L67.3314 19.5852C67.6626 20.5813 66.5149 21.4107 65.6771 20.7807L61.1409 17.3697C60.7611 17.0841 60.2389 17.0841 59.8591 17.3697L55.3229 20.7807C54.4851 21.4107 53.3374 20.5813 53.6686 19.5852L55.3239 14.6062C55.463 14.1879 55.3322 13.727 54.9944 13.4447L51.8865 10.8481C51.119 10.2068 51.5712 8.95425 52.5704 8.95425H56.7924C57.2377 8.95425 57.6363 8.67731 57.7926 8.25929L59.4998 3.69496Z" stroke="#F0F0F5" stroke-linejoin="round"/>
</g>
</g>
<g clip-path="url(#clip3_10914_21191)">
<g filter="url(#filter3_d_10914_21191)">
<path d="M83.4998 3.69496C83.8464 2.76835 85.1536 2.76835 85.5002 3.69496L87.2074 8.25929C87.3637 8.67731 87.7623 8.95425 88.2076 8.95425H92.4296C93.4288 8.95425 93.881 10.2068 93.1135 10.8481L90.0056 13.4447C89.6678 13.727 89.537 14.1879 89.6761 14.6062L91.3314 19.5852C91.6626 20.5813 90.5149 21.4107 89.6771 20.7807L85.1409 17.3697C84.7611 17.0841 84.2389 17.0841 83.8591 17.3697L79.3229 20.7807C78.4851 21.4107 77.3374 20.5813 77.6686 19.5852L79.3239 14.6062C79.463 14.1879 79.3322 13.727 78.9944 13.4447L75.8865 10.8481C75.119 10.2068 75.5712 8.95425 76.5704 8.95425H80.7924C81.2377 8.95425 81.6363 8.67731 81.7926 8.25929L83.4998 3.69496Z" fill="#F0FF98"/>
<path d="M83.4998 3.69496C83.8464 2.76835 85.1536 2.76835 85.5002 3.69496L87.2074 8.25929C87.3637 8.67731 87.7623 8.95425 88.2076 8.95425H92.4296C93.4288 8.95425 93.881 10.2068 93.1135 10.8481L90.0056 13.4447C89.6678 13.727 89.537 14.1879 89.6761 14.6062L91.3314 19.5852C91.6626 20.5813 90.5149 21.4107 89.6771 20.7807L85.1409 17.3697C84.7611 17.0841 84.2389 17.0841 83.8591 17.3697L79.3229 20.7807C78.4851 21.4107 77.3374 20.5813 77.6686 19.5852L79.3239 14.6062C79.463 14.1879 79.3322 13.727 78.9944 13.4447L75.8865 10.8481C75.119 10.2068 75.5712 8.95425 76.5704 8.95425H80.7924C81.2377 8.95425 81.6363 8.67731 81.7926 8.25929L83.4998 3.69496Z" stroke="#F0F0F5" stroke-linejoin="round"/>
</g>
</g>
<path d="M108.5 17.1555V3C108.913 3 109.327 3.23165 109.5 3.69496L111.207 8.25929C111.364 8.67731 111.762 8.95425 112.208 8.95425H116.43C117.429 8.95425 117.881 10.2068 117.114 10.8481L114.006 13.4447C113.668 13.727 113.537 14.1879 113.676 14.6062L115.331 19.5852C115.663 20.5813 114.515 21.4107 113.677 20.7807L109.141 17.3697C108.951 17.2269 108.726 17.1555 108.5 17.1555Z" fill="#37373C"/>
<path d="M108.5 17.1555V3C108.087 3 107.673 3.23165 107.5 3.69496L105.793 8.25929C105.636 8.67731 105.238 8.95425 104.792 8.95425H100.57C99.5712 8.95425 99.119 10.2068 99.8865 10.8481L102.994 13.4447C103.332 13.727 103.463 14.1879 103.324 14.6062L101.669 19.5852C101.337 20.5813 102.485 21.4107 103.323 20.7807L107.859 17.3697C108.049 17.2269 108.274 17.1555 108.5 17.1555Z" fill="#F0FF98"/>
<defs>
<filter id="filter0_d_10914_21191" x="-1" y="2.5" width="27" height="27.0029" filterUnits="userSpaceOnUse" color-interpolation-filters="sRGB">
<feFlood flood-opacity="0" result="BackgroundImageFix"/>
<feColorMatrix in="SourceAlpha" type="matrix" values="0 0 0 0 0 0 0 0 0 0 0 0 0 0 0 0 0 0 127 0" result="hardAlpha"/>
<feOffset dy="4"/>
<feGaussianBlur stdDeviation="2"/>
<feComposite in2="hardAlpha" operator="out"/>
<feColorMatrix type="matrix" values="0 0 0 0 0 0 0 0 0 0 0 0 0 0 0 0 0 0 0.25 0"/>
<feBlend mode="normal" in2="BackgroundImageFix" result="effect1_dropShadow_10914_21191"/>
<feBlend mode="normal" in="SourceGraphic" in2="effect1_dropShadow_10914_21191" result="shape"/>
</filter>
<filter id="filter1_d_10914_21191" x="23" y="2.5" width="27" height="27.0029" filterUnits="userSpaceOnUse" color-interpolation-filters="sRGB">
<feFlood flood-opacity="0" result="BackgroundImageFix"/>
<feColorMatrix in="SourceAlpha" type="matrix" values="0 0 0 0 0 0 0 0 0 0 0 0 0 0 0 0 0 0 127 0" result="hardAlpha"/>
<feOffset dy="4"/>
<feGaussianBlur stdDeviation="2"/>
<feComposite in2="hardAlpha" operator="out"/>
<feColorMatrix type="matrix" values="0 0 0 0 0 0 0 0 0 0 0 0 0 0 0 0 0 0 0.25 0"/>
<feBlend mode="normal" in2="BackgroundImageFix" result="effect1_dropShadow_10914_21191"/>
<feBlend mode="normal" in="SourceGraphic" in2="effect1_dropShadow_10914_21191" result="shape"/>
</filter>
<filter id="filter2_d_10914_21191" x="47" y="2.5" width="27" height="27.0029" filterUnits="userSpaceOnUse" color-interpolation-filters="sRGB">
<feFlood flood-opacity="0" result="BackgroundImageFix"/>
<feColorMatrix in="SourceAlpha" type="matrix" values="0 0 0 0 0 0 0 0 0 0 0 0 0 0 0 0 0 0 127 0" result="hardAlpha"/>
<feOffset dy="4"/>
<feGaussianBlur stdDeviation="2"/>
<feComposite in2="hardAlpha" operator="out"/>
<feColorMatrix type="matrix" values="0 0 0 0 0 0 0 0 0 0 0 0 0 0 0 0 0 0 0.25 0"/>
<feBlend mode="normal" in2="BackgroundImageFix" result="effect1_dropShadow_10914_21191"/>
<feBlend mode="normal" in="SourceGraphic" in2="effect1_dropShadow_10914_21191" result="shape"/>
</filter>
<filter id="filter3_d_10914_21191" x="71" y="2.5" width="27" height="27.0029" filterUnits="userSpaceOnUse" color-interpolation-filters="sRGB">
<feFlood flood-opacity="0" result="BackgroundImageFix"/>
<feColorMatrix in="SourceAlpha" type="matrix" values="0 0 0 0 0 0 0 0 0 0 0 0 0 0 0 0 0 0 127 0" result="hardAlpha"/>
<feOffset dy="4"/>
<feGaussianBlur stdDeviation="2"/>
<feComposite in2="hardAlpha" operator="out"/>
<feColorMatrix type="matrix" values="0 0 0 0 0 0 0 0 0 0 0 0 0 0 0 0 0 0 0.25 0"/>
<feBlend mode="normal" in2="BackgroundImageFix" result="effect1_dropShadow_10914_21191"/>
<feBlend mode="normal" in="SourceGraphic" in2="effect1_dropShadow_10914_21191" result="shape"/>
</filter>
<clipPath id="clip0_10914_21191">
<rect width="24" height="24" fill="white" transform="translate(0.5)"/>
</clipPath>
<clipPath id="clip1_10914_21191">
<rect width="24" height="24" fill="white" transform="translate(24.5)"/>
</clipPath>
<clipPath id="clip2_10914_21191">
<rect width="24" height="24" fill="white" transform="translate(48.5)"/>
</clipPath>
<clipPath id="clip3_10914_21191">
<rect width="24" height="24" fill="white" transform="translate(72.5)"/>
</clipPath>
</defs>
</svg>
