<svg width="252" height="349" viewBox="0 0 252 349" fill="none" xmlns="http://www.w3.org/2000/svg">
<path d="M75.207 95.0524H0V141.049H56.0795L82.0482 166.921L56.0795 192.794H0V238.79H75.207L115.417 198.729L83.4909 166.921L115.417 135.114L75.207 95.0524Z" fill="#0F0F14"/>
<path d="M75.207 285.157H0V331.153H56.0795L82.0482 357.026L56.0795 382.899H0V428.895H75.207L115.417 388.834L83.4909 357.026L115.417 325.218L75.207 285.157Z" fill="#0F0F14"/>
<path d="M75.207 475.262H0V521.258H56.0795L82.0482 547.131L56.0795 573.004H0V619H75.207L115.417 578.939L83.4909 547.131L115.417 515.323L75.207 475.262Z" fill="#0F0F14"/>
<path d="M236.79 0H161.583V45.9961H217.663L243.632 71.8689L217.663 97.7417H161.583V143.738H236.79L277 103.677L245.074 71.8689L277 40.0611L236.79 0Z" fill="#0F0F14"/>
<path d="M236.79 190.105H161.583V236.101H217.663L243.632 261.974L217.663 287.847H161.583V333.843H236.79L277 293.782L245.074 261.974L277 230.166L236.79 190.105Z" fill="#0F0F14"/>
<path d="M236.79 380.21H161.583V426.206H217.663L243.632 452.079L217.663 477.951H161.583V523.948H236.79L277 483.886L245.074 452.079L277 420.271L236.79 380.21Z" fill="#0F0F14"/>
</svg>
