<svg width="24" height="24" viewBox="0 0 24 24" fill="none" xmlns="http://www.w3.org/2000/svg">
<path fill-rule="evenodd" clip-rule="evenodd" d="M11.9868 4.50354C10.6999 3.11326 9.26532 1.99885 6.97451 1.99902C3.66918 1.99925 0.974664 4.69685 0.974609 7.99881C0.974583 9.69244 1.53427 11.4657 2.75688 12.6953L11.2476 21.6855C11.4473 21.8969 11.7173 22.002 11.9868 21.9988C12.2564 22.002 12.5264 21.8969 12.726 21.6855L21.2168 12.6953C22.4394 11.4657 22.9991 9.69244 22.999 7.99881C22.999 4.69685 20.3045 1.99925 16.9991 1.99902C14.7083 1.99885 13.2738 3.11326 11.9868 4.50354ZM11.9868 19.5554L4.2016 11.3122C4.19506 11.3053 4.18842 11.2985 4.18169 11.2917C3.41167 10.5217 2.97459 9.30038 2.97461 7.99885C2.97464 5.80086 4.77434 3.99917 6.97465 3.99902C8.73391 3.99889 9.7188 4.90369 11.2146 6.64957C11.4153 6.88379 11.7008 7.00239 11.9868 6.99888C12.2729 7.00239 12.5584 6.88379 12.759 6.64957C14.2548 4.90369 15.2397 3.99889 16.999 3.99902C19.1993 3.99917 20.999 5.80086 20.999 7.99885C20.9991 9.30038 20.562 10.5217 19.792 11.2917C19.7852 11.2985 19.7786 11.3053 19.7721 11.3122L11.9868 19.5554Z" fill="#F0F0F5"/>
</svg>
