<svg width="16" height="16" viewBox="0 0 16 16" fill="none" xmlns="http://www.w3.org/2000/svg">
<path d="M3.5 6C3.5 4.61929 4.61929 3.5 6 3.5C6.27614 3.5 6.5 3.27614 6.5 3C6.5 2.72386 6.27614 2.5 6 2.5C4.067 2.5 2.5 4.067 2.5 6V10C2.5 10.2761 2.72386 10.5 3 10.5H6C6.27614 10.5 6.5 10.2761 6.5 10V7C6.5 6.72386 6.27614 6.5 6 6.5H3.5V6Z" fill="#D7FF14"/>
<path d="M10.5 6C10.5 4.61929 11.6193 3.5 13 3.5C13.2761 3.5 13.5 3.27614 13.5 3C13.5 2.72386 13.2761 2.5 13 2.5C11.067 2.5 9.5 4.067 9.5 6V10C9.5 10.2761 9.72386 10.5 10 10.5H13C13.2761 10.5 13.5 10.2761 13.5 10V7C13.5 6.72386 13.2761 6.5 13 6.5H10.5V6Z" fill="#D7FF14"/>
</svg>
