<svg width="476" height="824" viewBox="0 0 476 824" fill="none" xmlns="http://www.w3.org/2000/svg">
<path d="M129.28 164H0V243.36H96.4L141.04 288L96.4 332.64H0V412H129.28L198.4 342.88L143.52 288L198.4 233.12L129.28 164Z" fill="#0F0F14"/>
<path d="M129.28 492H0V571.36H96.4L141.04 616L96.4 660.64H0V740H129.28L198.4 670.88L143.52 616L198.4 561.12L129.28 492Z" fill="#0F0F14"/>
<path d="M407.04 0H277.76V79.36H374.16L418.8 124L374.16 168.64H277.76V248H407.04L476.16 178.88L421.28 124L476.16 69.12L407.04 0Z" fill="#0F0F14"/>
<path d="M407.04 328H277.76V407.36H374.16L418.8 452L374.16 496.64H277.76V576H407.04L476.16 506.88L421.28 452L476.16 397.12L407.04 328Z" fill="#0F0F14"/>
<path d="M407.04 656H277.76V735.36H374.16L418.8 780L374.16 824.64H277.76V904H407.04L476.16 834.88L421.28 780L476.16 725.12L407.04 656Z" fill="#0F0F14"/>
</svg>
