<svg width="134" height="20" viewBox="0 0 134 20" fill="none" xmlns="http://www.w3.org/2000/svg">
<path d="M16 5.574L11.574 10L16 14.426L10.426 20H0V13.6H7.774L11.374 10L7.774 6.4H0V0H10.426L16 5.574ZM34.65 11.962C34.65 13.738 33.212 14.5 30.438 14.5H22.4V5.5H29.776C32.876 5.5 33.952 6.4 33.952 7.8C33.952 8.776 33.314 9.476 32.44 9.85C33.924 10.138 34.65 10.838 34.65 11.962ZM24.9 9.1H29.824C30.9 9.1 31.448 8.95 31.448 8.276C31.448 7.476 30.698 7.476 29.748 7.476H24.9V9.1ZM32.15 11.7C32.15 10.976 31.488 10.85 30.388 10.85H24.9V12.526H30.688C31.662 12.524 32.15 12.3 32.15 11.7ZM38.276 5.5H35.776V14.5H44.776V12.5H38.276V5.5ZM58.224 10C58.224 12.624 60.474 14.5 63.848 14.5H69.224V12.476H63.874C62.024 12.476 60.724 11.4 60.724 10C60.724 8.6 62.024 7.524 63.874 7.524H69.224V5.5H63.848C60.476 5.5 58.224 7.376 58.224 10ZM118.224 11.876L110.976 5.5H108.226V14.5H110.726V8.25L117.85 14.5H120.726V5.5H118.226V11.876H118.224ZM95.976 14.5H106.476V12.5H98.476V10.9H105.976V9.024H98.476V7.474H106.476V5.5H95.976V14.5ZM121.724 5.5V7.5H126.624V14.5H129.124V7.5H134V5.5H121.724ZM53.362 5.5L58.774 14.5H55.95L54.95 12.75H49.126L48.102 14.5H45.278L50.866 5.5H53.362ZM53.888 10.876L52.088 7.714L50.226 10.876H53.888ZM81.85 5.562V5.5H78.1L73.1 8.9V5.5H70.6V14.5H73.1V10.9L78.224 14.5H82.1V14.438L75.35 9.85L81.85 5.562ZM91.376 11.424L94.6 14.438V14.5H91.35L88.374 11.65H85.35V14.5H82.85V5.5H89.65C92.674 5.5 94.35 6.576 94.35 8.55C94.35 10.1 93.3 11.1 91.376 11.424ZM91.876 8.524C91.876 7.624 91.176 7.474 89.576 7.474H85.352V9.7H89.576C91.176 9.7 91.876 9.424 91.876 8.524Z" fill="#BEBEC3"/>
</svg>
