<svg width="20" height="20" viewBox="0 0 20 20" fill="none" xmlns="http://www.w3.org/2000/svg">
<path fill-rule="evenodd" clip-rule="evenodd" d="M6.01975 11C6.12359 13.6148 6.63032 15.9333 7.38254 17.562C4.55268 16.5826 2.44342 14.0596 2.06189 11H6.01975ZM8.02145 11C8.1143 13.15 8.50089 15.0092 9.02853 16.3283C9.33467 17.0937 9.6492 17.5788 9.89613 17.8399C9.93647 17.8826 9.9711 17.9155 10 17.9407C10.0289 17.9155 10.0635 17.8826 10.1039 17.8399C10.3508 17.5788 10.6653 17.0937 10.9715 16.3283C11.4991 15.0092 11.8857 13.15 11.9786 11H8.02145ZM11.9786 9H8.02145C8.1143 6.85001 8.50089 4.9908 9.02853 3.67171C9.33467 2.90634 9.6492 2.42118 9.89613 2.16007C9.93647 2.11741 9.9711 2.08451 10 2.05929C10.0289 2.08451 10.0635 2.11741 10.1039 2.16007C10.3508 2.42118 10.6653 2.90634 10.9715 3.67171C11.4991 4.9908 11.8857 6.85001 11.9786 9ZM13.9802 11C13.8764 13.6148 13.3697 15.9333 12.6175 17.562C15.4473 16.5826 17.5566 14.0596 17.9381 11H13.9802ZM17.9381 9H13.9802C13.8764 6.38522 13.3697 4.06674 12.6175 2.43801C15.4473 3.41736 17.5566 5.9404 17.9381 9ZM6.01975 9H2.06189C2.44342 5.9404 4.55268 3.41736 7.38254 2.43801C6.63032 4.06674 6.12359 6.38522 6.01975 9ZM20 10C20 4.47715 15.5228 0 10 0C4.47715 0 0 4.47715 0 10C0 15.5228 4.47715 20 10 20C15.5228 20 20 15.5228 20 10Z" fill="#BEBEC3"/>
</svg>
