<svg width="21" height="20" viewBox="0 0 21 20" fill="none" xmlns="http://www.w3.org/2000/svg">
<path fill-rule="evenodd" clip-rule="evenodd" d="M0.607027 0.549901C0.776988 0.212704 1.1224 0 1.50001 0H19.5C19.8776 0 20.223 0.212704 20.393 0.549901C20.5629 0.887097 20.5285 1.29128 20.3039 1.59482L13.5 10.7897V19C13.5 19.3466 13.3206 19.6684 13.0257 19.8507C12.7309 20.0329 12.3628 20.0494 12.0528 19.8944L8.05279 17.8944C7.71401 17.725 7.50001 17.3788 7.50001 17V10.7897L0.696147 1.59482C0.471537 1.29128 0.437065 0.887097 0.607027 0.549901ZM3.48396 2L9.30386 9.86518C9.43125 10.0373 9.5 10.2458 9.5 10.46V16.382L11.5 17.382V10.46C11.5 10.2458 11.5688 10.0373 11.6961 9.86518L17.516 2H3.48396Z" fill="#E4FF56"/>
</svg>
