<svg width="295" height="304" viewBox="0 0 295 304" fill="none" xmlns="http://www.w3.org/2000/svg">
<path d="M79.8921 101.347H0V150.39H59.573L87.1595 177.977L59.573 205.563H0V254.606H79.8921L122.607 211.891L88.6921 177.977L122.607 144.062L79.8921 101.347Z" fill="#F8FFC4"/>
<path d="M79.8921 304.044H0V353.087H59.573L87.1595 380.673L59.573 408.26H0V457.302H79.8921L122.607 414.588L88.6921 380.673L122.607 346.759L79.8921 304.044Z" fill="#F8FFC4"/>
<path d="M79.8921 506.741H0V555.783H59.573L87.1595 583.37L59.573 610.956H0V659.999H79.8921L122.607 617.284L88.6921 583.37L122.607 549.455L79.8921 506.741Z" fill="#F8FFC4"/>
<path d="M251.542 -0.000976562H171.649V49.0417H231.222L258.809 76.6282L231.222 104.215H171.649V153.257H251.542L294.256 110.543L260.342 76.6282L294.256 42.7136L251.542 -0.000976562Z" fill="#F8FFC4"/>
<path d="M251.542 202.696H171.649V251.738H231.222L258.809 279.325L231.222 306.911H171.649V355.954H251.542L294.256 313.239L260.342 279.325L294.256 245.41L251.542 202.696Z" fill="#F8FFC4"/>
<path d="M251.542 405.392H171.649V454.435H231.222L258.809 482.021L231.222 509.608H171.649V558.651H251.542L294.256 515.936L260.342 482.021L294.256 448.107L251.542 405.392Z" fill="#F8FFC4"/>
</svg>
