<svg width="100%" height="100%" style="overflow:visible;" preserveAspectRatio="none" viewBox="0 0 24 24" fill="none" xmlns="http://www.w3.org/2000/svg">
<path d="M11.9894 6.35149C8.87037 6.35743 6.34648 8.89165 6.35242 12.0106C6.35836 15.1303 8.89215 17.6538 12.0111 17.6476C15.1304 17.6414 17.6551 15.1085 17.6492 11.9889C17.643 8.87031 15.109 6.34533 11.9894 6.35149ZM12.0072 15.6662C9.98271 15.6702 8.33752 14.0318 8.33378 12.0067C8.33026 9.98199 9.96907 8.33702 11.9933 8.3335C14.018 8.32954 15.6632 9.96769 15.6672 11.9928C15.6711 14.018 14.0323 15.6623 12.0072 15.6662Z" fill="#A0A0A5"/>
<path d="M22.9991 11.9789C22.9933 8.99189 22.9799 8.61767 22.9243 7.44461C22.8686 6.27352 22.6812 5.47469 22.4079 4.77552C22.1252 4.05236 21.7481 3.44009 21.1358 2.82958C20.5236 2.21973 19.9091 1.84419 19.1849 1.565C18.4848 1.29418 17.6851 1.10959 16.5142 1.05899C15.3409 1.00685 14.9663 0.99563 11.9791 1.00135C8.99229 1.00685 8.61763 1.01961 7.44435 1.07593C6.27393 1.13115 5.47443 1.3186 4.77592 1.59228C4.05277 1.87411 3.43984 2.25207 2.82999 2.86434C2.21947 3.47705 1.84459 4.09109 1.56474 4.8149C1.29392 5.51517 1.11021 6.3151 1.05873 7.48619C1.00747 8.65947 0.995593 9.03369 1.00131 12.0209C1.00703 15.0077 1.02023 15.3826 1.07611 16.5563C1.13199 17.7265 1.31878 18.5255 1.59268 19.2245C1.87495 19.9476 2.25247 20.5604 2.86497 21.1704C3.47724 21.7805 4.09171 22.1552 4.81596 22.4352C5.51557 22.7058 6.31573 22.89 7.48659 22.9412C8.65987 22.9929 9.03454 23.0044 12.0209 22.9987C15.0085 22.9929 15.3832 22.9797 16.5565 22.9241C17.7269 22.8682 18.5255 22.6808 19.2249 22.4077C19.948 22.1248 20.561 21.7479 21.1708 21.1354C21.7807 20.5232 22.1556 19.9087 22.4354 19.1845C22.7062 18.4848 22.8906 17.6847 22.9414 16.5145C22.9927 15.3405 23.0048 14.9657 22.9991 11.9789ZM20.9616 16.4274C20.915 17.4999 20.737 18.0825 20.5874 18.471C20.3885 18.9845 20.1507 19.3512 19.7665 19.7373C19.3824 20.1219 19.0168 20.3617 18.5031 20.5623C18.1161 20.7135 17.5337 20.8939 16.4623 20.9447C15.3022 20.9993 14.9546 21.0118 12.0171 21.0171C9.08074 21.0228 8.73313 21.0118 7.57283 20.9614C6.50031 20.9148 5.91796 20.7366 5.52987 20.5872C5.01594 20.3883 4.6492 20.1498 4.26309 19.7668C3.87786 19.3822 3.63872 19.0166 3.43808 18.5038C3.28737 18.1157 3.10587 17.534 3.05571 16.4615C3.00115 15.302 2.98861 14.9542 2.98333 12.0169C2.97761 9.08055 2.98839 8.73251 3.03899 7.57221C3.08497 6.50057 3.26427 5.91734 3.41322 5.52969C3.6121 5.0151 3.8497 4.64902 4.23361 4.26291C4.61818 3.8768 4.98382 3.63854 5.49709 3.43789C5.88496 3.28631 6.46643 3.10635 7.53851 3.05553C8.69859 3.00053 9.0462 2.98887 11.9826 2.98315C14.9196 2.97743 15.2677 2.98777 16.428 3.03881C17.4996 3.08545 18.0829 3.26299 18.4703 3.41303C18.9847 3.61192 19.3514 3.84886 19.7371 4.23343C20.1227 4.61799 20.3619 4.98298 20.5625 5.49735C20.7139 5.88412 20.8941 6.46647 20.9447 7.53811C20.9999 8.69819 21.0124 9.04601 21.0177 11.9826C21.0232 14.9197 21.0124 15.2675 20.9616 16.4274Z" fill="#A0A0A5"/>
<path d="M17.8571 4.79807C17.1283 4.79939 16.5384 5.39186 16.5397 6.12029C16.5411 6.84872 17.1335 7.43855 17.862 7.43723C18.5908 7.43591 19.1807 6.84388 19.1796 6.11523C19.1783 5.3868 18.586 4.79653 17.8571 4.79807Z" fill="#A0A0A5"/>
</svg>
