<svg width="12" height="14" viewBox="0 0 12 14" fill="none" xmlns="http://www.w3.org/2000/svg">
<path fill-rule="evenodd" clip-rule="evenodd" d="M0.500043 1.88811e-09C0.776185 2.36947e-05 1.00002 0.223901 1 0.500043L0.999871 2H11V0.5C11 0.223858 11.2239 1.88811e-09 11.5 1.88811e-09C11.7761 1.88811e-09 12 0.223858 12 0.5V4.5C12 4.77614 11.7761 5 11.5 5C11.2239 5 11 4.77614 11 4.5V3H6.5004V11H11V9.5C11 9.22386 11.2239 9 11.5 9C11.7761 9 12 9.22386 12 9.5V13.5C12 13.7761 11.7761 14 11.5 14C11.2239 14 11 13.7761 11 13.5V12H0.999871L1 13.5C1.00002 13.7761 0.776185 14 0.500043 14C0.223901 14 2.36928e-05 13.7762 0 13.5V9.49996C2.36928e-05 9.22381 0.223901 8.99998 0.500043 9C0.776185 9.00002 1.00002 9.2239 1 9.50004L0.999871 11H5.5004V3H0.999871L1 4.49996C1.00002 4.7761 0.776185 4.99998 0.500043 5C0.223901 5.00002 2.36928e-05 4.77619 0 4.50004V0.499957C2.36928e-05 0.223815 0.223901 -2.37208e-05 0.500043 1.88811e-09Z" fill="#FAFAFF"/>
</svg>
