<svg width="14" height="14" viewBox="0 0 14 14" fill="none" xmlns="http://www.w3.org/2000/svg">
<path fill-rule="evenodd" clip-rule="evenodd" d="M4.52503 1C3.6966 1 3.02503 1.67157 3.02503 2.5V13H10V2.5C10 1.67157 9.32843 1 8.5 1H4.52503ZM11 13V2.5C11 1.11929 9.88071 0 8.5 0H4.52503C3.14431 0 2.02503 1.11929 2.02503 2.5V13H0.5C0.223858 13 0 13.2239 0 13.5C0 13.7761 0.223858 14 0.5 14H13.5C13.7761 14 14 13.7761 14 13.5C14 13.2239 13.7761 13 13.5 13H11ZM12.2874 1.91855C12.5374 1.80115 12.8352 1.90859 12.9526 2.15853L13.7628 3.88343C13.919 4.216 14 4.57891 14 4.94633V10.5C14 10.7761 13.7761 11 13.5 11C13.2239 11 13 10.7761 13 10.5V4.94633C13 4.72588 12.9514 4.50813 12.8577 4.30859L12.0474 2.58369C11.93 2.33375 12.0375 2.03596 12.2874 1.91855ZM5 5.5C5 5.22386 5.22386 5 5.5 5H7.5C7.77614 5 8 5.22386 8 5.5C8 5.77614 7.77614 6 7.5 6H5.5C5.22386 6 5 5.77614 5 5.5Z" fill="#FAFAFF"/>
</svg>
