<svg width="8" height="14" viewBox="0 0 8 14" fill="none" xmlns="http://www.w3.org/2000/svg">
<path fill-rule="evenodd" clip-rule="evenodd" d="M5.79062 0.0931721C6.01533 0.253677 6.06737 0.565952 5.90687 0.790658L1.58604 6.83981L7.42929 6.00506C7.6274 5.97676 7.82329 6.06931 7.92725 6.24031C8.0312 6.41131 8.02318 6.62782 7.90687 6.79066L2.90687 13.7907C2.74636 14.0154 2.43409 14.0674 2.20938 13.9069C1.98468 13.7464 1.93263 13.4341 2.09313 13.2094L6.41396 7.16026L0.570711 7.99501C0.372606 8.02331 0.176707 7.93077 0.072754 7.75977C-0.0311993 7.58877 -0.0231818 7.37226 0.0931339 7.20942L5.09313 0.20942C5.25364 -0.0152865 5.56591 -0.0673324 5.79062 0.0931721Z" fill="#FAFAFF"/>
</svg>
