<svg width="22" height="16" viewBox="0 0 22 16" fill="none" xmlns="http://www.w3.org/2000/svg">
<path fill-rule="evenodd" clip-rule="evenodd" d="M4 0C1.79086 0 0 1.79086 0 4V12C0 14.2091 1.79086 16 4 16H18C20.2091 16 22 14.2091 22 12V4C22 1.79086 20.2091 0 18 0H4ZM3.5568 2.04928C3.69936 2.01703 3.84769 2 4 2H18C18.1523 2 18.3007 2.01703 18.4433 2.04929L11.0001 7.74117L3.5568 2.04928ZM2.0801 3.43779C2.02796 3.61614 2 3.8048 2 4V12C2 13.1046 2.89543 14 4 14H18C19.1046 14 20 13.1046 20 12V4C20 3.80483 19.972 3.61618 19.9199 3.43786L11.6075 9.79441C11.2489 10.0686 10.7512 10.0686 10.3926 9.79441L2.0801 3.43779Z" fill="#F0FF98"/>
</svg>
