<svg width="18" height="20" viewBox="0 0 18 20" fill="none" xmlns="http://www.w3.org/2000/svg">
<path fill-rule="evenodd" clip-rule="evenodd" d="M1 0C1.55228 0 2 0.447715 2 1V9.5H8V1C8 0.447715 8.44772 0 9 0C9.55229 0 10 0.447715 10 1V9.5H16V1C16 0.447715 16.4477 0 17 0C17.5523 0 18 0.447715 18 1V10.5C18 11.0523 17.5523 11.5 17 11.5H10V19C10 19.5523 9.55229 20 9 20C8.44772 20 8 19.5523 8 19V11.5H2V19C2 19.5523 1.55228 20 1 20C0.447715 20 0 19.5523 0 19V1C0 0.447715 0.447715 0 1 0Z" fill="#FAFAFF"/>
</svg>
