<svg width="12" height="12" viewBox="0 0 12 12" fill="none" xmlns="http://www.w3.org/2000/svg">
<path fill-rule="evenodd" clip-rule="evenodd" d="M5.99965 0C6.55194 0 6.99965 0.447715 6.99965 1V5.00015L10.9995 5.00016C11.5518 5.00016 11.9995 5.44788 11.9995 6.00017C11.9995 6.55245 11.5518 7.00016 10.9995 7.00016L6.99965 7.00015V11C6.99965 11.5523 6.55194 12 5.99965 12C5.44737 12 4.99965 11.5523 4.99965 11V7.00015L0.999998 7.00014C0.447713 7.00014 -1.3113e-06 6.55242 0 6.00014C1.2517e-06 5.44785 0.447718 5.00014 1 5.00014L4.99965 5.00015V1C4.99965 0.447715 5.44737 0 5.99965 0Z" fill="#FAFAFF"/>
</svg>
