<svg width="90" height="46" viewBox="0 0 90 46" fill="none" xmlns="http://www.w3.org/2000/svg">
<path fill-rule="evenodd" clip-rule="evenodd" d="M77.7475 7.11312C75.4853 5.95326 73.1458 4.95063 70.7457 4.11234C59.3602 0.343151 47.2808 -0.855903 35.3765 0.601425C24.3736 2.11182 13.5808 4.7425 5.15863 12.3945C1.15759 16.1355 -1.27304 21.7669 0.697473 27.1583C3.26814 33.7301 10.1299 38.1012 16.2415 40.6419C34.3062 47.9037 58.8926 47.6537 76.4072 39.2815C82.4088 36.2807 89.1205 31.2794 89.9507 24.0275C90.6609 16.2555 83.8091 10.434 77.7475 7.11312ZM37.247 10.2039C38.7574 7.26316 41.4481 3.80226 45.159 3.74224C52.8378 3.72527 60.481 4.78588 67.865 6.89306C68.2951 7.11312 68.8052 7.20315 69.0653 7.63326C69.3253 8.06337 68.8352 8.43346 68.5851 8.74355C62.6636 13.3748 55.9018 15.9454 48.99 18.196C45.4691 19.0562 41.9282 20.5966 37.9872 19.7464C37.5145 19.6252 37.071 19.4106 36.6827 19.1151C36.2944 18.8196 35.9693 18.4492 35.7266 18.026C34.7864 15.3453 36.1067 12.5445 37.247 10.2039ZM13.3308 34.2102C12.4205 35.0704 11.5303 33.9301 10.7101 33.56C6.53899 30.8993 2.76801 26.4282 3.84829 21.1668C5.58875 14.315 12.6506 10.654 18.5321 8.1634C22.0676 6.79174 25.7344 5.78622 29.475 5.16261C29.8751 5.16261 30.3852 5.1026 30.5853 5.4727L30.4752 5.90281C22.9833 14.485 17.982 24.3976 13.3308 34.2502V34.2102ZM51.7008 37.501C49.9803 40.1517 47.1596 42.4423 43.7587 42.1022C36.3033 41.9965 28.8982 40.8622 21.753 38.7314C21.4253 38.6459 21.1405 38.443 20.9527 38.1612C20.9104 37.9794 20.9199 37.7893 20.98 37.6125C21.0401 37.4357 21.1484 37.2793 21.2928 37.1609C27.6045 32.0396 35.1164 29.669 42.5484 27.1583C45.3191 26.3581 48.2599 25.4979 51.3707 25.898C52.0223 25.9872 52.6401 26.2418 53.1654 26.6375C53.6907 27.0333 54.1059 27.5569 54.3715 28.1586C55.1016 31.7395 53.2412 34.6803 51.7008 37.541V37.501ZM86.0897 24.6977C84.3192 31.7895 76.6072 35.5605 70.4656 37.9512C67.1214 39.2199 63.6402 40.0928 60.0929 40.5518C59.8729 40.5518 59.4928 40.5518 59.4428 40.2417L59.5228 39.8416C64.4971 34.0403 68.7307 27.6429 72.1261 20.7967C73.7265 17.7959 75.2069 14.7151 76.5772 11.6843C76.7461 11.4883 76.9634 11.3401 77.2074 11.2542C78.4977 11.3742 79.408 12.3745 80.4382 13.0547C83.9992 15.9754 87.18 19.9465 86.0897 24.7377V24.6977Z" fill="#3C3C41"/>
</svg>
