<svg width="70" height="70" viewBox="0 0 70 70" fill="none" xmlns="http://www.w3.org/2000/svg">
<path d="M35 0C28.0777 0 21.3108 2.05271 15.5551 5.89856C9.79933 9.74441 5.3133 15.2107 2.66423 21.6061C0.0151649 28.0015 -0.677952 35.0388 0.672531 41.8281C2.02301 48.6175 5.35644 54.8539 10.2513 59.7487C15.1461 64.6436 21.3825 67.977 28.1719 69.3275C34.9612 70.6779 41.9985 69.9848 48.3939 67.3358C54.7893 64.6867 60.2556 60.2007 64.1014 54.4449C67.9473 48.6892 70 41.9223 70 35C70 25.7174 66.3125 16.815 59.7487 10.2513C53.185 3.68749 44.2826 0 35 0ZM6.35251 18.55C9.22288 13.5755 13.3375 9.43301 18.2924 6.52908C23.2474 3.62516 28.8723 2.05965 34.615 1.98625L30.0913 31.9812L6.16876 51.31C3.34518 46.3058 1.87688 40.6513 1.90911 34.9056C1.94133 29.1599 3.47297 23.5221 6.35251 18.55ZM35.1313 68.1887C29.3808 68.2176 23.7226 66.743 18.7176 63.9113C13.7125 61.0796 9.53448 56.989 6.59752 52.045L35 40.25L63.5512 51.87C60.6386 56.8234 56.4864 60.9331 51.5032 63.7944C46.5199 66.6558 40.8775 68.1702 35.1313 68.1887ZM39.7775 32.375L35.4638 1.98625C41.1785 2.07595 46.7729 3.64229 51.7035 6.53309C56.634 9.42388 60.7329 13.5408 63.6021 18.484C66.4713 23.4271 68.0131 29.0283 68.0778 34.7434C68.1425 40.4585 66.7278 46.0932 63.9713 51.1L39.7775 32.375Z" fill="#3C3C41"/>
</svg>
