<svg width="372" height="56" viewBox="0 0 372 56" fill="none" xmlns="http://www.w3.org/2000/svg">
<rect x="0.5" y="0.5" width="371" height="55" rx="4.5" fill="#05050A"/>
<rect x="0.5" y="0.5" width="371" height="55" rx="4.5" stroke="#9747FF" stroke-dasharray="10 5"/>
<rect x="19" y="19" width="18" height="18" rx="5" stroke="#646469" stroke-width="2"/>
<rect x="59" y="19" width="18" height="18" rx="5" fill="#1E1E23" stroke="#646469" stroke-width="2"/>
<rect x="98" y="18" width="20" height="20" rx="6" fill="#283002"/>
<path fill-rule="evenodd" clip-rule="evenodd" d="M113.68 23.2672C114.085 23.643 114.109 24.2757 113.733 24.6805L107.233 31.6805C106.868 32.0738 106.257 32.1086 105.849 31.7593L102.349 28.7593C101.93 28.3998 101.881 27.7685 102.241 27.3492C102.6 26.9299 103.231 26.8813 103.651 27.2407L106.421 29.6153L112.267 23.3196C112.643 22.9148 113.276 22.8914 113.68 23.2672Z" fill="#D7FF14"/>
<circle cx="148" cy="28" r="9" stroke="#646469" stroke-width="2"/>
<path d="M188 19C192.971 19 197 23.0294 197 28C197 32.9706 192.971 37 188 37C183.029 37 179 32.9706 179 28C179 23.0294 183.029 19 188 19Z" fill="#1E1E23" stroke="#646469" stroke-width="2"/>
<circle cx="228" cy="28" r="10" fill="#3C4804"/>
<circle cx="228" cy="28" r="6" fill="#D7FF14"/>
<rect x="256" y="16" width="42" height="24" rx="12" fill="#28282D"/>
<circle cx="268" cy="28" r="8" fill="#646469"/>
<rect x="314" y="16" width="42" height="24" rx="12" fill="#3C4804"/>
<circle cx="344" cy="28" r="8" fill="#D7FF14"/>
</svg>
