<svg width="70" height="70" viewBox="0 0 70 70" fill="none" xmlns="http://www.w3.org/2000/svg">
<path d="M35 0C28.0799 7.78515e-06 21.3151 2.0514 15.5605 5.89494C9.80591 9.73847 5.31985 15.2016 2.66925 21.594C0.0186432 27.9863 -0.677533 35.021 0.6687 41.8089C2.01493 48.5968 5.34315 54.8333 10.2327 59.7302C15.1223 64.6271 21.3538 67.9647 28.1397 69.3211C34.9256 70.6775 41.9612 69.9918 48.3575 67.3508C54.7539 64.7098 60.2237 60.2319 64.0759 54.4831C67.9281 48.7343 69.9896 41.9726 70 35.0525C70.0069 30.4518 69.1067 25.8949 67.3508 21.6425C65.595 17.39 63.018 13.5254 59.7673 10.2698C56.5165 7.0142 52.6558 4.43143 48.406 2.66923C44.1562 0.907033 39.6007 -5.17575e-06 35 0ZM34.8775 67.0075C28.5519 66.985 22.3748 65.0887 17.1262 61.558C11.8775 58.0274 7.79277 53.0207 5.38763 47.1701C2.98249 41.3196 2.36484 34.8875 3.61267 28.6862C4.86051 22.4849 7.91786 16.7923 12.3987 12.3274C16.8795 7.86241 22.5829 4.82527 28.7886 3.59945C34.9943 2.37362 41.4241 3.01409 47.2661 5.43996C53.1081 7.86584 58.1003 11.9683 61.6123 17.2295C65.1243 22.4906 66.9987 28.6744 66.9987 35C67.001 39.212 66.1715 43.3831 64.5578 47.2737C62.9441 51.1644 60.5779 54.6981 57.5951 57.672C54.6123 60.6459 51.0715 63.0014 47.176 64.6035C43.2805 66.2055 39.107 67.0225 34.895 67.0075H34.8775Z" fill="#3C3C41"/>
<path d="M49.8256 46.0424C49.5981 46.6549 49.3706 47.2237 49.1606 47.7924C49.1412 47.904 49.0794 48.0037 48.988 48.0707C48.8966 48.1376 48.7828 48.1664 48.6706 48.1512C47.9706 48.1512 47.2706 48.1512 46.5619 48.1512C46.4493 48.1412 46.338 48.1207 46.2294 48.0899L46.4131 47.5999C48.207 42.9629 49.1954 38.0536 49.3356 33.0837C49.396 31.0916 49.2848 29.0979 49.0031 27.1249C48.6043 24.2276 47.794 21.402 46.5969 18.7337C44.6643 14.5456 41.8286 10.8373 38.2931 7.87492C37.8113 7.44571 37.1883 7.20897 36.5431 7.20992C33.8493 7.08349 31.1506 7.31892 28.5194 7.90992C27.7056 8.10242 26.8919 8.34742 26.0781 8.56617L26.0169 8.71492C26.1198 8.76147 26.2167 8.82022 26.3056 8.88992C28.1754 10.4794 29.9136 12.2176 31.5031 14.0874C33.2376 16.0863 34.7296 18.2832 35.9481 20.6324C36.0356 20.8162 36.1144 21.0087 36.2019 21.1924C35.4319 21.5862 35.3269 21.5774 34.8456 21.0087L34.7144 20.8599C32.575 18.4729 30.2425 16.2662 27.7406 14.2624C26.0154 12.8523 24.1119 11.6755 22.0794 10.7624C21.9418 10.6934 21.7884 10.662 21.6348 10.6712C21.4812 10.6804 21.3327 10.73 21.2044 10.8149C18.5835 12.3015 16.2198 14.2013 14.2044 16.4412C13.9419 16.7212 13.6969 17.0274 13.4169 17.3162L13.8719 17.5874C16.5494 19.0862 19.1299 20.752 21.5981 22.5749C23.0439 23.6127 24.3887 24.7845 25.6144 26.0749L25.9819 26.5124C25.3519 26.9587 25.3606 26.9324 24.8006 26.5737C23.9256 26.0312 23.0506 25.4712 22.1756 25.0074C19.0432 23.4285 15.7405 22.2131 12.3319 21.3849L10.8269 21.0174L10.6344 21.3062C8.91732 24.3171 7.78056 27.6235 7.28311 31.0537C7.27021 31.1963 7.27021 31.3398 7.28311 31.4824C8.57811 31.8149 9.81186 32.1037 11.0369 32.4449C13.5775 33.1319 16.0016 34.1935 18.2294 35.5949C20.6282 37.0849 22.5454 39.2361 23.7506 41.7899C24.493 43.4292 24.9771 45.1737 25.1856 46.9612C25.2381 47.3112 25.2644 47.6612 25.3081 48.0637H24.7831C24.3106 48.0637 23.8381 48.0637 23.3656 48.0637C23.0631 48.067 22.7638 48.0011 22.4906 47.8712C21.1956 47.2937 19.8656 46.7337 18.5969 46.1649C18.2463 46.0413 17.8735 45.9936 17.5031 46.0249H9.62811C9.49697 46.0174 9.3655 46.0174 9.23436 46.0249C9.25392 46.099 9.27729 46.172 9.30436 46.2437C10.6098 49.1814 12.3828 51.8882 14.5544 54.2587C14.6261 54.3367 14.7145 54.3977 14.8129 54.437C14.9113 54.4764 15.0173 54.4932 15.1231 54.4862H18.1069C18.5651 54.4947 19.0176 54.3831 19.4194 54.1624C20.3994 53.6462 21.3969 53.1562 22.3769 52.6399C22.6857 52.5086 23.0236 52.4604 23.3569 52.4999H49.0031C49.2744 53.2174 49.5368 53.8999 49.8081 54.5999C53.0586 54.1906 56.0733 52.6879 58.3569 50.3387C56.0859 47.9761 53.0759 46.4603 49.8256 46.0424ZM39.7894 44.9399C39.095 44.9503 38.4132 44.7539 37.8308 44.3757C37.2483 43.9976 36.7916 43.4546 36.5186 42.8161C36.2456 42.1775 36.1688 41.4722 36.2978 40.7898C36.4269 40.1075 36.756 39.479 37.2433 38.9842C37.7307 38.4895 38.3542 38.1509 39.0345 38.0115C39.7148 37.8721 40.4212 37.9383 41.0638 38.2016C41.7064 38.4649 42.2562 38.9134 42.6432 39.4901C43.0301 40.0667 43.2368 40.7455 43.2369 41.4399C43.237 42.3591 42.8754 43.2415 42.2304 43.8964C41.5853 44.5513 40.7085 44.9261 39.7894 44.9399Z" fill="#3C3C41"/>
</svg>
