<svg width="215" height="33" viewBox="0 0 215 33" fill="none" xmlns="http://www.w3.org/2000/svg">
<path d="M25.6 8.97699L18.5184 16.0586L25.6 23.1402L16.6816 32.0586H0V21.8186H12.4384L18.1984 16.0586L12.4384 10.2986H0V0.0585938H16.6816L25.6 8.97699ZM55.44 19.1978C55.44 22.0394 53.1392 23.2586 48.7008 23.2586H35.84V8.85859H47.6416C52.6016 8.85859 54.3232 10.2986 54.3232 12.5386C54.3232 14.1002 53.3024 15.2202 51.904 15.8186C54.2784 16.2794 55.44 17.3994 55.44 19.1978ZM39.84 14.6186H47.7184C49.44 14.6186 50.3168 14.3786 50.3168 13.3002C50.3168 12.0202 49.1168 12.0202 47.5968 12.0202H39.84V14.6186ZM51.44 18.7786C51.44 17.6202 50.3808 17.4186 48.6208 17.4186H39.84V20.1002H49.1008C50.6592 20.097 51.44 19.7386 51.44 18.7786ZM61.2416 8.85859H57.2416V23.2586H71.6416V20.0586H61.2416V8.85859ZM93.1584 16.0586C93.1584 20.257 96.7584 23.2586 102.157 23.2586H110.758V20.0202H102.198C99.2384 20.0202 97.1584 18.2986 97.1584 16.0586C97.1584 13.8186 99.2384 12.097 102.198 12.097H110.758V8.85859H102.157C96.7616 8.85859 93.1584 11.8602 93.1584 16.0586ZM189.158 19.0602L177.562 8.85859H173.162V23.2586H177.162V13.2586L188.56 23.2586H193.162V8.85859H189.162V19.0602H189.158ZM153.562 23.2586H170.362V20.0586H157.562V17.4986H169.562V14.497H157.562V12.017H170.362V8.85859H153.562V23.2586ZM194.758 8.85859V12.0586H202.598V23.2586H206.598V12.0586H214.4V8.85859H194.758ZM85.3792 8.85859L94.0384 23.2586H89.52L87.92 20.4586H78.6016L76.9632 23.2586H72.4448L81.3856 8.85859H85.3792ZM86.2208 17.4602L83.3408 12.401L80.3616 17.4602H86.2208ZM130.96 8.95779V8.85859H124.96L116.96 14.2986V8.85859H112.96V23.2586H116.96V17.4986L125.158 23.2586H131.36V23.1594L120.56 15.8186L130.96 8.95779ZM146.202 18.337L151.36 23.1594V23.2586H146.16L141.398 18.6986H136.56V23.2586H132.56V8.85859H143.44C148.278 8.85859 150.96 10.5802 150.96 13.7386C150.96 16.2186 149.28 17.8186 146.202 18.337ZM147.002 13.697C147.002 12.257 145.882 12.017 143.322 12.017H136.563V15.5786H143.322C145.882 15.5786 147.002 15.137 147.002 13.697Z" fill="#1E1E23"/>
</svg>
