<svg width="70" height="70" viewBox="0 0 70 70" fill="none" xmlns="http://www.w3.org/2000/svg">
<path d="M35 5.37869e-05C28.0776 5.37869e-05 21.3108 2.05277 15.555 5.89861C9.79933 9.74446 5.31329 15.2107 2.66423 21.6061C0.0151649 28.0015 -0.677951 35.0388 0.67253 41.8282C2.02301 48.6175 5.35644 54.8539 10.2513 59.7487C15.1461 64.6436 21.3825 67.977 28.1718 69.3275C34.9612 70.678 41.9985 69.9848 48.3939 67.3358C54.7893 64.6867 60.2555 60.2007 64.1014 54.445C67.9472 48.6892 69.9999 41.9224 69.9999 35C70.008 30.4015 69.1082 25.8466 67.3522 21.5966C65.5961 17.3465 63.0183 13.485 59.7667 10.2333C56.515 6.98166 52.6535 4.40389 48.4034 2.64783C44.1534 0.891779 39.5985 -0.00801483 35 5.37869e-05ZM35 3.1588C38.5342 3.14325 42.0427 3.75961 45.36 4.9788L35.42 27.3788C35.28 27.6588 35.2187 27.7988 35 27.7988C34.7812 27.7988 34.72 27.58 34.58 27.3788L24.64 4.9788C27.9573 3.75961 31.4658 3.14325 35 3.1588ZM19.74 7.2188L31.36 33.04C31.4192 33.2198 31.5385 33.3736 31.6979 33.4756C31.8573 33.5777 32.047 33.6216 32.235 33.6H37.835C38.023 33.6216 38.2127 33.5777 38.3721 33.4756C38.5315 33.3736 38.6508 33.2198 38.71 33.04L50.3387 7.2188C54.9395 9.81417 58.8426 13.4861 61.7137 17.92L45.5 50.4C45.4387 50.6188 45.2987 50.82 45.08 50.82C44.8612 50.82 44.8 50.6188 44.66 50.4L38.5787 36.54C38.5085 36.3511 38.3753 36.1922 38.2016 36.0902C38.0278 35.9882 37.8241 35.9493 37.625 35.98H32.025C31.8367 35.9567 31.6463 36 31.4865 36.1022C31.3267 36.2045 31.2077 36.3593 31.15 36.54L25.2787 50.4C25.2 50.6188 25.06 50.82 24.8587 50.82C24.6575 50.82 24.5787 50.6188 24.4387 50.4L8.34751 17.92C11.204 13.4677 15.1178 9.79137 19.74 7.2188ZM35 66.78C26.593 66.7361 18.5441 63.3711 12.6076 57.4181C6.67106 51.4652 3.32818 43.4071 3.30751 35C3.30046 31.2018 3.98233 27.4337 5.32001 23.8788L23.8787 61.18C23.9546 61.4222 24.1024 61.6357 24.3024 61.7919C24.5025 61.9482 24.7453 62.04 24.9987 62.055C25.2511 62.0365 25.4923 61.9434 25.6917 61.7876C25.8911 61.6318 26.0397 61.4204 26.1187 61.18L34.6587 42.0788C34.72 41.86 34.86 41.6588 35.0787 41.6588C35.2975 41.6588 35.3587 41.86 35.4987 42.0788L44.0387 61.18C44.1146 61.4222 44.2624 61.6357 44.4624 61.7919C44.6625 61.9482 44.9053 62.04 45.1587 62.055C45.4111 62.0365 45.6522 61.9434 45.8516 61.7876C46.051 61.6318 46.1997 61.4204 46.2787 61.18L64.82 23.8788C66.1786 27.4287 66.8698 31.199 66.8587 35C66.7786 43.4174 63.3938 51.4661 57.4342 57.411C51.4746 63.3559 43.4175 66.7207 35 66.78Z" fill="#3C3C41"/>
</svg>
