<svg width="70" height="70" viewBox="0 0 70 70" fill="none" xmlns="http://www.w3.org/2000/svg">
<path d="M35 0C28.0777 0 21.3108 2.05271 15.5551 5.89856C9.79933 9.74441 5.3133 15.2107 2.66423 21.6061C0.0151649 28.0015 -0.677952 35.0388 0.672531 41.8281C2.02301 48.6175 5.35644 54.8539 10.2513 59.7487C15.1461 64.6436 21.3825 67.977 28.1719 69.3275C34.9612 70.6779 41.9985 69.9848 48.3939 67.3358C54.7893 64.6867 60.2556 60.2007 64.1014 54.4449C67.9473 48.6892 70 41.9223 70 35C70 25.7174 66.3125 16.815 59.7487 10.2513C53.185 3.68749 44.2826 0 35 0ZM35 67.725C28.5276 67.725 22.2006 65.8057 16.819 62.2098C11.4374 58.614 7.24293 53.503 4.76606 47.5233C2.28918 41.5436 1.64112 34.9637 2.90382 28.6157C4.16652 22.2676 7.28327 16.4366 11.8599 11.8599C16.4366 7.28326 22.2677 4.1665 28.6157 2.9038C34.9637 1.6411 41.5436 2.28916 47.5233 4.76604C53.503 7.24292 58.614 11.4374 62.2098 16.819C65.8057 22.2006 67.725 28.5276 67.725 35C67.725 43.6792 64.2772 52.0029 58.1401 58.1401C52.0029 64.2772 43.6792 67.725 35 67.725Z" fill="#3C3C41"/>
<path d="M34.9972 14.2451C29.4926 14.2451 24.2135 16.4318 20.3212 20.3241C16.4289 24.2164 14.2422 29.4955 14.2422 35.0001C14.2422 40.5047 16.4289 45.7838 20.3212 49.6761C24.2135 53.5684 29.4926 55.7551 34.9972 55.7551C40.5017 55.7551 45.7809 53.5684 49.6732 49.6761C53.5655 45.7838 55.7522 40.5047 55.7522 35.0001C55.7522 29.4955 53.5655 24.2164 49.6732 20.3241C45.7809 16.4318 40.5017 14.2451 34.9972 14.2451ZM15.3797 35.0001H34.9972V54.6176C29.7957 54.613 24.8086 52.5447 21.1306 48.8667C17.4526 45.1887 15.3843 40.2016 15.3797 35.0001ZM34.9972 35.0001V15.3826C40.1986 15.3873 45.1857 17.4556 48.8637 21.1336C52.5417 24.8116 54.61 29.7986 54.6147 35.0001H34.9972Z" fill="#3C3C41"/>
<path d="M59.2519 15.8201L54.7631 18.7951L54.4569 19.0576L54.6844 18.7251L56.6706 14.7701L55.2619 13.3701L51.3069 15.3476L50.9744 15.5751L51.2369 15.2689L54.2469 10.7801C53.7131 10.3426 53.2231 9.90512 52.5756 9.43262L48.0781 16.5201C48.6469 16.9576 49.3994 17.5964 49.8806 18.0426L54.1156 15.8464L54.3869 15.6451L54.1856 15.9164L51.9631 20.1251C52.4356 20.6326 53.1181 21.4551 53.5031 21.9626L60.5906 17.5001C60.2406 17.0276 59.6719 16.3189 59.2519 15.8201Z" fill="#3C3C41"/>
<path d="M32.0963 6.86V6.4575L32.2187 6.8425L34.1525 11.2175H35.9025L37.8363 6.88625L37.9587 6.50125V6.90375L38.16 12.6962C38.8425 12.7575 39.5425 12.8537 40.2337 12.9675L39.8662 4.375C38.895 4.27 37.9325 4.19125 36.97 4.15625L35.0625 8.89L34.9925 9.24L34.9312 8.89L33.0238 4.15625C32.0613 4.15625 31.09 4.27 30.1275 4.375L29.8125 12.9587C30.5037 12.845 31.2125 12.7487 31.8862 12.6875L32.0963 6.86Z" fill="#3C3C41"/>
<path d="M20.2325 18.0164C21.3437 16.8351 21.9825 15.4789 20.8625 14.1751C20.5512 13.8447 20.1458 13.6179 19.7013 13.5255C19.2568 13.4332 18.7947 13.4797 18.3775 13.6589H18.2987V13.5889C18.4061 13.2015 18.3961 12.791 18.2699 12.4094C18.1437 12.0278 17.9071 11.6922 17.59 11.4451C17.3711 11.2718 17.1199 11.1438 16.8509 11.0686C16.582 10.9935 16.3008 10.9728 16.0237 11.0076C14.9737 11.1126 14.1687 11.8301 11.9638 14.2889C11.2988 15.0326 10.3362 16.1964 9.75 16.9576L15.8225 22.7501C17.8262 20.5101 18.6487 19.6789 20.2325 18.0164ZM12.34 16.6251C13.3052 15.4394 14.3395 14.3116 15.4375 13.2476C15.614 13.0671 15.8295 12.9295 16.0675 12.8451C16.2572 12.8103 16.453 12.8488 16.6154 12.9527C16.7778 13.0566 16.8947 13.2183 16.9425 13.4051C16.9616 13.6138 16.9311 13.824 16.8536 14.0186C16.776 14.2132 16.6536 14.3868 16.4962 14.5251C15.8487 15.2514 13.4862 17.7276 13.4862 17.7276L12.34 16.6251ZM17.7475 15.6714C17.9482 15.4342 18.1879 15.233 18.4562 15.0764C18.5787 15.0014 18.7195 14.9617 18.8631 14.9617C19.0067 14.9617 19.1475 15.0014 19.27 15.0764C19.3902 15.157 19.4836 15.2717 19.5382 15.4058C19.5928 15.5399 19.606 15.6872 19.5762 15.8289C19.4624 16.1873 19.2573 16.5099 18.9812 16.7651L15.9275 20.0289L14.7025 18.8564L17.7475 15.6714Z" fill="#3C3C41"/>
</svg>
