<svg width="19" height="20" viewBox="0 0 19 20" fill="none" xmlns="http://www.w3.org/2000/svg">
<path fill-rule="evenodd" clip-rule="evenodd" d="M5.15184 0.470013C5.33458 0.177625 5.65505 0 5.99985 0H18C18.5523 0 19 0.447715 19 1V19C19 19.5523 18.5523 20 18 20H1C0.447715 20 0 19.5523 0 19V9C0 8.81258 0.0526668 8.62894 0.151995 8.47001L5.15184 0.470013ZM6.55411 2L2.80422 8L17 8V2H6.55411ZM17 10L2 10V18H17V10ZM10.9998 14C10.9998 13.4477 11.4476 13 11.9998 13H13.9998C14.5521 13 14.9998 13.4477 14.9998 14C14.9998 14.5523 14.5521 15 13.9998 15H11.9998C11.4476 15 10.9998 14.5523 10.9998 14Z" fill="#FAFAFF"/>
</svg>
