<svg width="12" height="22" viewBox="0 0 12 22" fill="none" xmlns="http://www.w3.org/2000/svg">
<path fill-rule="evenodd" clip-rule="evenodd" d="M7.47886 0.122294C7.9637 0.386756 8.14236 0.994193 7.8779 1.47904L2.90294 10.5998L10.8039 9.01961C11.1847 8.94344 11.5752 9.09467 11.8054 9.40748C12.0356 9.72028 12.0639 10.1381 11.8779 10.479L5.8779 21.479C5.61344 21.9639 5.006 22.1425 4.52115 21.8781C4.0363 21.6136 3.85765 21.0062 4.12211 20.5213L9.09707 11.4006L1.19612 12.9808C0.815282 13.0569 0.424787 12.9057 0.19459 12.5929C-0.0356081 12.2801 -0.0638685 11.8623 0.122108 11.5213L6.12211 0.521337C6.38657 0.0364887 6.99401 -0.142169 7.47886 0.122294Z" fill="#FAFAFF"/>
</svg>
