<svg width="22" height="14" viewBox="0 0 22 14" fill="none" xmlns="http://www.w3.org/2000/svg">
<path d="M2 11C2 6.02944 6.02944 2 11 2C15.9706 2 20 6.02944 20 11C20 11.5523 20.4477 12 21 12C21.5523 12 22 11.5523 22 11C22 4.92487 17.0751 0 11 0C4.92487 0 0 4.92487 0 11C0 11.5523 0.447715 12 1 12C1.55228 12 2 11.5523 2 11Z" fill="#FAFAFF"/>
<path d="M16.2071 8.20711C16.5976 7.81658 16.5976 7.18342 16.2071 6.79289C15.8166 6.40237 15.1834 6.40237 14.7929 6.79289L11.518 10.0677C11.3528 10.0236 11.1792 10 11 10C9.89543 10 9 10.8954 9 12C9 13.1046 9.89543 14 11 14C12.1046 14 13 13.1046 13 12C13 11.8208 12.9764 11.6472 12.9323 11.482L16.2071 8.20711Z" fill="#FAFAFF"/>
</svg>
