<svg width="18" height="21" viewBox="0 0 18 21" fill="none" xmlns="http://www.w3.org/2000/svg">
<path fill-rule="evenodd" clip-rule="evenodd" d="M1 0C1.55228 0 2 0.447715 2 1V2.5H16V1C16 0.447715 16.4477 0 17 0C17.5523 0 18 0.447715 18 1V6C18 6.55228 17.5523 7 17 7C16.4477 7 16 6.55228 16 6V4.5H10.4399L10.4954 16.5H16V15C16 14.4477 16.4477 14 17 14C17.5523 14 18 14.4477 18 15V20C18 20.5523 17.5523 21 17 21C16.4477 21 16 20.5523 16 20V18.5H2V20C2 20.5523 1.55228 21 1 21C0.447715 21 0 20.5523 0 20V15C0 14.4477 0.447715 14 1 14C1.55228 14 2 14.4477 2 15V16.5H8.49537L8.43989 4.5H2V6C2 6.55228 1.55228 7 1 7C0.447715 7 0 6.55228 0 6V1C0 0.447715 0.447715 0 1 0Z" fill="#FAFAFF"/>
</svg>
