<svg width="100%" height="100%" style="overflow:visible;" preserveAspectRatio="none" viewBox="0 0 16 16" fill="none" xmlns="http://www.w3.org/2000/svg">
<path fill-rule="evenodd" clip-rule="evenodd" d="M3.5 5C2.67157 5 2 5.67157 2 6.5C2 7.32843 2.67157 8 3.5 8C4.32843 8 5 7.32843 5 6.5C5 5.67157 4.32843 5 3.5 5ZM3.98406 9.9668C3.55239 10.6698 2.97141 11.435 2.21913 12.3753C1.87412 12.8066 1.94404 13.4359 2.3753 13.7809C2.80657 14.1259 3.43586 14.056 3.78087 13.6247C5.79152 11.1114 7 9.37295 7 6.5C7 4.567 5.433 3 3.5 3C1.567 3 0 4.567 0 6.5C0 8.433 1.567 10 3.5 10C3.66424 10 3.82584 9.98869 3.98406 9.9668ZM11.5 5C10.6716 5 10 5.67157 10 6.5C10 7.32843 10.6716 8 11.5 8C12.3284 8 13 7.32843 13 6.5C13 5.67157 12.3284 5 11.5 5ZM11.9841 9.9668C11.5524 10.6698 10.9714 11.435 10.2191 12.3753C9.87412 12.8066 9.94404 13.4359 10.3753 13.7809C10.8066 14.1259 11.4359 14.056 11.7809 13.6247C13.7915 11.1114 15 9.37295 15 6.5C15 4.567 13.433 3 11.5 3C9.567 3 8 4.567 8 6.5C8 8.433 9.567 10 11.5 10C11.6642 10 11.8258 9.98869 11.9841 9.9668Z" fill="#D7FF14"/>
</svg>
