<svg width="101" height="34" viewBox="0 0 101 34" fill="none" xmlns="http://www.w3.org/2000/svg">
<path d="M84.1107 0.000701163C79.9779 -0.00102564 75.9884 1.51568 72.9006 4.26257C69.8159 1.51692 65.8302 0 61.7006 0C57.5709 0 53.5852 1.51692 50.5005 4.26257C47.4159 1.51692 43.4301 0 39.3005 0C35.1709 0 31.1851 1.51692 28.1005 4.26257C25.6671 2.1009 22.6609 0.688564 19.4436 0.195544C16.2264 -0.297477 12.9352 0.149833 9.96618 1.48364C6.99719 2.81744 4.47695 4.9809 2.70882 7.71359C0.940681 10.4463 0 13.6318 0 16.8866C0 20.1414 0.940681 23.3269 2.70882 26.0596C4.47695 28.7923 6.99719 30.9557 9.96618 32.2895C12.9352 33.6233 16.2264 34.0706 19.4436 33.5776C22.6609 33.0846 25.6671 31.6723 28.1005 29.5106C31.1851 32.2562 35.1709 33.7732 39.3005 33.7732C43.4301 33.7732 47.4159 32.2562 50.5005 29.5106C53.5852 32.2562 57.5709 33.7732 61.7006 33.7732C65.8302 33.7732 69.8159 32.2562 72.9006 29.5106C74.9452 31.327 77.4005 32.6195 80.0551 33.2771C82.7098 33.9347 85.4845 33.9376 88.1406 33.2856C90.7967 32.6337 93.2546 31.3463 95.3031 29.5343C97.3516 27.7222 98.9293 25.4397 99.9005 22.883C100.872 20.3264 101.207 17.5721 100.879 14.857C100.55 12.1419 99.5666 9.54729 98.0133 7.29627C96.4601 5.04526 94.3832 3.20522 91.9615 1.93439C89.5398 0.663563 86.8456 -2.36044e-05 84.1107 0.000701163ZM72.9006 26.3091C70.6769 23.673 69.4571 20.3354 69.4571 16.8866C69.4571 13.4378 70.6769 10.1001 72.9006 7.46402C75.13 10.0975 76.3534 13.4362 76.3534 16.8866C76.3534 20.337 75.13 23.6757 72.9006 26.3091ZM50.5005 26.3091C48.2768 23.673 47.0571 20.3354 47.0571 16.8866C47.0571 13.4378 48.2768 10.1001 50.5005 7.46402C52.7242 10.1001 53.944 13.4378 53.944 16.8866C53.944 20.3354 52.7242 23.673 50.5005 26.3091ZM28.1005 26.3091C25.8711 23.6757 24.6477 20.337 24.6477 16.8866C24.6477 13.4362 25.8711 10.0975 28.1005 7.46402C30.3242 10.1001 31.5439 13.4378 31.5439 16.8866C31.5439 20.3354 30.3242 23.673 28.1005 26.3091ZM2.2465 16.8866C2.24892 14.0799 3.05842 11.3331 4.57849 8.97372C6.09856 6.61431 8.26507 4.7418 10.8197 3.57942C13.3744 2.41705 16.2095 2.01385 18.9869 2.41789C21.7643 2.82194 24.367 4.01618 26.4846 5.85825C23.8266 8.91756 22.363 12.8339 22.363 16.8866C22.363 20.9393 23.8266 24.8556 26.4846 27.9149C24.367 29.757 21.7643 30.9512 18.9869 31.3553C16.2095 31.7593 13.3744 31.3561 10.8197 30.1937C8.26507 29.0314 6.09856 27.1589 4.57849 24.7994C3.05842 22.44 2.24892 19.6933 2.2465 16.8866ZM29.6659 27.9149C32.3179 24.8528 33.7777 20.9375 33.7777 16.8866C33.7777 12.8357 32.3179 8.92038 29.6659 5.85825C32.3297 3.52176 35.7521 2.23348 39.2955 2.23348C42.8388 2.23348 46.2612 3.52176 48.9251 5.85825C46.273 8.92038 44.8132 12.8357 44.8132 16.8866C44.8132 20.9375 46.273 24.8528 48.9251 27.9149C46.2612 30.2514 42.8388 31.5397 39.2955 31.5397C35.7521 31.5397 32.3297 30.2514 29.6659 27.9149ZM52.076 27.9149C54.7281 24.8528 56.1878 20.9375 56.1878 16.8866C56.1878 12.8357 54.7281 8.92038 52.076 5.85825C54.7398 3.52176 58.1623 2.23348 61.7056 2.23348C65.2489 2.23348 68.6714 3.52176 71.3352 5.85825C68.6832 8.92038 67.2234 12.8357 67.2234 16.8866C67.2234 20.9375 68.6832 24.8528 71.3352 27.9149C68.6714 30.2514 65.2489 31.5397 61.7056 31.5397C58.1623 31.5397 54.7398 30.2514 52.076 27.9149ZM84.1107 31.5405C80.5655 31.5415 77.1411 30.2529 74.4761 27.9149C77.134 24.8556 78.5977 20.9393 78.5977 16.8866C78.5977 12.8339 77.134 8.91756 74.4761 5.85825C76.259 4.30397 78.392 3.20471 80.6924 2.65451C82.9928 2.10432 85.3923 2.11955 87.6856 2.69891C89.9788 3.27827 92.0976 4.40452 93.8607 5.98131C95.6238 7.5581 96.9787 9.53851 97.8095 11.7531C98.6403 13.9677 98.9223 16.3506 98.6313 18.698C98.3404 21.0453 97.4852 23.2873 96.1388 25.232C94.7925 27.1768 92.9951 28.7665 90.9004 29.8651C88.8057 30.9637 86.476 31.5386 84.1107 31.5405Z" fill="#3C3C41"/>
</svg>
