<svg width="32" height="32" viewBox="0 0 32 32" fill="none" xmlns="http://www.w3.org/2000/svg">
<path fill-rule="evenodd" clip-rule="evenodd" d="M15.9993 4C16.5516 4 16.9993 4.44772 16.9993 5V14.0003L25.999 14.0003C26.5513 14.0003 26.999 14.4481 26.999 15.0003C26.999 15.5526 26.5513 16.0003 25.999 16.0003L16.9993 16.0003V25C16.9993 25.5523 16.5516 26 15.9993 26C15.4471 26 14.9993 25.5523 14.9993 25V16.0003L6 16.0003C5.44772 16.0003 5 15.5525 5 15.0003C5 14.448 5.44772 14.0003 6 14.0003L14.9993 14.0003V5C14.9993 4.44772 15.4471 4 15.9993 4Z" fill="#FAFAFF"/>
</svg>
