<svg width="100" height="38" viewBox="0 0 100 38" fill="none" xmlns="http://www.w3.org/2000/svg">
<path d="M99.8608 28.1846C99.5402 27.5663 98.9219 27.2686 98.0976 27.3144C97.6396 27.3373 97.319 27.4518 96.5863 27.8869C95.51 28.5281 95.0292 28.7112 94.0445 28.8715C93.4262 28.986 92.3958 28.986 91.7318 28.8944C90.8158 28.757 90.3807 28.5967 88.3886 27.5892C86.4651 26.6275 84.7935 25.7344 79.7558 23.0095C72.5885 19.1167 69.9781 17.7428 67.8714 16.6895C65.719 15.6132 58.5288 12.499 52.9415 10.2321C49.5068 8.83526 45.7972 7.34686 44.4691 6.86599C35.9508 3.68308 27.776 1.46192 21.1354 0.523076C16.8992 -0.0722869 13.2125 -0.163881 10.1441 0.271192C7.37335 0.660468 5.15218 1.41612 3.68667 2.44656C3.09131 2.85873 2.40435 3.59149 2.22116 3.98076C2.17537 4.16395 2.15247 4.53033 2.22116 4.69062C2.26696 4.80511 2.22116 4.82801 1.58 5.49207C0.847248 6.24772 0.32058 6.91178 0.114493 7.32396C0.0228986 7.57584 0 7.66744 0 7.94222C0 8.3315 0.0457972 8.44599 0.366377 8.78947C0.503769 8.92686 0.686958 9.20164 0.801451 9.45353C1.44261 10.6901 2.54174 11.2854 3.52638 10.9419C3.66377 10.8732 3.68667 10.8732 3.80117 10.9648C3.96146 11.0793 4.35073 11.2167 4.64841 11.2396L4.9232 11.2625L4.9461 11.4228C4.96899 11.5144 5.01479 11.7434 5.08349 11.9266L5.17508 12.2472L5.03769 12.499C4.9232 12.7051 4.9003 12.7509 4.9003 13.0486V13.3692L5.06059 13.5066C5.26668 13.6898 6.13682 14.1248 6.5032 14.2393C6.89248 14.3538 7.39624 14.4225 7.62523 14.3996C7.92291 14.3538 8.1977 14.2164 8.35799 14.0561C8.42668 13.9645 8.70146 13.5982 8.95335 13.2318C9.57161 12.4074 10.0754 11.8808 10.6936 11.4686C11.5409 10.8961 12.411 10.5298 13.5102 10.255C13.991 10.1405 14.7467 10.1405 15.3192 10.2321C16.6015 10.484 18.2731 11.2854 19.6699 12.3387C19.9676 12.5677 20.0363 12.5448 19.1203 12.6593C18.2502 12.7738 16.487 13.0944 16.0748 13.2318C14.3116 13.7356 12.5255 15.2011 11.3348 17.1703C10.4189 18.6817 10.3731 19.964 11.1974 20.9715C11.4722 21.2921 11.8615 21.6127 12.3194 21.8417L12.6858 22.0249L12.9835 21.9562C14.8154 21.544 16.1435 20.4906 16.9908 18.7962C17.4029 17.9947 17.7006 17.7657 18.2731 17.7657C18.5708 17.7657 18.731 17.8115 21.4789 18.7504C26.4021 20.4448 28.5774 21.1547 29.356 21.315C30.3635 21.544 31.6917 21.6585 32.5618 21.6356C34.1418 21.5669 35.2409 21.2005 36.0424 20.4906L36.2943 20.2617L36.8667 20.422C39.0192 21.0631 40.5534 21.2692 43.0036 21.2692C44.9041 21.2692 46.7589 21.1318 49.6212 20.7883C50.6517 20.6509 51.8882 20.5822 52.3004 20.628C53.514 20.7425 54.8421 21.3608 55.6894 22.2309C55.9413 22.4828 56.0787 22.6889 56.3763 23.1927C57.7502 25.5283 58.1395 26.1237 58.7578 26.948C59.17 27.4747 59.834 28.2533 60.2004 28.5967C61.872 30.1767 63.7726 31.1156 65.9937 31.482C67.3219 31.711 68.7187 31.6881 71.6268 31.4133C75.4967 31.0469 76.9622 31.0469 78.4048 31.4133C79.0001 31.5736 79.3894 31.711 80.168 32.1002C81.3816 32.7185 81.7022 32.9475 83.6715 34.8252C85.137 36.222 85.9384 36.7944 86.8315 37.0921C87.0375 37.1608 87.3352 37.2295 87.4497 37.2524C88.1825 37.3669 89.0068 37.2066 89.6022 36.8402C90.0144 36.5884 90.7471 35.8098 91.228 35.077L91.3883 34.8481L91.2967 34.4817C91.1822 34.0237 90.9761 33.6115 90.7242 33.3139L90.541 33.0849L90.7242 33.1078C91.8004 33.2681 92.0065 33.2681 93.0599 33.2681C93.9987 33.2681 94.2506 33.2452 94.7544 33.1765C96.5405 32.9017 97.7999 32.3063 98.7616 31.3217C99.3341 30.7263 99.7921 29.9478 99.9524 29.3524C100.044 28.986 99.9981 28.4823 99.8608 28.1846ZM5.28957 11.1709L5.01479 11.0335L4.8545 10.6214C4.62551 10.0718 4.55682 9.8657 4.55682 9.65961C4.55682 9.15584 4.9232 8.3086 5.26668 7.94222C5.74755 7.46135 6.41161 7.46135 6.77798 7.94222C7.23595 8.53758 7.30465 9.68251 6.91537 10.484C6.75508 10.8274 6.4574 11.2396 6.27421 11.3312C6.06813 11.4686 5.83914 11.4457 5.28957 11.1709ZM98.5555 30.4057C98.0976 31.0469 97.1587 31.711 96.2886 32.0315C95.9222 32.1689 95.1665 32.3292 94.5254 32.3979C93.93 32.4666 92.1439 32.4666 91.6402 32.3979C89.9915 32.1689 88.3428 31.4133 86.9918 30.2683C86.7857 30.0852 85.801 29.1234 84.8164 28.1388C83.763 27.0625 82.8929 26.2382 82.6868 26.1008C82.2517 25.7802 81.5419 25.4367 81.0381 25.2994C80.5572 25.1849 79.939 25.1162 78.0842 24.9559C74.9929 24.7269 73.8022 24.5666 73.0236 24.2918C71.7413 23.8338 70.6193 22.8263 69.3369 20.9944C68.8561 20.3075 68.5126 19.9182 68.1233 19.5976C67.7798 19.3228 66.8868 18.7275 66.8181 18.7275C66.7952 18.7275 66.7494 18.7733 66.7265 18.819C66.6578 18.9106 66.6807 18.9335 67.1158 19.3686C67.3677 19.6205 67.6653 19.9869 67.7798 20.1701C67.8943 20.3533 68.3065 21.1089 68.65 21.8417C69.543 23.6507 69.9552 24.246 70.7108 24.8643C71.3062 25.3451 71.7642 25.5741 72.4969 25.7344C73.1839 25.8718 73.8251 25.9176 77.008 25.9176C79.71 25.9176 80.0764 25.9405 80.4198 26.0092C81.1297 26.1466 81.7709 26.3985 82.2975 26.7649C82.9845 27.2228 83.2593 27.5205 84.5645 29.1005C85.1599 29.8333 86.03 30.7721 86.7857 31.5049C87.3123 32.0086 87.8161 32.375 88.5717 32.7872C89.3045 33.1994 89.5335 33.3368 89.8541 33.6573C90.1289 33.9321 90.3578 34.2756 90.3578 34.4588C90.3578 34.6649 89.8541 34.9855 89.3732 35.1228C88.7091 35.306 87.5642 35.1686 86.0529 34.7565C85.9384 34.7336 86.5109 35.306 86.7857 35.4892C87.381 35.9014 88.0222 36.1075 88.732 36.1075C89.2358 36.1075 89.2358 36.1533 88.732 36.3136C88.1825 36.4968 87.4268 36.3823 86.6941 36.0388C85.801 35.6266 85.0454 35.0312 83.557 33.5657C82.0228 32.0773 80.168 30.6118 79.2978 30.1996C78.13 29.6501 76.5271 29.3524 74.3517 29.3295C73.3442 29.3066 72.7946 29.3295 70.3674 29.4669C67.3677 29.6272 66.7723 29.6272 65.9021 29.5127C63.2001 29.1234 60.9103 27.7495 58.9639 25.3909C58.2998 24.5895 57.8189 23.8567 57.0862 22.5973C56.6053 21.773 56.3076 21.2921 55.8726 20.7425C54.6131 19.0938 53.1018 17.6741 51.8653 16.9872C51.4302 16.7353 51.3844 16.7353 51.2928 16.8498L51.2241 16.9643L51.705 17.468C52.2546 18.0405 52.5981 18.4756 52.827 18.9106C52.9644 19.1854 53.1018 19.5518 53.0789 19.5976C53.0789 19.5976 52.8957 19.5747 52.6897 19.5518C52.1401 19.4602 50.8578 19.506 49.8502 19.6434C47.5833 19.964 46.6673 20.0098 44.4462 20.0327C42.912 20.0327 42.4082 20.0098 41.8357 19.964C39.9122 19.7579 38.2864 19.3686 37.2102 18.819L36.8438 18.6359L36.8667 18.4298C36.8896 18.3153 36.8896 18.0176 36.8896 17.7657C36.8896 17.0101 36.6835 16.2086 36.2714 15.3385C36.1798 15.1324 36.0882 14.9492 36.0882 14.9263C36.0882 14.9263 36.363 14.995 36.6606 15.0866C37.8285 15.4301 39.4314 15.7506 40.6221 15.888C42.4082 16.0941 44.2859 16.0712 45.7514 15.8193C45.9346 15.7964 46.0949 15.7506 46.0949 15.7506C46.0949 15.7506 46.0949 15.6819 46.0949 15.5903L46.0262 15.3614H45.6598C45.2476 15.3614 44.1485 15.2698 43.4615 15.1782C39.5459 14.6515 36.0195 13.3463 33.5464 11.4457L33.2259 11.2167L33.0427 11.3999L33.1801 11.5831C34.0044 12.6593 34.8059 14.1019 35.1951 15.1782C35.6989 16.5063 35.7676 17.7199 35.4012 18.4756C35.2638 18.7733 34.7372 19.2999 34.3937 19.4831C34.0273 19.6892 33.4548 19.8724 32.9511 19.964C32.4015 20.0556 31.2566 20.0556 30.5467 19.964C29.3789 19.8037 29.4934 19.8495 23.4253 18.155C21.0667 17.5138 19.0058 16.9414 18.8455 16.9185C18.1815 16.804 17.5403 16.8727 17.0595 17.1246C16.6015 17.3535 16.1435 17.926 16.0977 18.2695C16.0748 18.4985 15.9145 18.8419 15.7313 19.0938C15.571 19.3228 15.0902 19.8495 14.8612 20.0327L14.7009 20.1472L14.449 20.0785C13.4873 19.8266 12.9835 19.1625 13.0522 18.2008C13.0751 18.0405 13.1209 17.7886 13.1667 17.6512L13.2354 17.3993L13.1438 17.3535C13.098 17.3077 13.0293 17.2848 13.0064 17.2848C12.9377 17.2848 12.5713 17.9489 12.4568 18.2924C12.2278 18.9335 12.2278 19.506 12.4568 20.0098C12.5942 20.2846 12.9377 20.6738 13.1896 20.7883C13.2583 20.8341 13.327 20.8799 13.327 20.9028C13.327 20.9257 13.2125 20.9715 13.098 21.0173L12.869 21.1089L12.64 20.9257C12.1363 20.5593 11.747 19.9182 11.6554 19.3915C11.5867 18.819 11.7241 18.3611 12.1592 17.6054C13.556 15.2698 15.0444 14.2393 17.5174 13.873C18.5479 13.7127 19.876 13.5982 20.8606 13.5982C21.685 13.5982 21.8453 13.5982 22.2574 13.6898C22.9215 13.8272 23.4024 13.9645 24.6618 14.4454C25.8525 14.8805 26.7227 15.1782 27.3867 15.3156C27.8676 15.4301 28.8293 15.5674 29.0125 15.5674C29.127 15.5674 29.1499 15.5445 29.1499 15.4301V15.3156L28.6919 15.1782C27.089 14.6744 25.3945 13.8272 24.3641 13.0028C22.9902 11.9037 22.0742 10.484 21.9139 9.20164C21.8911 8.99555 21.8682 8.97266 21.7537 8.94976C21.7079 8.92686 21.6392 8.92686 21.6392 8.92686C21.6392 8.92686 21.5705 9.13295 21.5247 9.33903C21.3873 9.9115 21.3873 11.0106 21.5247 11.606C21.5705 11.835 21.6392 12.064 21.6392 12.1098C21.6621 12.1785 21.4789 12.0869 20.6774 11.5831C18.8684 10.4382 17.9296 9.95729 16.5557 9.47642C16.1206 9.31613 15.0444 9.04135 14.8841 9.04135C14.7238 9.04135 14.3574 8.83526 14.1742 8.60628C14.0597 8.49179 13.8994 8.2628 13.8079 8.07961C13.327 7.14077 12.5942 6.29352 11.976 5.92714C11.6783 5.74395 11.2432 5.58366 11.0142 5.58366H10.831L10.9684 5.78975C11.3348 6.29352 11.5867 7.02628 11.6554 7.91932C11.747 8.94976 11.5409 9.61382 10.8768 10.255C10.5334 10.5985 9.6861 11.0793 9.27393 11.1938C9.18233 11.2167 8.97625 11.4686 8.31219 12.3158C7.85422 12.9112 7.41914 13.4379 7.35045 13.5066C7.28175 13.5524 7.19016 13.5753 7.09856 13.5753C6.80088 13.5753 6.04523 13.3005 5.99943 13.1631C5.95363 13.1402 6.09102 12.9799 6.41161 12.6822C7.46494 11.6976 8.22059 10.69 8.49538 9.9115C8.77016 9.13295 8.63277 7.91932 8.1748 7.07207C7.99161 6.7057 7.55654 6.27062 7.25885 6.11033C6.70929 5.83555 6.04523 5.81265 5.58726 6.04164C5.06059 6.29352 4.78581 6.6828 4.14464 8.07961C3.73247 8.94976 3.54928 9.27034 3.34319 9.45353C2.88522 9.8199 2.28986 9.70541 1.76319 9.13295C1.37392 8.74367 1.30522 8.42309 1.46551 7.94222C1.76319 7.07207 2.58754 6.24772 3.41189 5.97294C3.54928 5.92714 3.93856 5.85845 4.28204 5.81265C5.15218 5.67526 5.54146 5.53787 6.09103 5.17149C6.41161 4.9425 6.91537 4.43874 7.16726 4.07236C7.35045 3.82047 7.62523 3.3167 7.62523 3.24801C7.62523 3.20221 5.86204 3.27091 5.56436 3.3167C4.9003 3.4083 4.30493 3.88917 3.96146 4.57613C3.77827 4.9883 3.70957 5.0341 3.45769 4.9883C3.2287 4.9425 3.11421 4.80511 3.11421 4.53033C3.11421 4.34714 3.13711 4.27844 3.2745 4.09526C3.82406 3.3625 5.38117 2.65265 7.60233 2.12598C9.09074 1.7596 10.2586 1.64511 12.4339 1.64511C13.1438 1.64511 13.7392 1.64511 13.7392 1.66801C13.7392 1.7367 13.4186 2.14888 13.2125 2.37786C12.7774 2.81294 12.2507 3.11062 11.6325 3.29381C11.1516 3.4312 10.396 3.47699 9.84639 3.3625C9.34263 3.27091 9.36552 3.27091 9.38842 3.47699C9.50291 4.18685 10.4647 4.75932 11.976 5.0341C13.4415 5.28598 16.2809 6.86599 18.3418 8.56048C18.5479 8.72077 18.5479 8.72077 18.6395 8.65207C18.6853 8.60628 18.7539 8.56048 18.7539 8.53758C18.7539 8.46889 18.2731 7.69033 17.9983 7.30106C16.6702 5.44627 15.1818 4.20975 13.6476 3.70598C13.4415 3.63728 13.2812 3.56859 13.2812 3.54569C13.2812 3.49989 13.7392 3.13352 14.1513 2.85873C14.6093 2.53815 15.5252 2.10308 16.029 1.91989C16.6702 1.7367 17.151 1.64511 17.9983 1.59931C19.9447 1.48482 22.349 1.7825 24.3641 2.44656C27.089 3.3167 29.4476 4.89671 31.0734 6.95758C31.2795 7.23236 31.4627 7.43845 31.4856 7.43845C31.5085 7.43845 31.6688 7.34686 31.6917 7.32396C31.7145 7.30106 31.2337 6.43091 30.8215 5.72106C30.5238 5.21729 29.7453 4.00366 29.4476 3.61439L29.3789 3.52279L29.6079 3.59149C33.1114 4.59903 39.5688 6.72859 43.7821 8.2399C48.0641 9.797 50.1479 10.5756 55.1627 12.5906C63.223 15.8193 69.543 18.6359 73.5961 20.7883C75.7027 21.9104 76.5729 22.3683 79.3207 23.8109C87.0375 27.864 89.3961 29.0776 89.8083 29.2379C91.6402 29.9707 93.6094 30.1996 95.2352 29.8333C95.5329 29.7646 95.8077 29.6501 96.5863 29.2837C97.8686 28.6654 98.2121 28.5738 98.5555 28.8028C98.7158 28.9173 98.8761 29.2608 98.8761 29.4898C98.9219 29.7188 98.7616 30.131 98.5555 30.4057ZM4.60262 4.69062C4.78581 4.32424 5.10639 4.16395 5.58726 4.18685L5.79334 4.20975L5.61015 4.37004C5.40407 4.59902 5.17508 4.73642 4.8545 4.80511C4.46522 4.9196 4.46523 4.91961 4.60262 4.69062Z" fill="#3C3C41"/>
<path d="M10.3274 2.81295C10.3961 2.83585 10.6938 2.83585 10.9686 2.83585C11.5868 2.81295 12.0219 2.69846 12.6402 2.40078C13.0523 2.19469 13.1439 2.1031 13.0523 1.9886C12.9836 1.89701 11.5181 1.89701 11.1517 1.9886C10.6022 2.126 10.1442 2.44658 10.1671 2.65266C10.19 2.76716 10.2129 2.79006 10.3274 2.81295Z" fill="#3C3C41"/>
</svg>
