<svg width="90" height="70" viewBox="0 0 90 70" fill="none" xmlns="http://www.w3.org/2000/svg">
<path d="M88.8762 38.2869L80.5469 37.792H79.5385V34.9907C79.5943 26.4164 76.4795 18.1241 70.7925 11.707C65.1056 5.28993 57.2477 1.2009 48.729 0.225674C40.2102 -0.749552 31.6315 1.45782 24.6415 6.42363C17.6514 11.3894 12.7431 18.7633 10.8597 27.1283H3.28687C3.0918 27.1318 2.89998 27.1789 2.72548 27.2661C2.55097 27.3534 2.39821 27.4786 2.2784 27.6326L0.252118 30.4339C0.11492 30.5696 0.0263084 30.7469 0 30.9381C0.0111676 31.1375 0.0954234 31.3259 0.23667 31.4671C0.377916 31.6084 0.566251 31.6926 0.765691 31.7038L9.09491 32.208H10.1034V35.0093C10.0476 43.5835 13.1624 51.8759 18.8493 58.293C24.5363 64.7101 32.3941 68.7991 40.9129 69.7743C49.4317 70.7495 58.0103 68.5422 65.0004 63.5764C71.9904 58.6106 76.8987 51.2367 78.7821 42.8717H86.355C86.5501 42.8682 86.7419 42.8211 86.9164 42.7339C87.0909 42.6466 87.2436 42.5214 87.3634 42.3674L89.3897 39.5661C89.5269 39.4303 89.6155 39.2531 89.6419 39.0619C89.6593 38.957 89.6517 38.8495 89.6196 38.7481C89.5874 38.6467 89.5317 38.5545 89.457 38.4788C89.3822 38.4032 89.2906 38.3463 89.1897 38.313C89.0887 38.2796 88.9813 38.2706 88.8762 38.2869ZM44.989 65.693C36.8075 65.6437 28.9771 62.3622 23.205 56.5638C17.4328 50.7654 14.1868 42.9202 14.1746 34.7385V32.1894L39.928 33.7114L28.8161 41.3216C28.564 41.3216 28.564 41.5831 28.564 41.8352C28.5728 41.966 28.6287 42.0893 28.7214 42.182C28.8142 42.2747 28.9374 42.3307 29.0682 42.3394H74.4868C72.8759 48.9697 69.0933 54.8706 63.7411 59.1026C58.3889 63.3347 51.7747 65.6545 44.9517 65.693H44.989ZM75.8034 37.2784L49.994 35.7564L61.1059 28.1368C61.358 28.1368 61.358 27.8847 61.358 27.6326C61.3492 27.5017 61.2933 27.3785 61.2006 27.2857C61.1078 27.193 60.9846 27.1371 60.8537 27.1283H15.4072C16.9842 20.4791 20.7592 14.5567 26.1212 10.3201C31.4831 6.08341 38.118 3.78047 44.9517 3.78409C53.1332 3.83337 60.9635 7.11489 66.7357 12.9133C72.5079 18.7117 75.7539 26.5569 75.766 34.7385L75.8034 37.2784Z" fill="#3C3C41"/>
</svg>
