<svg width="477" height="982" viewBox="0 0 477 982" fill="none" xmlns="http://www.w3.org/2000/svg">
<path d="M129.28 0H0V79.36H96.4L141.04 124L96.4 168.64H0V248H129.28L198.4 178.88L143.52 124L198.4 69.12L129.28 0Z" fill="#F0F0F5"/>
<path d="M129.28 327.359H0V406.719H96.4L141.04 451.359L96.4 495.999H0V575.359H129.28L198.4 506.239L143.52 451.359L198.4 396.479L129.28 327.359Z" fill="#F0F0F5"/>
<path d="M129.28 654.721H0V734.081H96.4L141.04 778.721L96.4 823.361H0V902.721H129.28L198.4 833.601L143.52 778.721L198.4 723.841L129.28 654.721Z" fill="#F0F0F5"/>
<path d="M476.162 148.479L407.042 79.3594H277.762V158.719H374.162L418.802 203.359L374.162 247.999H277.762V327.359H407.042L476.162 258.239L421.282 203.359L476.162 148.479Z" fill="#F0F0F5"/>
<path d="M407.042 406.721H277.762V486.081H374.162L418.802 530.721L374.162 575.361H277.762V654.721H407.042L476.162 585.601L421.282 530.721L476.162 475.841L407.042 406.721Z" fill="#F0F0F5"/>
<path d="M407.042 734.08H277.762V813.44H374.162L418.802 858.08L374.162 902.72H277.762V982.08H407.042L476.162 912.96L421.282 858.08L476.162 803.2L407.042 734.08Z" fill="#F0F0F5"/>
</svg>
