<svg width="476" height="817" viewBox="0 0 476 817" fill="none" xmlns="http://www.w3.org/2000/svg">
<path d="M129.28 164.059H0V243.419H96.4L141.04 288.059L96.4 332.699H0V412.059H129.28L198.4 342.939L143.52 288.059L198.4 233.179L129.28 164.059Z" fill="#0F0F14"/>
<path d="M129.28 492.059H0V571.419H96.4L141.04 616.059L96.4 660.699H0V740.059H129.28L198.4 670.939L143.52 616.059L198.4 561.179L129.28 492.059Z" fill="#0F0F14"/>
<path d="M129.28 820.059H0V899.419H96.4L141.04 944.059L96.4 988.699H0V1068.06H129.28L198.4 998.939L143.52 944.059L198.4 889.179L129.28 820.059Z" fill="#0F0F14"/>
<path d="M407.04 0.0585938H277.76V79.4186H374.16L418.8 124.059L374.16 168.699H277.76V248.059H407.04L476.16 178.939L421.28 124.059L476.16 69.1786L407.04 0.0585938Z" fill="#0F0F14"/>
<path d="M407.04 328.059H277.76V407.419H374.16L418.8 452.059L374.16 496.699H277.76V576.059H407.04L476.16 506.939L421.28 452.059L476.16 397.179L407.04 328.059Z" fill="#0F0F14"/>
<path d="M407.04 656.059H277.76V735.419H374.16L418.8 780.059L374.16 824.699H277.76V904.059H407.04L476.16 834.939L421.28 780.059L476.16 725.179L407.04 656.059Z" fill="#0F0F14"/>
</svg>
