<svg width="100" height="100" viewBox="0 0 100 100" fill="none" xmlns="http://www.w3.org/2000/svg">
<g clip-path="url(#clip0_347_381)">
<path d="M83.2805 33.28C79.1883 33.2783 75.2381 34.7801 72.1805 37.5C69.1262 34.7813 65.1796 33.2793 61.0905 33.2793C57.0015 33.2793 53.0549 34.7813 50.0005 37.5C46.9462 34.7813 42.9996 33.2793 38.9105 33.2793C34.8215 33.2793 30.8749 34.7813 27.8205 37.5C25.4111 35.3596 22.4344 33.9611 19.2487 33.4729C16.0631 32.9847 12.8042 33.4277 9.86437 34.7484C6.92455 36.0691 4.42907 38.2113 2.6783 40.9171C0.927533 43.623 -0.00390625 46.7771 -0.00390625 50C-0.00390625 53.2228 0.927533 56.377 2.6783 59.0829C4.42907 61.7887 6.92455 63.9309 9.86437 65.2516C12.8042 66.5723 16.0631 67.0152 19.2487 66.5271C22.4344 66.0389 25.4111 64.6404 27.8205 62.5C30.8749 65.2187 34.8215 66.7207 38.9105 66.7207C42.9996 66.7207 46.9462 65.2187 50.0005 62.5C53.0549 65.2187 57.0015 66.7207 61.0905 66.7207C65.1796 66.7207 69.1262 65.2187 72.1805 62.5C74.2051 64.2985 76.6362 65.5784 79.2648 66.2295C81.8934 66.8806 84.6408 66.8835 87.2708 66.238C89.9008 65.5924 92.3346 64.3177 94.363 62.5234C96.3913 60.7292 97.9535 58.4691 98.9152 55.9375C99.8769 53.406 100.209 50.6788 99.8837 47.9903C99.5583 45.3019 98.5846 42.7328 97.0466 40.5039C95.5086 38.275 93.4521 36.453 91.0542 35.1947C88.6563 33.9363 85.9886 33.2793 83.2805 33.28ZM72.1805 59.33C69.9787 56.7198 68.7709 53.4149 68.7709 50C68.7709 46.5851 69.9787 43.2802 72.1805 40.67C74.388 43.2776 75.5994 46.5835 75.5994 50C75.5994 53.4165 74.388 56.7224 72.1805 59.33ZM50.0005 59.33C47.7987 56.7198 46.5909 53.4149 46.5909 50C46.5909 46.5851 47.7987 43.2802 50.0005 40.67C52.2024 43.2802 53.4101 46.5851 53.4101 50C53.4101 53.4149 52.2024 56.7198 50.0005 59.33ZM27.8205 59.33C25.613 56.7224 24.4016 53.4165 24.4016 50C24.4016 46.5835 25.613 43.2776 27.8205 40.67C30.0224 43.2802 31.2301 46.5851 31.2301 50C31.2301 53.4149 30.0224 56.7198 27.8205 59.33ZM2.22053 50C2.22293 47.2209 3.02447 44.5011 4.52961 42.1649C6.03475 39.8286 8.17998 37.9745 10.7095 36.8236C13.2391 35.6726 16.0463 35.2734 18.7965 35.6734C21.5466 36.0735 24.1237 37.256 26.2205 39.08C23.5887 42.1093 22.1394 45.9871 22.1394 50C22.1394 54.0129 23.5887 57.8907 26.2205 60.92C24.1237 62.744 21.5466 63.9265 18.7965 64.3265C16.0463 64.7266 13.2391 64.3274 10.7095 63.1764C8.17998 62.0255 6.03475 60.1714 4.52961 57.8351C3.02447 55.4989 2.22293 52.7791 2.22053 50ZM29.3705 60.92C31.9965 57.8879 33.442 54.0111 33.442 50C33.442 45.9889 31.9965 42.1121 29.3705 39.08C32.0082 36.7665 35.397 35.4908 38.9055 35.4908C42.414 35.4908 45.8029 36.7665 48.4405 39.08C45.8145 42.1121 44.3691 45.9889 44.3691 50C44.3691 54.0111 45.8145 57.8879 48.4405 60.92C45.8029 63.2335 42.414 64.5091 38.9055 64.5091C35.397 64.5091 32.0082 63.2335 29.3705 60.92ZM51.5605 60.92C54.1865 57.8879 55.632 54.0111 55.632 50C55.632 45.9889 54.1865 42.1121 51.5605 39.08C54.1982 36.7665 57.587 35.4908 61.0955 35.4908C64.604 35.4908 67.9929 36.7665 70.6305 39.08C68.0045 42.1121 66.5591 45.9889 66.5591 50C66.5591 54.0111 68.0045 57.8879 70.6305 60.92C67.9929 63.2335 64.604 64.5091 61.0955 64.5091C57.587 64.5091 54.1982 63.2335 51.5605 60.92ZM83.2805 64.51C79.7702 64.511 76.3793 63.235 73.7405 60.92C76.3724 57.8907 77.8217 54.0129 77.8217 50C77.8217 45.9871 76.3724 42.1093 73.7405 39.08C75.506 37.541 77.618 36.4525 79.8958 35.9077C82.1736 35.3629 84.5495 35.378 86.8203 35.9517C89.091 36.5254 91.189 37.6405 92.9348 39.2018C94.6805 40.7631 96.0221 42.7241 96.8448 44.917C97.6674 47.1098 97.9466 49.4693 97.6585 51.7936C97.3704 54.1179 96.5236 56.3378 95.1905 58.2635C93.8574 60.1891 92.0776 61.7632 90.0035 62.851C87.9294 63.9389 85.6226 64.5081 83.2805 64.51Z" fill="#3C3C41"/>
</g>
<defs>
<clipPath id="clip0_347_381">
<rect width="100" height="100" fill="white"/>
</clipPath>
</defs>
</svg>
