<svg width="100" height="100" viewBox="0 0 100 100" fill="none" xmlns="http://www.w3.org/2000/svg">
<path d="M50 15C43.0777 15 36.3108 17.0527 30.5551 20.8986C24.7993 24.7444 20.3133 30.2107 17.6642 36.6061C15.0152 43.0015 14.322 50.0388 15.6725 56.8281C17.023 63.6175 20.3564 69.8539 25.2513 74.7487C30.1461 79.6436 36.3825 82.977 43.1719 84.3275C49.9612 85.6779 56.9985 84.9848 63.3939 82.3358C69.7893 79.6867 75.2556 75.2007 79.1014 69.4449C82.9473 63.6892 85 56.9223 85 50C85 40.7174 81.3125 31.815 74.7487 25.2513C68.185 18.6875 59.2826 15 50 15ZM50 82.725C43.5276 82.725 37.2006 80.8057 31.819 77.2098C26.4374 73.614 22.2429 68.503 19.7661 62.5233C17.2892 56.5436 16.6411 49.9637 17.9038 43.6157C19.1665 37.2676 22.2833 31.4366 26.8599 26.8599C31.4366 22.2833 37.2677 19.1665 43.6157 17.9038C49.9637 16.6411 56.5436 17.2892 62.5233 19.766C68.503 22.2429 73.614 26.4374 77.2098 31.819C80.8057 37.2006 82.725 43.5276 82.725 50C82.725 58.6792 79.2772 67.0029 73.1401 73.1401C67.0029 79.2772 58.6792 82.725 50 82.725Z" fill="#3C3C41"/>
<path d="M49.9991 29.2441C44.4946 29.2441 39.2155 31.4308 35.3231 35.3231C31.4308 39.2155 29.2441 44.4946 29.2441 49.9991C29.2441 55.5037 31.4308 60.7828 35.3231 64.6751C39.2155 68.5675 44.4946 70.7541 49.9991 70.7541C55.5037 70.7541 60.7828 68.5675 64.6751 64.6751C68.5675 60.7828 70.7541 55.5037 70.7541 49.9991C70.7541 44.4946 68.5675 39.2155 64.6751 35.3231C60.7828 31.4308 55.5037 29.2441 49.9991 29.2441ZM30.3816 49.9991H49.9991V69.6166C44.7977 69.612 39.8106 67.5437 36.1326 63.8657C32.4546 60.1877 30.3863 55.2006 30.3816 49.9991ZM49.9991 49.9991V30.3816C55.2006 30.3863 60.1877 32.4546 63.8657 36.1326C67.5437 39.8106 69.612 44.7977 69.6166 49.9991H49.9991Z" fill="#3C3C41"/>
<path d="M74.2558 30.8191L69.767 33.7941L69.4608 34.0566L69.6883 33.7241L71.6745 29.7691L70.2658 28.3691L66.3108 30.3466L65.9783 30.5741L66.2408 30.2679L69.2508 25.7791C68.717 25.3416 68.227 24.9041 67.5795 24.4316L63.082 31.5191C63.6508 31.9566 64.4033 32.5954 64.8845 33.0416L69.1195 30.8454L69.3908 30.6441L69.1895 30.9154L66.967 35.1241C67.4395 35.6316 68.122 36.4541 68.507 36.9616L75.5945 32.4991C75.2445 32.0266 74.6758 31.3179 74.2558 30.8191Z" fill="#3C3C41"/>
<path d="M47.0943 21.86V21.4575L47.2168 21.8425L49.1505 26.2175H50.9005L52.8343 21.8862L52.9568 21.5012V21.9037L53.158 27.6962C53.8405 27.7575 54.5405 27.8537 55.2318 27.9675L54.8643 19.375C53.893 19.27 52.9305 19.1912 51.968 19.1562L50.0605 23.89L49.9905 24.24L49.9293 23.89L48.0218 19.1562C47.0593 19.1562 46.088 19.27 45.1255 19.375L44.8105 27.9587C45.5018 27.845 46.2105 27.7487 46.8843 27.6875L47.0943 21.86Z" fill="#3C3C41"/>
<path d="M35.2305 33.0154C36.3418 31.8342 36.9805 30.4779 35.8605 29.1742C35.5493 28.8437 35.1439 28.6169 34.6994 28.5246C34.2549 28.4322 33.7927 28.4788 33.3755 28.6579H33.2968V28.5879C33.4042 28.2006 33.3941 27.7901 33.268 27.4084C33.1418 27.0268 32.9052 26.6912 32.588 26.4442C32.3692 26.2708 32.1179 26.1428 31.849 26.0677C31.5801 25.9925 31.2988 25.9718 31.0218 26.0067C29.9718 26.1117 29.1668 26.8292 26.9618 29.2879C26.2968 30.0317 25.3343 31.1954 24.748 31.9567L30.8205 37.7492C32.8243 35.5092 33.6468 34.6779 35.2305 33.0154ZM27.338 31.6242C28.3033 30.4385 29.3376 29.3107 30.4355 28.2467C30.6121 28.0662 30.8276 27.9285 31.0655 27.8442C31.2552 27.8093 31.451 27.8478 31.6134 27.9517C31.7758 28.0557 31.8927 28.2174 31.9405 28.4042C31.9596 28.6128 31.9292 28.823 31.8516 29.0176C31.7741 29.2123 31.6516 29.3858 31.4943 29.5242C30.8468 30.2504 28.4843 32.7267 28.4843 32.7267L27.338 31.6242ZM32.7455 30.6704C32.9462 30.4332 33.1859 30.232 33.4543 30.0754C33.5767 30.0004 33.7176 29.9607 33.8612 29.9607C34.0048 29.9607 34.1456 30.0004 34.268 30.0754C34.3883 30.156 34.4817 30.2708 34.5362 30.4048C34.5908 30.5389 34.6041 30.6863 34.5743 30.8279C34.4604 31.1863 34.2554 31.5089 33.9793 31.7642L30.9255 35.0279L29.7005 33.8554L32.7455 30.6704Z" fill="#3C3C41"/>
</svg>
