<svg width="100" height="100" viewBox="0 0 100 100" fill="none" xmlns="http://www.w3.org/2000/svg">
<path d="M19.999 39.5946C24.343 26.8971 36.3493 18.3617 49.8617 18.3617C63.3669 18.3617 75.3805 26.8898 79.7245 39.5873L79.7609 39.6965H89.264V38.5613L85.3129 38.1029C82.8753 37.8191 82.3513 36.7422 81.6965 35.3815L81.5291 35.0468C75.8025 22.8659 63.3742 15 49.8472 15C36.3274 15 23.8919 22.8659 18.1798 35.0395L18.0197 35.3742C17.3576 36.7349 16.8337 37.8119 14.4033 38.0956L10.4522 38.5613V39.7037H19.9553L19.999 39.5946Z" fill="#3C3C41"/>
<path d="M79.71 60.4054C75.3659 73.1029 63.3669 81.631 49.8545 81.631C36.3347 81.631 24.3358 73.0956 20.0062 60.3981L19.9699 60.2963H10.4522V61.4387L14.4033 61.8971C16.8337 62.1809 17.3649 63.2578 18.0197 64.6185L18.1798 64.9459C23.8919 77.1268 36.3202 85 49.8472 85C63.3669 85 75.7952 77.1268 81.5145 64.9605L81.6746 64.6258C82.3368 63.2651 82.8534 62.1882 85.2911 61.9044L89.2495 61.4459V60.3035H79.7464L79.71 60.4054Z" fill="#3C3C41"/>
<path d="M27.0281 45.1248H24.8742V54.868H27.0281V45.1248Z" fill="#3C3C41"/>
<path d="M20.1081 54.868V45.1248H17.9543V52.3867L10.7723 45.1248H8V54.868H10.1538V47.5551L17.3867 54.868H20.1081Z" fill="#3C3C41"/>
<path d="M68.3368 45.1248L62.2536 54.8607H64.8659L65.9501 53.1216H73.0447L74.1289 54.8607H76.7412L70.658 45.1248H68.3368ZM67.0634 51.2807L69.501 47.3659L71.9314 51.2807H67.0634Z" fill="#3C3C41"/>
<path d="M47.6788 52.8596V54.868H56.4834C56.5561 54.868 57.0655 54.868 57.1892 54.8534C58.9865 54.6933 59.8015 53.1944 59.8015 51.8773C59.8015 50.5603 58.9428 49.0977 57.3129 48.9376C57.0801 48.9158 56.8472 48.9012 56.6071 48.9085H50.8514C50.6403 48.9158 50.4221 48.8939 50.211 48.8576C50.0291 48.8066 49.8618 48.6975 49.7526 48.5447C49.6435 48.3919 49.5853 48.2027 49.5925 48.0135C49.5925 47.8243 49.6507 47.6351 49.7672 47.4823C49.8836 47.3295 50.0437 47.2203 50.2256 47.1621C50.4221 47.1185 50.6258 47.1039 50.8295 47.1185H59.1393V45.1247H50.6986C50.4148 45.1174 50.131 45.132 49.8545 45.1684C49.1632 45.2484 48.5302 45.5904 48.079 46.1143C47.6206 46.6382 47.3805 47.3149 47.395 48.0062C47.395 49.2141 48.1518 50.6185 49.8181 50.8586C50.1164 50.895 50.4221 50.9023 50.7204 50.9023H56.3306C56.4397 50.9023 56.6799 50.9023 56.7381 50.9168C56.9709 50.9459 57.1819 51.0551 57.342 51.2297C57.5021 51.4043 57.5894 51.6226 57.5967 51.8555C57.604 52.0883 57.5239 52.3139 57.3784 52.4958C57.2329 52.6777 57.0218 52.7942 56.789 52.8378C56.7308 52.8451 56.4543 52.8596 56.3451 52.8596H47.6788Z" fill="#3C3C41"/>
<path d="M31.5104 52.8596V54.868H40.315C40.3877 54.868 40.8971 54.868 41.0208 54.8534C42.8181 54.6933 43.6403 53.1944 43.6403 51.8773C43.6403 50.5603 42.789 49.0977 41.159 48.9376C40.9262 48.9158 40.6933 48.9012 40.4532 48.9085H34.6902C34.4792 48.9158 34.2609 48.8939 34.0499 48.8576C33.868 48.8066 33.7006 48.6975 33.5915 48.5447C33.475 48.3919 33.4241 48.2027 33.4314 48.0135C33.4314 47.8243 33.4896 47.6351 33.606 47.4823C33.7225 47.3295 33.8825 47.2203 34.0644 47.1621C34.2609 47.1185 34.4647 47.1039 34.6684 47.1185H42.9782V45.1247H34.5374C34.2536 45.1174 33.9699 45.132 33.6933 45.1684C33.0021 45.2484 32.369 45.5904 31.9179 46.1143C31.4595 46.6382 31.2193 47.3149 31.2339 48.0062C31.2339 49.2141 31.9906 50.6185 33.657 50.8586C33.9553 50.895 34.2609 50.9023 34.5665 50.9023H40.1767C40.2859 50.9023 40.526 50.9023 40.5842 50.9168C40.817 50.9459 41.0281 51.0551 41.1881 51.2297C41.3482 51.4043 41.4356 51.6226 41.4428 51.8555C41.4501 52.0883 41.3701 52.3139 41.2245 52.4958C41.079 52.6777 40.868 52.8014 40.6351 52.8378C40.5696 52.8451 40.3004 52.8596 40.1913 52.8596H31.5104Z" fill="#3C3C41"/>
<path d="M89.526 45.1248V52.3867L82.3441 45.1248H79.5717V54.868H81.7256V47.5551L88.9584 54.868H91.6798V45.1248H89.526Z" fill="#3C3C41"/>
</svg>
