<svg width="20" height="20" viewBox="0 0 20 20" fill="none" xmlns="http://www.w3.org/2000/svg">
<path d="M-224 -374C-224 -375.105 -223.105 -376 -222 -376H2160C2161.1 -376 2162 -375.105 2162 -374V1544C2162 1545.1 2161.1 1546 2160 1546H-222C-223.105 1546 -224 1545.1 -224 1544V-374Z" fill="#C8C8CD"/>
<rect x="-143.5" y="-15.5" width="952" height="83" rx="4.5" fill="#05050A"/>
<rect x="-143.5" y="-15.5" width="952" height="83" rx="4.5" stroke="#9747FF" stroke-dasharray="10 5"/>
<path fill-rule="evenodd" clip-rule="evenodd" d="M17.1436 7.29582C17.6318 7.68635 17.6318 8.31951 17.1436 8.71004L10.8936 13.71C10.4055 14.1006 9.61404 14.1006 9.12588 13.71L2.87588 8.71004C2.38773 8.31951 2.38773 7.68635 2.87588 7.29582C3.36404 6.9053 4.15549 6.9053 4.64365 7.29582L10.0098 11.5887L15.3759 7.29582C15.864 6.9053 16.6555 6.9053 17.1436 7.29582Z" fill="#FAFAFF"/>
</svg>
