<svg width="295" height="305" viewBox="0 0 295 305" fill="none" xmlns="http://www.w3.org/2000/svg">
<path d="M79.8921 101.407H0V150.45H59.573L87.1595 178.036L59.573 205.623H0V254.665H79.8921L122.607 211.951L88.6921 178.036L122.607 144.122L79.8921 101.407Z" fill="#F8FFC4"/>
<path d="M79.8921 304.104H0V353.146H59.573L87.1595 380.733L59.573 408.319H0V457.362H79.8921L122.607 414.647L88.6921 380.733L122.607 346.818L79.8921 304.104Z" fill="#F8FFC4"/>
<path d="M79.8921 506.8H0V555.843H59.573L87.1595 583.429L59.573 611.016H0V660.059H79.8921L122.607 617.344L88.6921 583.429L122.607 549.515L79.8921 506.8Z" fill="#F8FFC4"/>
<path d="M251.542 0.0585938H171.649V49.1013H231.222L258.809 76.6878L231.222 104.274H171.649V153.317H251.542L294.256 110.602L260.342 76.6878L294.256 42.7732L251.542 0.0585938Z" fill="#F8FFC4"/>
<path d="M251.542 202.755H171.649V251.798H231.222L258.809 279.384L231.222 306.971H171.649V356.014H251.542L294.256 313.299L260.342 279.384L294.256 245.47L251.542 202.755Z" fill="#F8FFC4"/>
<path d="M251.542 405.452H171.649V454.495H231.222L258.809 482.081L231.222 509.668H171.649V558.71H251.542L294.256 515.996L260.342 482.081L294.256 448.166L251.542 405.452Z" fill="#F8FFC4"/>
</svg>
